<svg width="1440" height="735" xmlns="http://www.w3.org/2000/svg"><g><path d="M-71.40182603383437,-64.31140393484384L-72.00224777450785,530.105165776331L-67.27475445950404,287.98609940567985Z" fill="#fbd7f5" stroke="#fbd7f5"></path><path d="M-71.40182603383437,-64.31140393484384L-67.27475445950404,287.98609940567985L-52.56860031513497,31.51706120930612Z" fill="#fbf3fd" stroke="#fbf3fd"></path><path d="M-71.40182603383437,-64.31140393484384L-52.56860031513497,31.51706120930612L16.92225157516077,9.105005515739322Z" fill="#fafafc" stroke="#fafafc"></path><path d="M-71.40182603383437,-64.31140393484384L16.92225157516077,9.105005515739322L69.80604927521199,-66.44809309858829Z" fill="#f8f6fb" stroke="#f8f6fb"></path><path d="M69.80604927521199,-66.44809309858829L16.92225157516077,9.105005515739322L121.5337452525273,-29.758940322790295Z" fill="#f6f1f8" stroke="#f6f1f8"></path><path d="M69.80604927521199,-66.44809309858829L121.5337452525273,-29.758940322790295L216.0849834419787,-40.79867144813761Z" fill="#f3ecf5" stroke="#f3ecf5"></path><path d="M69.80604927521199,-66.44809309858829L216.0849834419787,-40.79867144813761L255.0274275522679,-43.09792372165248Z" fill="#f2e8f3" stroke="#f2e8f3"></path><path d="M69.80604927521199,-66.44809309858829L255.0274275522679,-43.09792372165248L519.6417437097989,-71.15859831916168Z" fill="#eee0ef" stroke="#eee0ef"></path><path d="M121.5337452525273,-29.758940322790295L16.92225157516077,9.105005515739322L124.72881269874051,65.86763300001621Z" fill="#f5eef7" stroke="#f5eef7"></path><path d="M121.5337452525273,-29.758940322790295L124.72881269874051,65.86763300001621L180.00160926487297,8.1251255213283Z" fill="#f3eaf5" stroke="#f3eaf5"></path><path d="M121.5337452525273,-29.758940322790295L180.00160926487297,8.1251255213283L216.0849834419787,-40.79867144813761Z" fill="#f2e9f4" stroke="#f2e9f4"></path><path d="M216.0849834419787,-40.79867144813761L180.00160926487297,8.1251255213283L288.3670051628724,42.77808201266453Z" fill="#f0e4f1" stroke="#f0e4f1"></path><path d="M216.0849834419787,-40.79867144813761L288.3670051628724,42.77808201266453L255.0274275522679,-43.09792372165248Z" fill="#efe3f0" stroke="#efe3f0"></path><path d="M255.0274275522679,-43.09792372165248L288.3670051628724,42.77808201266453L372.03652419382706,-46.003053050953895Z" fill="#eddfee" stroke="#eddfee"></path><path d="M255.0274275522679,-43.09792372165248L372.03652419382706,-46.003053050953895L519.6417437097989,-71.15859831916168Z" fill="#ebd8eb" stroke="#ebd8eb"></path><path d="M372.03652419382706,-46.003053050953895L288.3670051628724,42.77808201266453L368.0328982253559,33.40944432420656Z" fill="#ecdbec" stroke="#ecdbec"></path><path d="M372.03652419382706,-46.003053050953895L368.0328982253559,33.40944432420656L434.2938233818859,-14.823778155259788Z" fill="#ecd7ea" stroke="#ecd7ea"></path><path d="M372.03652419382706,-46.003053050953895L434.2938233818859,-14.823778155259788L519.6417437097989,-71.15859831916168Z" fill="#ecd1e7" stroke="#ecd1e7"></path><path d="M434.2938233818859,-14.823778155259788L368.0328982253559,33.40944432420656L408.45875159837306,71.13585909828544Z" fill="#ecd2e9" stroke="#ecd2e9"></path><path d="M434.2938233818859,-14.823778155259788L408.45875159837306,71.13585909828544L501.0346479085274,72.69807703094557Z" fill="#eccce7" stroke="#eccce7"></path><path d="M434.2938233818859,-14.823778155259788L501.0346479085274,72.69807703094557L519.6417437097989,-71.15859831916168Z" fill="#edcce5" stroke="#edcce5"></path><path d="M519.6417437097989,-71.15859831916168L501.0346479085274,72.69807703094557L620.1994436583482,-50.27803021017462Z" fill="#edc5e1" stroke="#edc5e1"></path><path d="M519.6417437097989,-71.15859831916168L620.1994436583482,-50.27803021017462L686.855495062191,-68.7029182096012Z" fill="#eebfde" stroke="#eebfde"></path><path d="M519.6417437097989,-71.15859831916168L686.855495062191,-68.7029182096012L1057.600168697536,-69.23808346502483Z" fill="#eeaed3" stroke="#eeaed3"></path><path d="M620.1994436583482,-50.27803021017462L501.0346479085274,72.69807703094557L629.3742432701401,54.30891593452543Z" fill="#eebfdf" stroke="#eebfdf"></path><path d="M620.1994436583482,-50.27803021017462L629.3742432701401,54.30891593452543L686.855495062191,-68.7029182096012Z" fill="#eebbdc" stroke="#eebbdc"></path><path d="M686.855495062191,-68.7029182096012L629.3742432701401,54.30891593452543L706.6519320919178,68.64186193561181Z" fill="#efb5da" stroke="#efb5da"></path><path d="M686.855495062191,-68.7029182096012L706.6519320919178,68.64186193561181L753.5024709091522,32.242838323581964Z" fill="#efb2d8" stroke="#efb2d8"></path><path d="M686.855495062191,-68.7029182096012L753.5024709091522,32.242838323581964L783.3333146991208,-44.750624424777925Z" fill="#efb0d5" stroke="#efb0d5"></path><path d="M686.855495062191,-68.7029182096012L783.3333146991208,-44.750624424777925L841.6696454118937,-45.44817965477705Z" fill="#eeacd1" stroke="#eeacd1"></path><path d="M686.855495062191,-68.7029182096012L841.6696454118937,-45.44817965477705L982.4507571593858,-55.88301906129345Z" fill="#eca5c9" stroke="#eca5c9"></path><path d="M686.855495062191,-68.7029182096012L982.4507571593858,-55.88301906129345L1057.600168697536,-69.23808346502483Z" fill="#eb9cc0" stroke="#eb9cc0"></path><path d="M783.3333146991208,-44.750624424777925L753.5024709091522,32.242838323581964L841.1125839897431,65.49023830331862Z" fill="#eea8cf" stroke="#eea8cf"></path><path d="M783.3333146991208,-44.750624424777925L841.1125839897431,65.49023830331862L841.6696454118937,-45.44817965477705Z" fill="#eda6cb" stroke="#eda6cb"></path><path d="M841.6696454118937,-45.44817965477705L841.1125839897431,65.49023830331862L919.7377704409882,15.519118532538414Z" fill="#eca0c5" stroke="#eca0c5"></path><path d="M841.6696454118937,-45.44817965477705L919.7377704409882,15.519118532538414L910.5912324157543,-42.91238202014938Z" fill="#eb9fc2" stroke="#eb9fc2"></path><path d="M841.6696454118937,-45.44817965477705L910.5912324157543,-42.91238202014938L982.4507571593858,-55.88301906129345Z" fill="#eb9cc0" stroke="#eb9cc0"></path><path d="M910.5912324157543,-42.91238202014938L919.7377704409882,15.519118532538414L982.4507571593858,-55.88301906129345Z" fill="#ea99bd" stroke="#ea99bd"></path><path d="M982.4507571593858,-55.88301906129345L919.7377704409882,15.519118532538414L1034.6974098286591,64.91422270890325Z" fill="#e993b7" stroke="#e993b7"></path><path d="M982.4507571593858,-55.88301906129345L1034.6974098286591,64.91422270890325L1069.0782789187506,39.015449283178896Z" fill="#e88db1" stroke="#e88db1"></path><path d="M982.4507571593858,-55.88301906129345L1069.0782789187506,39.015449283178896L1057.600168697536,-69.23808346502483Z" fill="#e88eb0" stroke="#e88eb0"></path><path d="M1057.600168697536,-69.23808346502483L1069.0782789187506,39.015449283178896L1126.8238632846624,-6.731337932869792Z" fill="#e788aa" stroke="#e788aa"></path><path d="M1057.600168697536,-69.23808346502483L1126.8238632846624,-6.731337932869792L1207.3654669593088,-33.84368600556627Z" fill="#e683a4" stroke="#e683a4"></path><path d="M1057.600168697536,-69.23808346502483L1207.3654669593088,-33.84368600556627L1310.9895955072716,-39.58613072289154Z" fill="#e4809d" stroke="#e4809d"></path><path d="M1057.600168697536,-69.23808346502483L1310.9895955072716,-39.58613072289154L1400.5845867237076,-63.960914835333824Z" fill="#e38095" stroke="#e38095"></path><path d="M1126.8238632846624,-6.731337932869792L1069.0782789187506,39.015449283178896L1161.4219013834372,57.50224458053708Z" fill="#e681a6" stroke="#e681a6"></path><path d="M1126.8238632846624,-6.731337932869792L1161.4219013834372,57.50224458053708L1207.3654669593088,-33.84368600556627Z" fill="#e57fa0" stroke="#e57fa0"></path><path d="M1207.3654669593088,-33.84368600556627L1161.4219013834372,57.50224458053708L1236.6902078245766,49.380652306135744Z" fill="#e47d9c" stroke="#e47d9c"></path><path d="M1207.3654669593088,-33.84368600556627L1236.6902078245766,49.380652306135744L1310.9895955072716,-39.58613072289154Z" fill="#e38095" stroke="#e38095"></path><path d="M1310.9895955072716,-39.58613072289154L1236.6902078245766,49.380652306135744L1303.0114815244451,54.32054136879742Z" fill="#e27d91" stroke="#e27d91"></path><path d="M1310.9895955072716,-39.58613072289154L1303.0114815244451,54.32054136879742L1418.419365112204,56.44697158364579Z" fill="#e17d8a" stroke="#e17d8a"></path><path d="M1310.9895955072716,-39.58613072289154L1418.419365112204,56.44697158364579L1400.5845867237076,-63.960914835333824Z" fill="#e08086" stroke="#e08086"></path><path d="M1400.5845867237076,-63.960914835333824L1418.419365112204,56.44697158364579L1500.038270209916,-55.43955227127299Z" fill="#de8080" stroke="#de8080"></path><path d="M1500.038270209916,-55.43955227127299L1418.419365112204,56.44697158364579L1447.9723747586831,67.50185628421605Z" fill="#de7d80" stroke="#de7d80"></path><path d="M1500.038270209916,-55.43955227127299L1447.9723747586831,67.50185628421605L1501.7873402801342,137.66848906641826Z" fill="#dd7a80" stroke="#dd7a80"></path><path d="M-52.56860031513497,31.51706120930612L-67.27475445950404,287.98609940567985L-28.212607165332884,124.91206547245383Z" fill="#faebfd" stroke="#faebfd"></path><path d="M-52.56860031513497,31.51706120930612L-28.212607165332884,124.91206547245383L55.2906844438985,86.56989323440939Z" fill="#f9effb" stroke="#f9effb"></path><path d="M-52.56860031513497,31.51706120930612L55.2906844438985,86.56989323440939L16.92225157516077,9.105005515739322Z" fill="#f8f2fa" stroke="#f8f2fa"></path><path d="M16.92225157516077,9.105005515739322L55.2906844438985,86.56989323440939L124.72881269874051,65.86763300001621Z" fill="#f6ecf8" stroke="#f6ecf8"></path><path d="M124.72881269874051,65.86763300001621L55.2906844438985,86.56989323440939L140.47949061030522,112.71782727446407Z" fill="#f4e5f6" stroke="#f4e5f6"></path><path d="M124.72881269874051,65.86763300001621L140.47949061030522,112.71782727446407L213.99678556248546,107.27194694569334Z" fill="#f2e0f4" stroke="#f2e0f4"></path><path d="M124.72881269874051,65.86763300001621L213.99678556248546,107.27194694569334L180.00160926487297,8.1251255213283Z" fill="#f2e3f4" stroke="#f2e3f4"></path><path d="M180.00160926487297,8.1251255213283L213.99678556248546,107.27194694569334L288.3670051628724,42.77808201266453Z" fill="#f0dff1" stroke="#f0dff1"></path><path d="M288.3670051628724,42.77808201266453L213.99678556248546,107.27194694569334L311.59179652808234,110.32569100847468Z" fill="#eed8ef" stroke="#eed8ef"></path><path d="M288.3670051628724,42.77808201266453L311.59179652808234,110.32569100847468L337.5155033217743,90.59721439145505Z" fill="#edd6ee" stroke="#edd6ee"></path><path d="M288.3670051628724,42.77808201266453L337.5155033217743,90.59721439145505L368.0328982253559,33.40944432420656Z" fill="#ecd7ed" stroke="#ecd7ed"></path><path d="M368.0328982253559,33.40944432420656L337.5155033217743,90.59721439145505L408.45875159837306,71.13585909828544Z" fill="#ebd2eb" stroke="#ebd2eb"></path><path d="M408.45875159837306,71.13585909828544L337.5155033217743,90.59721439145505L411.07866865349934,141.6190894925967Z" fill="#eccdea" stroke="#eccdea"></path><path d="M408.45875159837306,71.13585909828544L411.07866865349934,141.6190894925967L501.0346479085274,72.69807703094557Z" fill="#ecc7e7" stroke="#ecc7e7"></path><path d="M501.0346479085274,72.69807703094557L411.07866865349934,141.6190894925967L492.14284400688484,201.74806284485385Z" fill="#ecc0e6" stroke="#ecc0e6"></path><path d="M501.0346479085274,72.69807703094557L492.14284400688484,201.74806284485385L549.3286943389103,131.96003251709044Z" fill="#edbbe3" stroke="#edbbe3"></path><path d="M501.0346479085274,72.69807703094557L549.3286943389103,131.96003251709044L617.2842306178063,108.50648139836267Z" fill="#edb9e1" stroke="#edb9e1"></path><path d="M501.0346479085274,72.69807703094557L617.2842306178063,108.50648139836267L629.3742432701401,54.30891593452543Z" fill="#eeb9df" stroke="#eeb9df"></path><path d="M629.3742432701401,54.30891593452543L617.2842306178063,108.50648139836267L706.6519320919178,68.64186193561181Z" fill="#eeb2dc" stroke="#eeb2dc"></path><path d="M706.6519320919178,68.64186193561181L617.2842306178063,108.50648139836267L664.9346550786868,139.82417151797563Z" fill="#efaedb" stroke="#efaedb"></path><path d="M706.6519320919178,68.64186193561181L664.9346550786868,139.82417151797563L743.9894375065342,95.41794610209763Z" fill="#efa9d9" stroke="#efa9d9"></path><path d="M706.6519320919178,68.64186193561181L743.9894375065342,95.41794610209763L753.5024709091522,32.242838323581964Z" fill="#efaad6" stroke="#efaad6"></path><path d="M753.5024709091522,32.242838323581964L743.9894375065342,95.41794610209763L841.1125839897431,65.49023830331862Z" fill="#eea4d0" stroke="#eea4d0"></path><path d="M841.1125839897431,65.49023830331862L743.9894375065342,95.41794610209763L836.1278469627723,121.83482898632064Z" fill="#ed9ecd" stroke="#ed9ecd"></path><path d="M841.1125839897431,65.49023830331862L836.1278469627723,121.83482898632064L910.5182406515814,102.39855969324708Z" fill="#ec98c6" stroke="#ec98c6"></path><path d="M841.1125839897431,65.49023830331862L910.5182406515814,102.39855969324708L919.7377704409882,15.519118532538414Z" fill="#eb98c2" stroke="#eb98c2"></path><path d="M919.7377704409882,15.519118532538414L910.5182406515814,102.39855969324708L1034.6974098286591,64.91422270890325Z" fill="#ea91ba" stroke="#ea91ba"></path><path d="M1034.6974098286591,64.91422270890325L910.5182406515814,102.39855969324708L1025.4361209319904,118.63636215450242Z" fill="#e989b6" stroke="#e989b6"></path><path d="M1034.6974098286591,64.91422270890325L1025.4361209319904,118.63636215450242L1092.7870972570963,115.40248875971884Z" fill="#e782ae" stroke="#e782ae"></path><path d="M1034.6974098286591,64.91422270890325L1092.7870972570963,115.40248875971884L1069.0782789187506,39.015449283178896Z" fill="#e782ad" stroke="#e782ad"></path><path d="M1069.0782789187506,39.015449283178896L1092.7870972570963,115.40248875971884L1161.4219013834372,57.50224458053708Z" fill="#e67ea7" stroke="#e67ea7"></path><path d="M1161.4219013834372,57.50224458053708L1092.7870972570963,115.40248875971884L1149.755967753008,114.50752374716103Z" fill="#e578a4" stroke="#e578a4"></path><path d="M1161.4219013834372,57.50224458053708L1149.755967753008,114.50752374716103L1247.5275445263833,119.24530283780769Z" fill="#e4759d" stroke="#e4759d"></path><path d="M1161.4219013834372,57.50224458053708L1247.5275445263833,119.24530283780769L1236.6902078245766,49.380652306135744Z" fill="#e4789a" stroke="#e4789a"></path><path d="M1236.6902078245766,49.380652306135744L1247.5275445263833,119.24530283780769L1303.0114815244451,54.32054136879742Z" fill="#e27894" stroke="#e27894"></path><path d="M1303.0114815244451,54.32054136879742L1247.5275445263833,119.24530283780769L1322.8649211046286,115.93810182297602Z" fill="#e27690" stroke="#e27690"></path><path d="M1303.0114815244451,54.32054136879742L1322.8649211046286,115.93810182297602L1384.8597055650316,105.65909440862015Z" fill="#e1768b" stroke="#e1768b"></path><path d="M1303.0114815244451,54.32054136879742L1384.8597055650316,105.65909440862015L1418.419365112204,56.44697158364579Z" fill="#e07887" stroke="#e07887"></path><path d="M1418.419365112204,56.44697158364579L1384.8597055650316,105.65909440862015L1447.9723747586831,67.50185628421605Z" fill="#df7881" stroke="#df7881"></path><path d="M1447.9723747586831,67.50185628421605L1384.8597055650316,105.65909440862015L1501.7873402801342,137.66848906641826Z" fill="#de7580" stroke="#de7580"></path><path d="M-28.212607165332884,124.91206547245383L-67.27475445950404,287.98609940567985L-22.392401748802513,223.95162518601865Z" fill="#fadff9" stroke="#fadff9"></path><path d="M-28.212607165332884,124.91206547245383L-22.392401748802513,223.95162518601865L8.892321698367596,183.82649520412087Z" fill="#f9e5fb" stroke="#f9e5fb"></path><path d="M-28.212607165332884,124.91206547245383L8.892321698367596,183.82649520412087L55.2906844438985,86.56989323440939Z" fill="#f8e8fa" stroke="#f8e8fa"></path><path d="M55.2906844438985,86.56989323440939L8.892321698367596,183.82649520412087L105.01364099094644,192.8264426928945Z" fill="#f6e2f8" stroke="#f6e2f8"></path><path d="M55.2906844438985,86.56989323440939L105.01364099094644,192.8264426928945L140.47949061030522,112.71782727446407Z" fill="#f5e1f7" stroke="#f5e1f7"></path><path d="M140.47949061030522,112.71782727446407L105.01364099094644,192.8264426928945L215.39314610650763,216.89641990698874Z" fill="#f3d8f4" stroke="#f3d8f4"></path><path d="M140.47949061030522,112.71782727446407L215.39314610650763,216.89641990698874L213.99678556248546,107.27194694569334Z" fill="#f1d8f3" stroke="#f1d8f3"></path><path d="M213.99678556248546,107.27194694569334L215.39314610650763,216.89641990698874L254.54969401005656,227.4366855272092Z" fill="#f0d1f1" stroke="#f0d1f1"></path><path d="M213.99678556248546,107.27194694569334L254.54969401005656,227.4366855272092L311.59179652808234,110.32569100847468Z" fill="#efd3f0" stroke="#efd3f0"></path><path d="M311.59179652808234,110.32569100847468L254.54969401005656,227.4366855272092L373.04303754121065,197.67339665209875Z" fill="#edcbee" stroke="#edcbee"></path><path d="M311.59179652808234,110.32569100847468L373.04303754121065,197.67339665209875L411.07866865349934,141.6190894925967Z" fill="#ebcaeb" stroke="#ebcaeb"></path><path d="M311.59179652808234,110.32569100847468L411.07866865349934,141.6190894925967L337.5155033217743,90.59721439145505Z" fill="#ebcfec" stroke="#ebcfec"></path><path d="M411.07866865349934,141.6190894925967L373.04303754121065,197.67339665209875L414.39385572681203,172.4975962121971Z" fill="#ecc4ea" stroke="#ecc4ea"></path><path d="M411.07866865349934,141.6190894925967L414.39385572681203,172.4975962121971L492.14284400688484,201.74806284485385Z" fill="#ecbfe7" stroke="#ecbfe7"></path><path d="M549.3286943389103,131.96003251709044L492.14284400688484,201.74806284485385L612.898635584861,215.62471362296492Z" fill="#edb1e1" stroke="#edb1e1"></path><path d="M549.3286943389103,131.96003251709044L612.898635584861,215.62471362296492L617.2842306178063,108.50648139836267Z" fill="#eeb0df" stroke="#eeb0df"></path><path d="M617.2842306178063,108.50648139836267L612.898635584861,215.62471362296492L664.9346550786868,139.82417151797563Z" fill="#eeacdd" stroke="#eeacdd"></path><path d="M664.9346550786868,139.82417151797563L612.898635584861,215.62471362296492L667.8269717353396,231.2339464528486Z" fill="#eea4da" stroke="#eea4da"></path><path d="M664.9346550786868,139.82417151797563L667.8269717353396,231.2339464528486L792.0607023267075,230.84019350353628Z" fill="#ef9cd6" stroke="#ef9cd6"></path><path d="M664.9346550786868,139.82417151797563L792.0607023267075,230.84019350353628L743.9894375065342,95.41794610209763Z" fill="#efa0d6" stroke="#efa0d6"></path><path d="M743.9894375065342,95.41794610209763L792.0607023267075,230.84019350353628L822.3748588329181,207.77268844656646Z" fill="#ee98cf" stroke="#ee98cf"></path><path d="M743.9894375065342,95.41794610209763L822.3748588329181,207.77268844656646L836.1278469627723,121.83482898632064Z" fill="#ed9ace" stroke="#ed9ace"></path><path d="M836.1278469627723,121.83482898632064L822.3748588329181,207.77268844656646L924.9262419738807,207.41831220686436Z" fill="#ec8fc6" stroke="#ec8fc6"></path><path d="M836.1278469627723,121.83482898632064L924.9262419738807,207.41831220686436L910.5182406515814,102.39855969324708Z" fill="#eb8fc2" stroke="#eb8fc2"></path><path d="M910.5182406515814,102.39855969324708L924.9262419738807,207.41831220686436L971.3486773171462,180.3386106225662Z" fill="#ea88bd" stroke="#ea88bd"></path><path d="M910.5182406515814,102.39855969324708L971.3486773171462,180.3386106225662L1025.4361209319904,118.63636215450242Z" fill="#e988b9" stroke="#e988b9"></path><path d="M1025.4361209319904,118.63636215450242L971.3486773171462,180.3386106225662L1055.308992464561,251.41554306494072Z" fill="#e87cb3" stroke="#e87cb3"></path><path d="M1025.4361209319904,118.63636215450242L1055.308992464561,251.41554306494072L1110.507026463747,168.4403786668554Z" fill="#e778ad" stroke="#e778ad"></path><path d="M1025.4361209319904,118.63636215450242L1110.507026463747,168.4403786668554L1092.7870972570963,115.40248875971884Z" fill="#e77bab" stroke="#e77bab"></path><path d="M1092.7870972570963,115.40248875971884L1110.507026463747,168.4403786668554L1149.755967753008,114.50752374716103Z" fill="#e676a6" stroke="#e676a6"></path><path d="M1149.755967753008,114.50752374716103L1110.507026463747,168.4403786668554L1130.1618480239995,185.3391025448218Z" fill="#e672a4" stroke="#e672a4"></path><path d="M1149.755967753008,114.50752374716103L1130.1618480239995,185.3391025448218L1231.9057045108639,191.2526343180798Z" fill="#e56e9f" stroke="#e56e9f"></path><path d="M1149.755967753008,114.50752374716103L1231.9057045108639,191.2526343180798L1247.5275445263833,119.24530283780769Z" fill="#e4719b" stroke="#e4719b"></path><path d="M1247.5275445263833,119.24530283780769L1231.9057045108639,191.2526343180798L1287.786742716562,203.92001663101837Z" fill="#e36e95" stroke="#e36e95"></path><path d="M1247.5275445263833,119.24530283780769L1287.786742716562,203.92001663101837L1322.8649211046286,115.93810182297602Z" fill="#e27091" stroke="#e27091"></path><path d="M1322.8649211046286,115.93810182297602L1287.786742716562,203.92001663101837L1420.624390100129,197.53579108742997Z" fill="#e16d8a" stroke="#e16d8a"></path><path d="M1322.8649211046286,115.93810182297602L1420.624390100129,197.53579108742997L1384.8597055650316,105.65909440862015Z" fill="#e07186" stroke="#e07186"></path><path d="M1384.8597055650316,105.65909440862015L1420.624390100129,197.53579108742997L1501.7873402801342,137.66848906641826Z" fill="#de7080" stroke="#de7080"></path><path d="M1501.7873402801342,137.66848906641826L1420.624390100129,197.53579108742997L1458.72827187879,205.16260675154626Z" fill="#de6d80" stroke="#de6d80"></path><path d="M1501.7873402801342,137.66848906641826L1458.72827187879,205.16260675154626L1494.1653591021895,275.394273516722Z" fill="#dd667d" stroke="#dd667d"></path><path d="M1501.7873402801342,137.66848906641826L1494.1653591021895,275.394273516722L1478.6803469690494,791.493528932333Z" fill="#dc345f" stroke="#dc345f"></path><path d="M-22.392401748802513,223.95162518601865L-67.27475445950404,287.98609940567985L6.252140214201063,311.69515911955386Z" fill="#f9cef1" stroke="#f9cef1"></path><path d="M-22.392401748802513,223.95162518601865L6.252140214201063,311.69515911955386L88.16157875116915,266.3815071294084Z" fill="#f7cbf0" stroke="#f7cbf0"></path><path d="M-22.392401748802513,223.95162518601865L88.16157875116915,266.3815071294084L8.892321698367596,183.82649520412087Z" fill="#f7d7f5" stroke="#f7d7f5"></path><path d="M8.892321698367596,183.82649520412087L88.16157875116915,266.3815071294084L105.01364099094644,192.8264426928945Z" fill="#f6d6f4" stroke="#f6d6f4"></path><path d="M105.01364099094644,192.8264426928945L88.16157875116915,266.3815071294084L181.07576829148456,271.89053828828037Z" fill="#f4caee" stroke="#f4caee"></path><path d="M105.01364099094644,192.8264426928945L181.07576829148456,271.89053828828037L215.39314610650763,216.89641990698874Z" fill="#f2cbee" stroke="#f2cbee"></path><path d="M215.39314610650763,216.89641990698874L181.07576829148456,271.89053828828037L254.54969401005656,227.4366855272092Z" fill="#f0c4eb" stroke="#f0c4eb"></path><path d="M254.54969401005656,227.4366855272092L181.07576829148456,271.89053828828037L276.81601335294545,275.32434267457575Z" fill="#f0bde8" stroke="#f0bde8"></path><path d="M254.54969401005656,227.4366855272092L276.81601335294545,275.32434267457575L373.04303754121065,197.67339665209875Z" fill="#edbee8" stroke="#edbee8"></path><path d="M373.04303754121065,197.67339665209875L276.81601335294545,275.32434267457575L390.5137467593886,299.72391206072643Z" fill="#ecb4e3" stroke="#ecb4e3"></path><path d="M373.04303754121065,197.67339665209875L390.5137467593886,299.72391206072643L441.55422882642597,273.4680334990844Z" fill="#ecafe0" stroke="#ecafe0"></path><path d="M373.04303754121065,197.67339665209875L441.55422882642597,273.4680334990844L414.39385572681203,172.4975962121971Z" fill="#ecb9e5" stroke="#ecb9e5"></path><path d="M414.39385572681203,172.4975962121971L441.55422882642597,273.4680334990844L492.14284400688484,201.74806284485385Z" fill="#ecb4e3" stroke="#ecb4e3"></path><path d="M492.14284400688484,201.74806284485385L441.55422882642597,273.4680334990844L510.1244779233821,287.5635333568789Z" fill="#eda7dd" stroke="#eda7dd"></path><path d="M492.14284400688484,201.74806284485385L510.1244779233821,287.5635333568789L612.898635584861,215.62471362296492Z" fill="#eda5db" stroke="#eda5db"></path><path d="M612.898635584861,215.62471362296492L510.1244779233821,287.5635333568789L631.6238628514111,301.5137894102372Z" fill="#ee98d5" stroke="#ee98d5"></path><path d="M612.898635584861,215.62471362296492L631.6238628514111,301.5137894102372L667.8269717353396,231.2339464528486Z" fill="#ee97d4" stroke="#ee97d4"></path><path d="M667.8269717353396,231.2339464528486L631.6238628514111,301.5137894102372L683.9611952309497,287.27705678669736Z" fill="#ef8ed0" stroke="#ef8ed0"></path><path d="M667.8269717353396,231.2339464528486L683.9611952309497,287.27705678669736L725.2290384843946,303.5700527043082Z" fill="#ef8ace" stroke="#ef8ace"></path><path d="M667.8269717353396,231.2339464528486L725.2290384843946,303.5700527043082L792.0607023267075,230.84019350353628Z" fill="#ef8bce" stroke="#ef8bce"></path><path d="M792.0607023267075,230.84019350353628L725.2290384843946,303.5700527043082L806.962279828731,275.2900748467073Z" fill="#ee82c6" stroke="#ee82c6"></path><path d="M792.0607023267075,230.84019350353628L806.962279828731,275.2900748467073L822.3748588329181,207.77268844656646Z" fill="#ed87c6" stroke="#ed87c6"></path><path d="M822.3748588329181,207.77268844656646L806.962279828731,275.2900748467073L924.9262419738807,207.41831220686436Z" fill="#ec84c2" stroke="#ec84c2"></path><path d="M924.9262419738807,207.41831220686436L806.962279828731,275.2900748467073L892.788381066639,327.544292260427Z" fill="#ec76ba" stroke="#ec76ba"></path><path d="M924.9262419738807,207.41831220686436L892.788381066639,327.544292260427L947.623834470287,284.41817140672356Z" fill="#ea70b4" stroke="#ea70b4"></path><path d="M924.9262419738807,207.41831220686436L947.623834470287,284.41817140672356L971.3486773171462,180.3386106225662Z" fill="#ea7ab6" stroke="#ea7ab6"></path><path d="M971.3486773171462,180.3386106225662L947.623834470287,284.41817140672356L1032.5427184510045,285.8329164865427Z" fill="#e96faf" stroke="#e96faf"></path><path d="M971.3486773171462,180.3386106225662L1032.5427184510045,285.8329164865427L1055.308992464561,251.41554306494072Z" fill="#e86eab" stroke="#e86eab"></path><path d="M1110.507026463747,168.4403786668554L1055.308992464561,251.41554306494072L1130.1618480239995,185.3391025448218Z" fill="#e66fa6" stroke="#e66fa6"></path><path d="M1130.1618480239995,185.3391025448218L1055.308992464561,251.41554306494072L1170.998442757409,285.23319136118516Z" fill="#e6629f" stroke="#e6629f"></path><path d="M1130.1618480239995,185.3391025448218L1170.998442757409,285.23319136118516L1231.9057045108639,191.2526343180798Z" fill="#e4639a" stroke="#e4639a"></path><path d="M1231.9057045108639,191.2526343180798L1170.998442757409,285.23319136118516L1249.889398952946,245.8042758097872Z" fill="#e45d93" stroke="#e45d93"></path><path d="M1231.9057045108639,191.2526343180798L1249.889398952946,245.8042758097872L1287.786742716562,203.92001663101837Z" fill="#e36491" stroke="#e36491"></path><path d="M1287.786742716562,203.92001663101837L1249.889398952946,245.8042758097872L1344.8043812462129,269.5489065675065Z" fill="#e25e89" stroke="#e25e89"></path><path d="M1287.786742716562,203.92001663101837L1344.8043812462129,269.5489065675065L1420.624390100129,197.53579108742997Z" fill="#e06284" stroke="#e06284"></path><path d="M1420.624390100129,197.53579108742997L1344.8043812462129,269.5489065675065L1396.2767190439627,288.24898198246956Z" fill="#df5a7c" stroke="#df5a7c"></path><path d="M1420.624390100129,197.53579108742997L1396.2767190439627,288.24898198246956L1458.72827187879,205.16260675154626Z" fill="#df607a" stroke="#df607a"></path><path d="M1458.72827187879,205.16260675154626L1396.2767190439627,288.24898198246956L1494.1653591021895,275.394273516722Z" fill="#de5977" stroke="#de5977"></path><path d="M-67.27475445950404,287.98609940567985L-72.00224777450785,530.105165776331L-66.00054528564215,339.8424792615697Z" fill="#fab4e2" stroke="#fab4e2"></path><path d="M-67.27475445950404,287.98609940567985L-66.00054528564215,339.8424792615697L6.252140214201063,311.69515911955386Z" fill="#fac5ed" stroke="#fac5ed"></path><path d="M6.252140214201063,311.69515911955386L-66.00054528564215,339.8424792615697L25.52972454112023,328.7498363875784Z" fill="#f9bfea" stroke="#f9bfea"></path><path d="M6.252140214201063,311.69515911955386L25.52972454112023,328.7498363875784L88.16157875116915,266.3815071294084Z" fill="#f7c1eb" stroke="#f7c1eb"></path><path d="M88.16157875116915,266.3815071294084L25.52972454112023,328.7498363875784L137.7447522757575,368.0916669894941Z" fill="#f5b9e6" stroke="#f5b9e6"></path><path d="M88.16157875116915,266.3815071294084L137.7447522757575,368.0916669894941L181.07576829148456,271.89053828828037Z" fill="#f3bae7" stroke="#f3bae7"></path><path d="M181.07576829148456,271.89053828828037L137.7447522757575,368.0916669894941L221.0541539802216,364.80169273912907Z" fill="#f2aee1" stroke="#f2aee1"></path><path d="M181.07576829148456,271.89053828828037L221.0541539802216,364.80169273912907L276.81601335294545,275.32434267457575Z" fill="#f0b2e3" stroke="#f0b2e3"></path><path d="M276.81601335294545,275.32434267457575L221.0541539802216,364.80169273912907L247.5548091926612,382.8461007052101Z" fill="#efa7dd" stroke="#efa7dd"></path><path d="M276.81601335294545,275.32434267457575L247.5548091926612,382.8461007052101L344.1486579319462,374.3932709447108Z" fill="#eea2db" stroke="#eea2db"></path><path d="M276.81601335294545,275.32434267457575L344.1486579319462,374.3932709447108L390.5137467593886,299.72391206072643Z" fill="#eca6dc" stroke="#eca6dc"></path><path d="M390.5137467593886,299.72391206072643L344.1486579319462,374.3932709447108L455.93784210970625,326.9209134904668Z" fill="#ec9cd7" stroke="#ec9cd7"></path><path d="M390.5137467593886,299.72391206072643L455.93784210970625,326.9209134904668L441.55422882642597,273.4680334990844Z" fill="#eca1da" stroke="#eca1da"></path><path d="M441.55422882642597,273.4680334990844L455.93784210970625,326.9209134904668L510.1244779233821,287.5635333568789Z" fill="#ec9dd8" stroke="#ec9dd8"></path><path d="M510.1244779233821,287.5635333568789L455.93784210970625,326.9209134904668L521.9737338554114,359.67146538197994Z" fill="#ed93d3" stroke="#ed93d3"></path><path d="M510.1244779233821,287.5635333568789L521.9737338554114,359.67146538197994L631.6238628514111,301.5137894102372Z" fill="#ed8fd1" stroke="#ed8fd1"></path><path d="M631.6238628514111,301.5137894102372L521.9737338554114,359.67146538197994L618.8663559034467,360.2664794633165Z" fill="#ee84cc" stroke="#ee84cc"></path><path d="M631.6238628514111,301.5137894102372L618.8663559034467,360.2664794633165L654.9190489947796,345.91419440926984Z" fill="#ee81ca" stroke="#ee81ca"></path><path d="M631.6238628514111,301.5137894102372L654.9190489947796,345.91419440926984L683.9611952309497,287.27705678669736Z" fill="#ef84cc" stroke="#ef84cc"></path><path d="M683.9611952309497,287.27705678669736L654.9190489947796,345.91419440926984L725.2290384843946,303.5700527043082Z" fill="#ef81ca" stroke="#ef81ca"></path><path d="M725.2290384843946,303.5700527043082L654.9190489947796,345.91419440926984L753.7386391800828,383.7336663273163Z" fill="#ef76c5" stroke="#ef76c5"></path><path d="M725.2290384843946,303.5700527043082L753.7386391800828,383.7336663273163L810.6327587063424,358.0491958092898Z" fill="#ee6fbe" stroke="#ee6fbe"></path><path d="M725.2290384843946,303.5700527043082L810.6327587063424,358.0491958092898L806.962279828731,275.2900748467073Z" fill="#ee76c1" stroke="#ee76c1"></path><path d="M806.962279828731,275.2900748467073L810.6327587063424,358.0491958092898L892.788381066639,327.544292260427Z" fill="#ec6eb9" stroke="#ec6eb9"></path><path d="M947.623834470287,284.41817140672356L892.788381066639,327.544292260427L978.2608551764861,367.578816274181Z" fill="#ea60ab" stroke="#ea60ab"></path><path d="M947.623834470287,284.41817140672356L978.2608551764861,367.578816274181L1032.5427184510045,285.8329164865427Z" fill="#e95fa6" stroke="#e95fa6"></path><path d="M1032.5427184510045,285.8329164865427L978.2608551764861,367.578816274181L1101.5639787656255,364.58685057470575Z" fill="#e8529d" stroke="#e8529d"></path><path d="M1032.5427184510045,285.8329164865427L1101.5639787656255,364.58685057470575L1055.308992464561,251.41554306494072Z" fill="#e7599e" stroke="#e7599e"></path><path d="M1055.308992464561,251.41554306494072L1101.5639787656255,364.58685057470575L1170.998442757409,285.23319136118516Z" fill="#e65399" stroke="#e65399"></path><path d="M1170.998442757409,285.23319136118516L1101.5639787656255,364.58685057470575L1194.645017273724,346.65386829990894Z" fill="#e5468f" stroke="#e5468f"></path><path d="M1170.998442757409,285.23319136118516L1194.645017273724,346.65386829990894L1246.6181635926478,337.5186455063522Z" fill="#e4488a" stroke="#e4488a"></path><path d="M1170.998442757409,285.23319136118516L1246.6181635926478,337.5186455063522L1249.889398952946,245.8042758097872Z" fill="#e3518c" stroke="#e3518c"></path><path d="M1249.889398952946,245.8042758097872L1246.6181635926478,337.5186455063522L1344.8043812462129,269.5489065675065Z" fill="#e25285" stroke="#e25285"></path><path d="M1344.8043812462129,269.5489065675065L1246.6181635926478,337.5186455063522L1353.693152552005,378.86281663086265Z" fill="#e1467c" stroke="#e1467c"></path><path d="M1344.8043812462129,269.5489065675065L1353.693152552005,378.86281663086265L1396.2767190439627,288.24898198246956Z" fill="#e04b78" stroke="#e04b78"></path><path d="M1396.2767190439627,288.24898198246956L1353.693152552005,378.86281663086265L1401.68145760661,365.8303958643228Z" fill="#e04271" stroke="#e04271"></path><path d="M1396.2767190439627,288.24898198246956L1401.68145760661,365.8303958643228L1494.1653591021895,275.394273516722Z" fill="#de4b70" stroke="#de4b70"></path><path d="M1494.1653591021895,275.394273516722L1401.68145760661,365.8303958643228L1477.6684262393974,394.31198907783255Z" fill="#de426c" stroke="#de426c"></path><path d="M1494.1653591021895,275.394273516722L1477.6684262393974,394.31198907783255L1483.2713738945313,517.0476582366973Z" fill="#dd3661" stroke="#dd3661"></path><path d="M1494.1653591021895,275.394273516722L1483.2713738945313,517.0476582366973L1478.6803469690494,791.493528932333Z" fill="#d9173a" stroke="#d9173a"></path><path d="M-66.00054528564215,339.8424792615697L-72.00224777450785,530.105165776331L-54.788695089519024,417.6716978661716Z" fill="#f9aad5" stroke="#f9aad5"></path><path d="M-66.00054528564215,339.8424792615697L-54.788695089519024,417.6716978661716L25.52972454112023,328.7498363875784Z" fill="#f9b7e6" stroke="#f9b7e6"></path><path d="M25.52972454112023,328.7498363875784L-54.788695089519024,417.6716978661716L58.751097589265555,426.2235047458671Z" fill="#f7addd" stroke="#f7addd"></path><path d="M25.52972454112023,328.7498363875784L58.751097589265555,426.2235047458671L137.7447522757575,368.0916669894941Z" fill="#f6acdf" stroke="#f6acdf"></path><path d="M137.7447522757575,368.0916669894941L58.751097589265555,426.2235047458671L116.08338141813874,414.622923580464Z" fill="#f3a3d5" stroke="#f3a3d5"></path><path d="M137.7447522757575,368.0916669894941L116.08338141813874,414.622923580464L168.3528421772644,423.6482952302322Z" fill="#f2a0d4" stroke="#f2a0d4"></path><path d="M137.7447522757575,368.0916669894941L168.3528421772644,423.6482952302322L221.0541539802216,364.80169273912907Z" fill="#f1a1d7" stroke="#f1a1d7"></path><path d="M221.0541539802216,364.80169273912907L168.3528421772644,423.6482952302322L247.5548091926612,382.8461007052101Z" fill="#f09dd5" stroke="#f09dd5"></path><path d="M247.5548091926612,382.8461007052101L168.3528421772644,423.6482952302322L253.69875591015443,485.51234676036984Z" fill="#ef93c8" stroke="#ef93c8"></path><path d="M247.5548091926612,382.8461007052101L253.69875591015443,485.51234676036984L314.9302033078857,452.03277863562107Z" fill="#ec8dc3" stroke="#ec8dc3"></path><path d="M247.5548091926612,382.8461007052101L314.9302033078857,452.03277863562107L344.1486579319462,374.3932709447108Z" fill="#ec93cd" stroke="#ec93cd"></path><path d="M344.1486579319462,374.3932709447108L314.9302033078857,452.03277863562107L376.0469788732007,437.06517113139853Z" fill="#ea8bc6" stroke="#ea8bc6"></path><path d="M344.1486579319462,374.3932709447108L376.0469788732007,437.06517113139853L439.6769020683132,415.0866706087254Z" fill="#eb8ac8" stroke="#eb8ac8"></path><path d="M344.1486579319462,374.3932709447108L439.6769020683132,415.0866706087254L455.93784210970625,326.9209134904668Z" fill="#ec90d1" stroke="#ec90d1"></path><path d="M455.93784210970625,326.9209134904668L439.6769020683132,415.0866706087254L521.9737338554114,359.67146538197994Z" fill="#ed8acf" stroke="#ed8acf"></path><path d="M521.9737338554114,359.67146538197994L439.6769020683132,415.0866706087254L490.02432404784486,429.4135956838727Z" fill="#ec81c4" stroke="#ec81c4"></path><path d="M521.9737338554114,359.67146538197994L490.02432404784486,429.4135956838727L622.2591227176599,405.5249896226451Z" fill="#ec7bc2" stroke="#ec7bc2"></path><path d="M521.9737338554114,359.67146538197994L622.2591227176599,405.5249896226451L618.8663559034467,360.2664794633165Z" fill="#ee7bc7" stroke="#ee7bc7"></path><path d="M618.8663559034467,360.2664794633165L622.2591227176599,405.5249896226451L654.9190489947796,345.91419440926984Z" fill="#ee78c5" stroke="#ee78c5"></path><path d="M654.9190489947796,345.91419440926984L622.2591227176599,405.5249896226451L654.1409925161861,417.3644791683182Z" fill="#ee72bf" stroke="#ee72bf"></path><path d="M654.9190489947796,345.91419440926984L654.1409925161861,417.3644791683182L753.7386391800828,383.7336663273163Z" fill="#ee6fbf" stroke="#ee6fbf"></path><path d="M753.7386391800828,383.7336663273163L654.1409925161861,417.3644791683182L754.5754892774858,433.2029285398312Z" fill="#ee65b4" stroke="#ee65b4"></path><path d="M753.7386391800828,383.7336663273163L754.5754892774858,433.2029285398312L817.7966726128943,434.5467490144074Z" fill="#ed5dac" stroke="#ed5dac"></path><path d="M753.7386391800828,383.7336663273163L817.7966726128943,434.5467490144074L810.6327587063424,358.0491958092898Z" fill="#ed61b1" stroke="#ed61b1"></path><path d="M810.6327587063424,358.0491958092898L817.7966726128943,434.5467490144074L892.788381066639,327.544292260427Z" fill="#ec5fb1" stroke="#ec5fb1"></path><path d="M892.788381066639,327.544292260427L817.7966726128943,434.5467490144074L946.346621173434,411.07828157255426Z" fill="#eb56a6" stroke="#eb56a6"></path><path d="M892.788381066639,327.544292260427L946.346621173434,411.07828157255426L978.2608551764861,367.578816274181Z" fill="#ea55a5" stroke="#ea55a5"></path><path d="M978.2608551764861,367.578816274181L946.346621173434,411.07828157255426L1017.6453581033275,453.59794090967625Z" fill="#e84794" stroke="#e84794"></path><path d="M978.2608551764861,367.578816274181L1017.6453581033275,453.59794090967625L1054.6132059255615,447.577648202423Z" fill="#e7408c" stroke="#e7408c"></path><path d="M978.2608551764861,367.578816274181L1054.6132059255615,447.577648202423L1101.5639787656255,364.58685057470575Z" fill="#e74391" stroke="#e74391"></path><path d="M1101.5639787656255,364.58685057470575L1054.6132059255615,447.577648202423L1161.0287611139938,417.3876685765572Z" fill="#e53885" stroke="#e53885"></path><path d="M1101.5639787656255,364.58685057470575L1161.0287611139938,417.3876685765572L1194.645017273724,346.65386829990894Z" fill="#e53b89" stroke="#e53b89"></path><path d="M1194.645017273724,346.65386829990894L1161.0287611139938,417.3876685765572L1251.461033464875,428.04926990997046Z" fill="#e3357c" stroke="#e3357c"></path><path d="M1194.645017273724,346.65386829990894L1251.461033464875,428.04926990997046L1246.6181635926478,337.5186455063522Z" fill="#e33c80" stroke="#e33c80"></path><path d="M1246.6181635926478,337.5186455063522L1251.461033464875,428.04926990997046L1353.693152552005,378.86281663086265Z" fill="#e13977" stroke="#e13977"></path><path d="M1353.693152552005,378.86281663086265L1251.461033464875,428.04926990997046L1349.748757937923,413.0449024448171Z" fill="#e0336b" stroke="#e0336b"></path><path d="M1353.693152552005,378.86281663086265L1349.748757937923,413.0449024448171L1370.6245071999729,407.7744775475003Z" fill="#df3568" stroke="#df3568"></path><path d="M1353.693152552005,378.86281663086265L1370.6245071999729,407.7744775475003L1401.68145760661,365.8303958643228Z" fill="#df386a" stroke="#df386a"></path><path d="M1401.68145760661,365.8303958643228L1370.6245071999729,407.7744775475003L1477.6684262393974,394.31198907783255Z" fill="#de3764" stroke="#de3764"></path><path d="M1477.6684262393974,394.31198907783255L1370.6245071999729,407.7744775475003L1453.956299345009,471.43407949246466Z" fill="#dd2f58" stroke="#dd2f58"></path><path d="M1477.6684262393974,394.31198907783255L1453.956299345009,471.43407949246466L1483.2713738945313,517.0476582366973Z" fill="#db274e" stroke="#db274e"></path><path d="M-54.788695089519024,417.6716978661716L-72.00224777450785,530.105165776331L17.990665147081017,501.4751614094712Z" fill="#f79cc4" stroke="#f79cc4"></path><path d="M-54.788695089519024,417.6716978661716L17.990665147081017,501.4751614094712L58.751097589265555,426.2235047458671Z" fill="#f6a0cc" stroke="#f6a0cc"></path><path d="M58.751097589265555,426.2235047458671L17.990665147081017,501.4751614094712L129.15998053969815,518.6111361789517Z" fill="#f393c0" stroke="#f393c0"></path><path d="M58.751097589265555,426.2235047458671L129.15998053969815,518.6111361789517L116.08338141813874,414.622923580464Z" fill="#f397c7" stroke="#f397c7"></path><path d="M116.08338141813874,414.622923580464L129.15998053969815,518.6111361789517L168.3528421772644,423.6482952302322Z" fill="#f195c6" stroke="#f195c6"></path><path d="M168.3528421772644,423.6482952302322L129.15998053969815,518.6111361789517L253.69875591015443,485.51234676036984Z" fill="#ef8cbd" stroke="#ef8cbd"></path><path d="M314.9302033078857,452.03277863562107L253.69875591015443,485.51234676036984L366.38959816191345,514.8429396213032Z" fill="#ea80b5" stroke="#ea80b5"></path><path d="M314.9302033078857,452.03277863562107L366.38959816191345,514.8429396213032L376.0469788732007,437.06517113139853Z" fill="#e980b8" stroke="#e980b8"></path><path d="M376.0469788732007,437.06517113139853L366.38959816191345,514.8429396213032L420.7139448914677,547.7601515850984Z" fill="#e975ad" stroke="#e975ad"></path><path d="M376.0469788732007,437.06517113139853L420.7139448914677,547.7601515850984L439.6769020683132,415.0866706087254Z" fill="#e97ab5" stroke="#e97ab5"></path><path d="M439.6769020683132,415.0866706087254L420.7139448914677,547.7601515850984L490.02432404784486,429.4135956838727Z" fill="#ea76b4" stroke="#ea76b4"></path><path d="M490.02432404784486,429.4135956838727L420.7139448914677,547.7601515850984L549.0981080359779,517.8562422003597Z" fill="#ea6aa8" stroke="#ea6aa8"></path><path d="M490.02432404784486,429.4135956838727L549.0981080359779,517.8562422003597L622.2591227176599,405.5249896226451Z" fill="#eb6eb2" stroke="#eb6eb2"></path><path d="M622.2591227176599,405.5249896226451L549.0981080359779,517.8562422003597L626.3915830454789,541.7433864320628Z" fill="#eb60a4" stroke="#eb60a4"></path><path d="M622.2591227176599,405.5249896226451L626.3915830454789,541.7433864320628L654.1409925161861,417.3644791683182Z" fill="#ec64ad" stroke="#ec64ad"></path><path d="M654.1409925161861,417.3644791683182L626.3915830454789,541.7433864320628L678.8015585555695,527.478317511268Z" fill="#ec599f" stroke="#ec599f"></path><path d="M654.1409925161861,417.3644791683182L678.8015585555695,527.478317511268L754.5754892774858,433.2029285398312Z" fill="#ed5ca8" stroke="#ed5ca8"></path><path d="M754.5754892774858,433.2029285398312L678.8015585555695,527.478317511268L772.6304147951305,518.7695631291717Z" fill="#ec509a" stroke="#ec509a"></path><path d="M754.5754892774858,433.2029285398312L772.6304147951305,518.7695631291717L817.7966726128943,434.5467490144074Z" fill="#eb529e" stroke="#eb529e"></path><path d="M817.7966726128943,434.5467490144074L772.6304147951305,518.7695631291717L838.9253934915178,545.1228298712522Z" fill="#ea468f" stroke="#ea468f"></path><path d="M817.7966726128943,434.5467490144074L838.9253934915178,545.1228298712522L925.049982755445,536.7881342326291Z" fill="#e83f87" stroke="#e83f87"></path><path d="M817.7966726128943,434.5467490144074L925.049982755445,536.7881342326291L946.346621173434,411.07828157255426Z" fill="#e94590" stroke="#e94590"></path><path d="M946.346621173434,411.07828157255426L925.049982755445,536.7881342326291L1017.6453581033275,453.59794090967625Z" fill="#e73c85" stroke="#e73c85"></path><path d="M1017.6453581033275,453.59794090967625L925.049982755445,536.7881342326291L1030.380897547584,505.5178148834966Z" fill="#e63179" stroke="#e63179"></path><path d="M1017.6453581033275,453.59794090967625L1030.380897547584,505.5178148834966L1054.6132059255615,447.577648202423Z" fill="#e5337c" stroke="#e5337c"></path><path d="M1054.6132059255615,447.577648202423L1030.380897547584,505.5178148834966L1058.146467753686,544.2002299195156Z" fill="#e52a72" stroke="#e52a72"></path><path d="M1054.6132059255615,447.577648202423L1058.146467753686,544.2002299195156L1165.9890104387887,492.07989897346124Z" fill="#e3266d" stroke="#e3266d"></path><path d="M1054.6132059255615,447.577648202423L1165.9890104387887,492.07989897346124L1161.0287611139938,417.3876685765572Z" fill="#e42c75" stroke="#e42c75"></path><path d="M1161.0287611139938,417.3876685765572L1165.9890104387887,492.07989897346124L1251.461033464875,428.04926990997046Z" fill="#e22a6f" stroke="#e22a6f"></path><path d="M1251.461033464875,428.04926990997046L1165.9890104387887,492.07989897346124L1219.5439887745306,519.5648767845705Z" fill="#e12263" stroke="#e12263"></path><path d="M1251.461033464875,428.04926990997046L1219.5439887745306,519.5648767845705L1340.8461948810145,496.47884137229994Z" fill="#df225b" stroke="#df225b"></path><path d="M1251.461033464875,428.04926990997046L1340.8461948810145,496.47884137229994L1349.748757937923,413.0449024448171Z" fill="#df2a60" stroke="#df2a60"></path><path d="M1349.748757937923,413.0449024448171L1340.8461948810145,496.47884137229994L1370.6245071999729,407.7744775475003Z" fill="#de2c5d" stroke="#de2c5d"></path><path d="M1370.6245071999729,407.7744775475003L1340.8461948810145,496.47884137229994L1453.956299345009,471.43407949246466Z" fill="#dd2753" stroke="#dd2753"></path><path d="M1453.956299345009,471.43407949246466L1340.8461948810145,496.47884137229994L1397.45004884433,535.0050844042562Z" fill="#dc1d46" stroke="#dc1d46"></path><path d="M1453.956299345009,471.43407949246466L1397.45004884433,535.0050844042562L1483.2713738945313,517.0476582366973Z" fill="#db1c40" stroke="#db1c40"></path><path d="M-72.00224777450785,530.105165776331L-63.52055779658258,693.9772906666622L-25.686005677562207,575.2262547193095Z" fill="#f582a2" stroke="#f582a2"></path><path d="M-72.00224777450785,530.105165776331L-25.686005677562207,575.2262547193095L17.990665147081017,501.4751614094712Z" fill="#f58eb4" stroke="#f58eb4"></path><path d="M17.990665147081017,501.4751614094712L-25.686005677562207,575.2262547193095L50.92037286609411,631.9883394101635Z" fill="#f384a8" stroke="#f384a8"></path><path d="M17.990665147081017,501.4751614094712L50.92037286609411,631.9883394101635L129.15998053969815,518.6111361789517Z" fill="#f184ab" stroke="#f184ab"></path><path d="M129.15998053969815,518.6111361789517L50.92037286609411,631.9883394101635L147.97461814247072,576.4462817367166Z" fill="#ef7ba3" stroke="#ef7ba3"></path><path d="M129.15998053969815,518.6111361789517L147.97461814247072,576.4462817367166L173.9079625508748,576.0396146262065Z" fill="#ee7ba6" stroke="#ee7ba6"></path><path d="M129.15998053969815,518.6111361789517L173.9079625508748,576.0396146262065L229.82489061541855,551.7435252666473Z" fill="#ed7ba7" stroke="#ed7ba7"></path><path d="M129.15998053969815,518.6111361789517L229.82489061541855,551.7435252666473L253.69875591015443,485.51234676036984Z" fill="#ed80af" stroke="#ed80af"></path><path d="M229.82489061541855,551.7435252666473L173.9079625508748,576.0396146262065L229.74479083903134,655.8337032259442Z" fill="#eb6e99" stroke="#eb6e99"></path><path d="M229.82489061541855,551.7435252666473L229.74479083903134,655.8337032259442L292.59965043282136,603.5092270188034Z" fill="#e96994" stroke="#e96994"></path><path d="M229.82489061541855,551.7435252666473L292.59965043282136,603.5092270188034L253.69875591015443,485.51234676036984Z" fill="#ea75a5" stroke="#ea75a5"></path><path d="M253.69875591015443,485.51234676036984L292.59965043282136,603.5092270188034L366.38959816191345,514.8429396213032Z" fill="#e975a7" stroke="#e975a7"></path><path d="M366.38959816191345,514.8429396213032L292.59965043282136,603.5092270188034L368.8169056782499,569.5829814765602Z" fill="#e76b9c" stroke="#e76b9c"></path><path d="M366.38959816191345,514.8429396213032L368.8169056782499,569.5829814765602L420.7139448914677,547.7601515850984Z" fill="#e76ba0" stroke="#e76ba0"></path><path d="M420.7139448914677,547.7601515850984L368.8169056782499,569.5829814765602L428.02057658554986,581.0952717764303Z" fill="#e76498" stroke="#e76498"></path><path d="M420.7139448914677,547.7601515850984L428.02057658554986,581.0952717764303L549.0981080359779,517.8562422003597Z" fill="#e8619a" stroke="#e8619a"></path><path d="M549.0981080359779,517.8562422003597L428.02057658554986,581.0952717764303L513.665025527589,625.1885880623013Z" fill="#e85891" stroke="#e85891"></path><path d="M549.0981080359779,517.8562422003597L513.665025527589,625.1885880623013L623.6787473969162,614.4828304741532Z" fill="#e84e8a" stroke="#e84e8a"></path><path d="M549.0981080359779,517.8562422003597L623.6787473969162,614.4828304741532L626.3915830454789,541.7433864320628Z" fill="#e95090" stroke="#e95090"></path><path d="M626.3915830454789,541.7433864320628L623.6787473969162,614.4828304741532L666.443826444447,625.5333480867557Z" fill="#e94383" stroke="#e94383"></path><path d="M626.3915830454789,541.7433864320628L666.443826444447,625.5333480867557L678.8015585555695,527.478317511268Z" fill="#ea488b" stroke="#ea488b"></path><path d="M678.8015585555695,527.478317511268L666.443826444447,625.5333480867557L785.8726829802617,593.8731637923047Z" fill="#ea3e83" stroke="#ea3e83"></path><path d="M678.8015585555695,527.478317511268L785.8726829802617,593.8731637923047L772.6304147951305,518.7695631291717Z" fill="#ea428a" stroke="#ea428a"></path><path d="M772.6304147951305,518.7695631291717L785.8726829802617,593.8731637923047L838.9253934915178,545.1228298712522Z" fill="#e93b81" stroke="#e93b81"></path><path d="M838.9253934915178,545.1228298712522L785.8726829802617,593.8731637923047L814.1014512442052,633.1137726129964Z" fill="#e83174" stroke="#e83174"></path><path d="M838.9253934915178,545.1228298712522L814.1014512442052,633.1137726129964L929.3323361943476,624.8719429410994Z" fill="#e6296b" stroke="#e6296b"></path><path d="M838.9253934915178,545.1228298712522L929.3323361943476,624.8719429410994L925.049982755445,536.7881342326291Z" fill="#e62c70" stroke="#e62c70"></path><path d="M925.049982755445,536.7881342326291L929.3323361943476,624.8719429410994L971.2987733422779,597.3923480487429Z" fill="#e52365" stroke="#e52365"></path><path d="M925.049982755445,536.7881342326291L971.2987733422779,597.3923480487429L1030.380897547584,505.5178148834966Z" fill="#e5286d" stroke="#e5286d"></path><path d="M1030.380897547584,505.5178148834966L971.2987733422779,597.3923480487429L1058.146467753686,544.2002299195156Z" fill="#e42266" stroke="#e42266"></path><path d="M1058.146467753686,544.2002299195156L971.2987733422779,597.3923480487429L1089.607158987783,590.9521498018876Z" fill="#e3195c" stroke="#e3195c"></path><path d="M1058.146467753686,544.2002299195156L1089.607158987783,590.9521498018876L1165.9890104387887,492.07989897346124Z" fill="#e21a5e" stroke="#e21a5e"></path><path d="M1165.9890104387887,492.07989897346124L1089.607158987783,590.9521498018876L1178.2581368042156,602.7633067173883Z" fill="#e01153" stroke="#e01153"></path><path d="M1165.9890104387887,492.07989897346124L1178.2581368042156,602.7633067173883L1207.061113996897,565.1145412120968Z" fill="#e01151" stroke="#e01151"></path><path d="M1165.9890104387887,492.07989897346124L1207.061113996897,565.1145412120968L1219.5439887745306,519.5648767845705Z" fill="#e01857" stroke="#e01857"></path><path d="M1219.5439887745306,519.5648767845705L1207.061113996897,565.1145412120968L1343.9663583179936,597.9862253507599Z" fill="#de1045" stroke="#de1045"></path><path d="M1219.5439887745306,519.5648767845705L1343.9663583179936,597.9862253507599L1340.8461948810145,496.47884137229994Z" fill="#de1547" stroke="#de1547"></path><path d="M1340.8461948810145,496.47884137229994L1343.9663583179936,597.9862253507599L1397.45004884433,535.0050844042562Z" fill="#dc143e" stroke="#dc143e"></path><path d="M1397.45004884433,535.0050844042562L1343.9663583179936,597.9862253507599L1426.1155029316433,626.22111011995Z" fill="#da0a2d" stroke="#da0a2d"></path><path d="M1397.45004884433,535.0050844042562L1426.1155029316433,626.22111011995L1466.7958172550425,610.1195178250782Z" fill="#d90928" stroke="#d90928"></path><path d="M1397.45004884433,535.0050844042562L1466.7958172550425,610.1195178250782L1483.2713738945313,517.0476582366973Z" fill="#da1132" stroke="#da1132"></path><path d="M1483.2713738945313,517.0476582366973L1466.7958172550425,610.1195178250782L1471.7603940470144,688.129905697424Z" fill="#d70523" stroke="#d70523"></path><path d="M1483.2713738945313,517.0476582366973L1471.7603940470144,688.129905697424L1478.6803469690494,791.493528932333Z" fill="#d60012" stroke="#d60012"></path><path d="M-25.686005677562207,575.2262547193095L-63.52055779658258,693.9772906666622L50.92037286609411,631.9883394101635Z" fill="#f27897" stroke="#f27897"></path><path d="M50.92037286609411,631.9883394101635L-63.52055779658258,693.9772906666622L10.284873235505074,757.5743612507358Z" fill="#f07784" stroke="#f07784"></path><path d="M50.92037286609411,631.9883394101635L10.284873235505074,757.5743612507358L71.90825718687847,645.0011018849909Z" fill="#ef7487" stroke="#ef7487"></path><path d="M50.92037286609411,631.9883394101635L71.90825718687847,645.0011018849909L147.97461814247072,576.4462817367166Z" fill="#ef7297" stroke="#ef7297"></path><path d="M147.97461814247072,576.4462817367166L71.90825718687847,645.0011018849909L123.17343208240345,706.9969038944691Z" fill="#ee6e8e" stroke="#ee6e8e"></path><path d="M147.97461814247072,576.4462817367166L123.17343208240345,706.9969038944691L229.74479083903134,655.8337032259442Z" fill="#eb6a8b" stroke="#eb6a8b"></path><path d="M147.97461814247072,576.4462817367166L229.74479083903134,655.8337032259442L173.9079625508748,576.0396146262065Z" fill="#ec6e98" stroke="#ec6e98"></path><path d="M292.59965043282136,603.5092270188034L229.74479083903134,655.8337032259442L251.2584290606901,692.0474846637808Z" fill="#e86387" stroke="#e86387"></path><path d="M292.59965043282136,603.5092270188034L251.2584290606901,692.0474846637808L351.54071475612,673.1744481506757Z" fill="#e66083" stroke="#e66083"></path><path d="M292.59965043282136,603.5092270188034L351.54071475612,673.1744481506757L368.8169056782499,569.5829814765602Z" fill="#e65f8d" stroke="#e65f8d"></path><path d="M368.8169056782499,569.5829814765602L351.54071475612,673.1744481506757L428.02057658554986,581.0952717764303Z" fill="#e65d8d" stroke="#e65d8d"></path><path d="M428.02057658554986,581.0952717764303L351.54071475612,673.1744481506757L449.9733791057952,714.3374002166092Z" fill="#e5557d" stroke="#e5557d"></path><path d="M428.02057658554986,581.0952717764303L449.9733791057952,714.3374002166092L487.06626396626234,681.506451042369Z" fill="#e5507a" stroke="#e5507a"></path><path d="M428.02057658554986,581.0952717764303L487.06626396626234,681.506451042369L513.665025527589,625.1885880623013Z" fill="#e64e82" stroke="#e64e82"></path><path d="M513.665025527589,625.1885880623013L487.06626396626234,681.506451042369L610.4901655460708,713.212255067192Z" fill="#e64771" stroke="#e64771"></path><path d="M513.665025527589,625.1885880623013L610.4901655460708,713.212255067192L623.6787473969162,614.4828304741532Z" fill="#e74275" stroke="#e74275"></path><path d="M623.6787473969162,614.4828304741532L610.4901655460708,713.212255067192L675.104033020325,690.0220022909343Z" fill="#e73c6c" stroke="#e73c6c"></path><path d="M623.6787473969162,614.4828304741532L675.104033020325,690.0220022909343L666.443826444447,625.5333480867557Z" fill="#e83a74" stroke="#e83a74"></path><path d="M666.443826444447,625.5333480867557L675.104033020325,690.0220022909343L763.1707615009509,660.996200828813Z" fill="#e8356d" stroke="#e8356d"></path><path d="M666.443826444447,625.5333480867557L763.1707615009509,660.996200828813L785.8726829802617,593.8731637923047Z" fill="#e83173" stroke="#e83173"></path><path d="M785.8726829802617,593.8731637923047L763.1707615009509,660.996200828813L814.1014512442052,633.1137726129964Z" fill="#e72b6c" stroke="#e72b6c"></path><path d="M814.1014512442052,633.1137726129964L763.1707615009509,660.996200828813L862.2642914461903,670.766437931452Z" fill="#e62861" stroke="#e62861"></path><path d="M814.1014512442052,633.1137726129964L862.2642914461903,670.766437931452L929.3323361943476,624.8719429410994Z" fill="#e5225e" stroke="#e5225e"></path><path d="M929.3323361943476,624.8719429410994L862.2642914461903,670.766437931452L905.7124790316448,699.317204807885Z" fill="#e41e53" stroke="#e41e53"></path><path d="M929.3323361943476,624.8719429410994L905.7124790316448,699.317204807885L972.8311252011918,664.18193356134Z" fill="#e31a4f" stroke="#e31a4f"></path><path d="M929.3323361943476,624.8719429410994L972.8311252011918,664.18193356134L971.2987733422779,597.3923480487429Z" fill="#e31757" stroke="#e31757"></path><path d="M971.2987733422779,597.3923480487429L972.8311252011918,664.18193356134L1089.607158987783,590.9521498018876Z" fill="#e21353" stroke="#e21353"></path><path d="M1089.607158987783,590.9521498018876L972.8311252011918,664.18193356134L1055.496320067905,700.9705769456923Z" fill="#e10e46" stroke="#e10e46"></path><path d="M1089.607158987783,590.9521498018876L1055.496320067905,700.9705769456923L1173.3350284583867,684.1937199700624Z" fill="#df063b" stroke="#df063b"></path><path d="M1089.607158987783,590.9521498018876L1173.3350284583867,684.1937199700624L1178.2581368042156,602.7633067173883Z" fill="#df0240" stroke="#df0240"></path><path d="M1178.2581368042156,602.7633067173883L1173.3350284583867,684.1937199700624L1229.8481585038826,675.4783016024157Z" fill="#dd0032" stroke="#dd0032"></path><path d="M1178.2581368042156,602.7633067173883L1229.8481585038826,675.4783016024157L1207.061113996897,565.1145412120968Z" fill="#de033c" stroke="#de033c"></path><path d="M1207.061113996897,565.1145412120968L1229.8481585038826,675.4783016024157L1289.1148064052686,655.5625107465312Z" fill="#dc0032" stroke="#dc0032"></path><path d="M1207.061113996897,565.1145412120968L1289.1148064052686,655.5625107465312L1343.9663583179936,597.9862253507599Z" fill="#dc0535" stroke="#dc0535"></path><path d="M1343.9663583179936,597.9862253507599L1289.1148064052686,655.5625107465312L1366.8653635773808,705.7970898039639Z" fill="#da0021" stroke="#da0021"></path><path d="M1343.9663583179936,597.9862253507599L1366.8653635773808,705.7970898039639L1426.1155029316433,626.22111011995Z" fill="#d9001e" stroke="#d9001e"></path><path d="M1426.1155029316433,626.22111011995L1366.8653635773808,705.7970898039639L1471.7603940470144,688.129905697424Z" fill="#d70010" stroke="#d70010"></path><path d="M1426.1155029316433,626.22111011995L1471.7603940470144,688.129905697424L1466.7958172550425,610.1195178250782Z" fill="#d70019" stroke="#d70019"></path><path d="M-63.52055779658258,693.9772906666622L-22.119588647037745,824.3302555312403L-23.554855519905686,756.0682537406683Z" fill="#f07a7d" stroke="#f07a7d"></path><path d="M-63.52055779658258,693.9772906666622L-23.554855519905686,756.0682537406683L10.284873235505074,757.5743612507358Z" fill="#f0797c" stroke="#f0797c"></path><path d="M71.90825718687847,645.0011018849909L10.284873235505074,757.5743612507358L123.17343208240345,706.9969038944691Z" fill="#ee727f" stroke="#ee727f"></path><path d="M123.17343208240345,706.9969038944691L10.284873235505074,757.5743612507358L106.84601402608678,769.463396538049Z" fill="#ec7178" stroke="#ec7178"></path><path d="M123.17343208240345,706.9969038944691L106.84601402608678,769.463396538049L213.1268369476311,735.0401771836914Z" fill="#ea6c75" stroke="#ea6c75"></path><path d="M123.17343208240345,706.9969038944691L213.1268369476311,735.0401771836914L229.74479083903134,655.8337032259442Z" fill="#e9687b" stroke="#e9687b"></path><path d="M229.74479083903134,655.8337032259442L213.1268369476311,735.0401771836914L251.2584290606901,692.0474846637808Z" fill="#e8657b" stroke="#e8657b"></path><path d="M251.2584290606901,692.0474846637808L213.1268369476311,735.0401771836914L304.99701687833294,765.3051337692887Z" fill="#e66371" stroke="#e66371"></path><path d="M251.2584290606901,692.0474846637808L304.99701687833294,765.3051337692887L351.54071475612,673.1744481506757Z" fill="#e55f73" stroke="#e55f73"></path><path d="M351.54071475612,673.1744481506757L304.99701687833294,765.3051337692887L351.47552165435627,750.7162943738513Z" fill="#e35d6d" stroke="#e35d6d"></path><path d="M351.54071475612,673.1744481506757L351.47552165435627,750.7162943738513L409.7979666898027,746.0257184598595Z" fill="#e35a6c" stroke="#e35a6c"></path><path d="M351.54071475612,673.1744481506757L409.7979666898027,746.0257184598595L449.9733791057952,714.3374002166092Z" fill="#e3566e" stroke="#e3566e"></path><path d="M449.9733791057952,714.3374002166092L409.7979666898027,746.0257184598595L493.795576475095,806.9067951245233Z" fill="#e35167" stroke="#e35167"></path><path d="M449.9733791057952,714.3374002166092L493.795576475095,806.9067951245233L512.1477913390845,771.9545863289386Z" fill="#e34d65" stroke="#e34d65"></path><path d="M449.9733791057952,714.3374002166092L512.1477913390845,771.9545863289386L487.06626396626234,681.506451042369Z" fill="#e44d66" stroke="#e44d66"></path><path d="M487.06626396626234,681.506451042369L512.1477913390845,771.9545863289386L579.328453890048,748.1130345119163Z" fill="#e44863" stroke="#e44863"></path><path d="M487.06626396626234,681.506451042369L579.328453890048,748.1130345119163L610.4901655460708,713.212255067192Z" fill="#e54564" stroke="#e54564"></path><path d="M610.4901655460708,713.212255067192L579.328453890048,748.1130345119163L681.8491947907023,741.5307967085391Z" fill="#e53d5e" stroke="#e53d5e"></path><path d="M610.4901655460708,713.212255067192L681.8491947907023,741.5307967085391L675.104033020325,690.0220022909343Z" fill="#e63a5f" stroke="#e63a5f"></path><path d="M675.104033020325,690.0220022909343L681.8491947907023,741.5307967085391L740.7304976787418,746.3307254668325Z" fill="#e63559" stroke="#e63559"></path><path d="M675.104033020325,690.0220022909343L740.7304976787418,746.3307254668325L763.1707615009509,660.996200828813Z" fill="#e7325f" stroke="#e7325f"></path><path d="M763.1707615009509,660.996200828813L740.7304976787418,746.3307254668325L817.2492297366261,769.5836908649653Z" fill="#e52d52" stroke="#e52d52"></path><path d="M763.1707615009509,660.996200828813L817.2492297366261,769.5836908649653L862.2642914461903,670.766437931452Z" fill="#e52853" stroke="#e52853"></path><path d="M862.2642914461903,670.766437931452L817.2492297366261,769.5836908649653L905.7124790316448,699.317204807885Z" fill="#e3224a" stroke="#e3224a"></path><path d="M905.7124790316448,699.317204807885L817.2492297366261,769.5836908649653L895.9475843631662,784.0278578200378Z" fill="#e22145" stroke="#e22145"></path><path d="M905.7124790316448,699.317204807885L895.9475843631662,784.0278578200378L1013.0317765660584,752.0282110176049Z" fill="#e11a3d" stroke="#e11a3d"></path><path d="M905.7124790316448,699.317204807885L1013.0317765660584,752.0282110176049L972.8311252011918,664.18193356134Z" fill="#e11740" stroke="#e11740"></path><path d="M972.8311252011918,664.18193356134L1013.0317765660584,752.0282110176049L1055.496320067905,700.9705769456923Z" fill="#e01139" stroke="#e01139"></path><path d="M1055.496320067905,700.9705769456923L1013.0317765660584,752.0282110176049L1083.5063290130347,774.5282325264998Z" fill="#de0d2f" stroke="#de0d2f"></path><path d="M1055.496320067905,700.9705769456923L1083.5063290130347,774.5282325264998L1173.3350284583867,684.1937199700624Z" fill="#de062a" stroke="#de062a"></path><path d="M1173.3350284583867,684.1937199700624L1083.5063290130347,774.5282325264998L1190.5614118743688,753.3736309106462Z" fill="#dc0123" stroke="#dc0123"></path><path d="M1173.3350284583867,684.1937199700624L1190.5614118743688,753.3736309106462L1229.8481585038826,675.4783016024157Z" fill="#dc0023" stroke="#dc0023"></path><path d="M1229.8481585038826,675.4783016024157L1190.5614118743688,753.3736309106462L1270.6575657310896,754.0663733147085Z" fill="#da0018" stroke="#da0018"></path><path d="M1229.8481585038826,675.4783016024157L1270.6575657310896,754.0663733147085L1289.1148064052686,655.5625107465312Z" fill="#da001d" stroke="#da001d"></path><path d="M1289.1148064052686,655.5625107465312L1270.6575657310896,754.0663733147085L1366.8653635773808,705.7970898039639Z" fill="#d90015" stroke="#d90015"></path><path d="M1366.8653635773808,705.7970898039639L1270.6575657310896,754.0663733147085L1371.2176261330023,744.128876987379Z" fill="#d8000b" stroke="#d8000b"></path><path d="M1366.8653635773808,705.7970898039639L1371.2176261330023,744.128876987379L1471.7603940470144,688.129905697424Z" fill="#d70006" stroke="#d70006"></path><path d="M1471.7603940470144,688.129905697424L1371.2176261330023,744.128876987379L1478.6803469690494,791.493528932333Z" fill="#d50000" stroke="#d50000"></path><path d="M-23.554855519905686,756.0682537406683L-22.119588647037745,824.3302555312403L10.284873235505074,757.5743612507358Z" fill="#ef787c" stroke="#ef787c"></path><path d="M10.284873235505074,757.5743612507358L-22.119588647037745,824.3302555312403L11.013182185124606,845.3533692378551Z" fill="#ed777b" stroke="#ed777b"></path><path d="M10.284873235505074,757.5743612507358L11.013182185124606,845.3533692378551L106.84601402608678,769.463396538049Z" fill="#ec7479" stroke="#ec7479"></path><path d="M106.84601402608678,769.463396538049L11.013182185124606,845.3533692378551L134.71944154938683,864.7387192957103Z" fill="#ea7178" stroke="#ea7178"></path><path d="M106.84601402608678,769.463396538049L134.71944154938683,864.7387192957103L202.61046439176425,868.3234339603223Z" fill="#e76c75" stroke="#e76c75"></path><path d="M106.84601402608678,769.463396538049L202.61046439176425,868.3234339603223L213.1268369476311,735.0401771836914Z" fill="#e76974" stroke="#e76974"></path><path d="M213.1268369476311,735.0401771836914L202.61046439176425,868.3234339603223L260.53290424868464,868.6086512217298Z" fill="#e56572" stroke="#e56572"></path><path d="M213.1268369476311,735.0401771836914L260.53290424868464,868.6086512217298L304.99701687833294,765.3051337692887Z" fill="#e46370" stroke="#e46370"></path><path d="M304.99701687833294,765.3051337692887L260.53290424868464,868.6086512217298L365.59523773612455,821.2888335995376Z" fill="#e25f6e" stroke="#e25f6e"></path><path d="M304.99701687833294,765.3051337692887L365.59523773612455,821.2888335995376L351.47552165435627,750.7162943738513Z" fill="#e25c6d" stroke="#e25c6d"></path><path d="M351.47552165435627,750.7162943738513L365.59523773612455,821.2888335995376L409.7979666898027,746.0257184598595Z" fill="#e1596b" stroke="#e1596b"></path><path d="M409.7979666898027,746.0257184598595L365.59523773612455,821.2888335995376L420.7816545572132,853.1111784558743Z" fill="#e1566a" stroke="#e1566a"></path><path d="M409.7979666898027,746.0257184598595L420.7816545572132,853.1111784558743L493.795576475095,806.9067951245233Z" fill="#e25268" stroke="#e25268"></path><path d="M512.1477913390845,771.9545863289386L493.795576475095,806.9067951245233L616.4928643894382,862.8687093127519Z" fill="#e24762" stroke="#e24762"></path><path d="M512.1477913390845,771.9545863289386L616.4928643894382,862.8687093127519L579.328453890048,748.1130345119163Z" fill="#e34361" stroke="#e34361"></path><path d="M579.328453890048,748.1130345119163L616.4928643894382,862.8687093127519L667.6647660438903,846.5684172860347Z" fill="#e33e5e" stroke="#e33e5e"></path><path d="M579.328453890048,748.1130345119163L667.6647660438903,846.5684172860347L681.8491947907023,741.5307967085391Z" fill="#e43b5d" stroke="#e43b5d"></path><path d="M681.8491947907023,741.5307967085391L667.6647660438903,846.5684172860347L730.4708668845706,806.5773020940833Z" fill="#e4365a" stroke="#e4365a"></path><path d="M681.8491947907023,741.5307967085391L730.4708668845706,806.5773020940833L740.7304976787418,746.3307254668325Z" fill="#e63358" stroke="#e63358"></path><path d="M740.7304976787418,746.3307254668325L730.4708668845706,806.5773020940833L817.2492297366261,769.5836908649653Z" fill="#e42e53" stroke="#e42e53"></path><path d="M817.2492297366261,769.5836908649653L730.4708668845706,806.5773020940833L844.6067504957318,860.6310775061138Z" fill="#e22a4f" stroke="#e22a4f"></path><path d="M817.2492297366261,769.5836908649653L844.6067504957318,860.6310775061138L895.9475843631662,784.0278578200378Z" fill="#e22348" stroke="#e22348"></path><path d="M895.9475843631662,784.0278578200378L844.6067504957318,860.6310775061138L894.8321915511042,860.6613393966109Z" fill="#e02044" stroke="#e02044"></path><path d="M895.9475843631662,784.0278578200378L894.8321915511042,860.6613393966109L1023.0255297385156,827.9245201428421Z" fill="#df1a3d" stroke="#df1a3d"></path><path d="M895.9475843631662,784.0278578200378L1023.0255297385156,827.9245201428421L1013.0317765660584,752.0282110176049Z" fill="#df1538" stroke="#df1538"></path><path d="M1013.0317765660584,752.0282110176049L1023.0255297385156,827.9245201428421L1083.5063290130347,774.5282325264998Z" fill="#de0e30" stroke="#de0e30"></path><path d="M1083.5063290130347,774.5282325264998L1023.0255297385156,827.9245201428421L1069.4056909857318,870.6266074045561Z" fill="#dc0c2e" stroke="#dc0c2e"></path><path d="M1083.5063290130347,774.5282325264998L1069.4056909857318,870.6266074045561L1146.947363698855,822.8574723820202Z" fill="#db0729" stroke="#db0729"></path><path d="M1083.5063290130347,774.5282325264998L1146.947363698855,822.8574723820202L1190.5614118743688,753.3736309106462Z" fill="#db0224" stroke="#db0224"></path><path d="M1190.5614118743688,753.3736309106462L1146.947363698855,822.8574723820202L1237.5211181933992,834.4673731201328Z" fill="#da001d" stroke="#da001d"></path><path d="M1190.5614118743688,753.3736309106462L1237.5211181933992,834.4673731201328L1270.6575657310896,754.0663733147085Z" fill="#d90018" stroke="#d90018"></path><path d="M1270.6575657310896,754.0663733147085L1237.5211181933992,834.4673731201328L1307.53904461395,845.564322436694Z" fill="#d70013" stroke="#d70013"></path><path d="M1270.6575657310896,754.0663733147085L1307.53904461395,845.564322436694L1328.1342723127455,785.1585884415545Z" fill="#d7000f" stroke="#d7000f"></path><path d="M1270.6575657310896,754.0663733147085L1328.1342723127455,785.1585884415545L1371.2176261330023,744.128876987379Z" fill="#d8000d" stroke="#d8000d"></path><path d="M1328.1342723127455,785.1585884415545L1307.53904461395,845.564322436694L1433.8255899911746,836.8732987251133Z" fill="#d50009" stroke="#d50009"></path><path d="M1328.1342723127455,785.1585884415545L1433.8255899911746,836.8732987251133L1371.2176261330023,744.128876987379Z" fill="#d50006" stroke="#d50006"></path><path d="M1371.2176261330023,744.128876987379L1433.8255899911746,836.8732987251133L1478.6803469690494,791.493528932333Z" fill="#d40000" stroke="#d40000"></path><path d="M1478.6803469690494,791.493528932333L1433.8255899911746,836.8732987251133L1471.4532417966984,838.4944221144542Z" fill="#d30000" stroke="#d30000"></path><path d="M260.53290424868464,868.6086512217298L1069.4056909857318,870.6266074045561L616.4928643894382,862.8687093127519Z" fill="#e23b5c" stroke="#e23b5c"></path><path d="M260.53290424868464,868.6086512217298L616.4928643894382,862.8687093127519L420.7816545572132,853.1111784558743Z" fill="#e05368" stroke="#e05368"></path><path d="M260.53290424868464,868.6086512217298L420.7816545572132,853.1111784558743L365.59523773612455,821.2888335995376Z" fill="#e05c6d" stroke="#e05c6d"></path><path d="M420.7816545572132,853.1111784558743L616.4928643894382,862.8687093127519L493.795576475095,806.9067951245233Z" fill="#e14a64" stroke="#e14a64"></path><path d="M616.4928643894382,862.8687093127519L1069.4056909857318,870.6266074045561L844.6067504957318,860.6310775061138Z" fill="#e02549" stroke="#e02549"></path><path d="M616.4928643894382,862.8687093127519L844.6067504957318,860.6310775061138L667.6647660438903,846.5684172860347Z" fill="#e33459" stroke="#e33459"></path><path d="M667.6647660438903,846.5684172860347L844.6067504957318,860.6310775061138L730.4708668845706,806.5773020940833Z" fill="#e33055" stroke="#e33055"></path><path d="M844.6067504957318,860.6310775061138L1069.4056909857318,870.6266074045561L894.8321915511042,860.6613393966109Z" fill="#de1a3d" stroke="#de1a3d"></path><path d="M894.8321915511042,860.6613393966109L1069.4056909857318,870.6266074045561L1023.0255297385156,827.9245201428421Z" fill="#dd1336" stroke="#dd1336"></path><path d="M1069.4056909857318,870.6266074045561L1471.4532417966984,838.4944221144542L1307.53904461395,845.564322436694Z" fill="#d60012" stroke="#d60012"></path><path d="M1069.4056909857318,870.6266074045561L1307.53904461395,845.564322436694L1237.5211181933992,834.4673731201328Z" fill="#d8001c" stroke="#d8001c"></path><path d="M1069.4056909857318,870.6266074045561L1237.5211181933992,834.4673731201328L1146.947363698855,822.8574723820202Z" fill="#da0122" stroke="#da0122"></path><path d="M1307.53904461395,845.564322436694L1471.4532417966984,838.4944221144542L1433.8255899911746,836.8732987251133Z" fill="#d40003" stroke="#d40003"></path></g><filter id="noise"><feTurbulence type="fractalNoise" in="fillPaint" fill="#F00" baseFrequency="0.7" numOctaves="10" stitchTiles="stitch"></feTurbulence><feComponentTransfer><feFuncR type="linear" slope="2" intercept="-.5"></feFuncR><feFuncG type="linear" slope="2" intercept="-.5"></feFuncG><feFuncB type="linear" slope="2" intercept="-.5"></feFuncB></feComponentTransfer><feColorMatrix type="matrix" values="0.3333 0.3333 0.3333 0 0 
 0.3333 0.3333 0.3333 0 0 
 0.3333 0.3333 0.3333 0 0 
 0 0 0 1 0"></feColorMatrix></filter><rect opacity="0.4" width="100%" height="100%" filter="url(#noise)"></rect></svg>