<svg width="1440" height="735" xmlns="http://www.w3.org/2000/svg"><g><path d="M-48.52000957354903,-35.487536245491356L-66.7519851331599,176.27605574438348L-25.099297766573727,13.742523535620421Z" fill="#ffffff" stroke="#ffffff"></path><path d="M-48.52000957354903,-35.487536245491356L-25.099297766573727,13.742523535620421L30.020446586422622,-52.08839450730011Z" fill="#fefeff" stroke="#fefeff"></path><path d="M30.020446586422622,-52.08839450730011L-25.099297766573727,13.742523535620421L31.039696037769318,38.70681096799672Z" fill="#fdfdfe" stroke="#fdfdfe"></path><path d="M30.020446586422622,-52.08839450730011L31.039696037769318,38.70681096799672L151.36216612765566,37.215395991224796Z" fill="#fbfafc" stroke="#fbfafc"></path><path d="M30.020446586422622,-52.08839450730011L151.36216612765566,37.215395991224796L145.9905946161598,-60.155393194872886Z" fill="#f9f8fc" stroke="#f9f8fc"></path><path d="M30.020446586422622,-52.08839450730011L145.9905946161598,-60.155393194872886L169.06163346255198,-64.6806327230297Z" fill="#f9f8fb" stroke="#f9f8fb"></path><path d="M145.9905946161598,-60.155393194872886L151.36216612765566,37.215395991224796L169.06163346255198,-64.6806327230297Z" fill="#f7f6fa" stroke="#f7f6fa"></path><path d="M169.06163346255198,-64.6806327230297L151.36216612765566,37.215395991224796L206.42050796886906,49.694990816060454Z" fill="#f6f5fa" stroke="#f6f5fa"></path><path d="M169.06163346255198,-64.6806327230297L206.42050796886906,49.694990816060454L296.3393502216786,-25.32954855589196Z" fill="#f3f2f8" stroke="#f3f2f8"></path><path d="M169.06163346255198,-64.6806327230297L296.3393502216786,-25.32954855589196L329.9901841767132,-34.11567774601281Z" fill="#f0f0f7" stroke="#f0f0f7"></path><path d="M169.06163346255198,-64.6806327230297L329.9901841767132,-34.11567774601281L499.60811651544645,-48.822864410467446Z" fill="#ececf5" stroke="#ececf5"></path><path d="M169.06163346255198,-64.6806327230297L499.60811651544645,-48.822864410467446L578.6041184444912,-60.65960413310677Z" fill="#e4e4f1" stroke="#e4e4f1"></path><path d="M169.06163346255198,-64.6806327230297L578.6041184444912,-60.65960413310677L836.4474008628167,-74.15990298613906Z" fill="#d9d9eb" stroke="#d9d9eb"></path><path d="M296.3393502216786,-25.32954855589196L206.42050796886906,49.694990816060454L263.9188311062753,54.42776241572574Z" fill="#f1f1f7" stroke="#f1f1f7"></path><path d="M296.3393502216786,-25.32954855589196L263.9188311062753,54.42776241572574L370.4393754573539,49.96725131291896Z" fill="#ededf6" stroke="#ededf6"></path><path d="M296.3393502216786,-25.32954855589196L370.4393754573539,49.96725131291896L329.9901841767132,-34.11567774601281Z" fill="#ececf5" stroke="#ececf5"></path><path d="M329.9901841767132,-34.11567774601281L370.4393754573539,49.96725131291896L444.2331569176167,-30.07555659627542Z" fill="#e7e7f2" stroke="#e7e7f2"></path><path d="M329.9901841767132,-34.11567774601281L444.2331569176167,-30.07555659627542L499.60811651544645,-48.822864410467446Z" fill="#e3e3f0" stroke="#e3e3f0"></path><path d="M444.2331569176167,-30.07555659627542L370.4393754573539,49.96725131291896L432.04564969055355,74.93393706623465Z" fill="#e4e4f1" stroke="#e4e4f1"></path><path d="M444.2331569176167,-30.07555659627542L432.04564969055355,74.93393706623465L542.4449865357019,54.29189294576645Z" fill="#dedfee" stroke="#dedfee"></path><path d="M444.2331569176167,-30.07555659627542L542.4449865357019,54.29189294576645L499.60811651544645,-48.822864410467446Z" fill="#dcdded" stroke="#dcdded"></path><path d="M499.60811651544645,-48.822864410467446L542.4449865357019,54.29189294576645L592.4373210081831,29.12450335919857Z" fill="#d8d7ea" stroke="#d8d7ea"></path><path d="M499.60811651544645,-48.822864410467446L592.4373210081831,29.12450335919857L578.6041184444912,-60.65960413310677Z" fill="#d7d6e9" stroke="#d7d6e9"></path><path d="M578.6041184444912,-60.65960413310677L592.4373210081831,29.12450335919857L663.5085343336686,-38.82177783874795Z" fill="#d1d0e6" stroke="#d1d0e6"></path><path d="M578.6041184444912,-60.65960413310677L663.5085343336686,-38.82177783874795L836.4474008628167,-74.15990298613906Z" fill="#cac8e1" stroke="#cac8e1"></path><path d="M663.5085343336686,-38.82177783874795L592.4373210081831,29.12450335919857L688.737736819312,31.26469523878768Z" fill="#cecce3" stroke="#cecce3"></path><path d="M663.5085343336686,-38.82177783874795L688.737736819312,31.26469523878768L733.1505333469249,-35.092527768574655Z" fill="#cac8e1" stroke="#cac8e1"></path><path d="M663.5085343336686,-38.82177783874795L733.1505333469249,-35.092527768574655L836.4474008628167,-74.15990298613906Z" fill="#c5c3df" stroke="#c5c3df"></path><path d="M733.1505333469249,-35.092527768574655L688.737736819312,31.26469523878768L737.1749979443848,14.722973476164043Z" fill="#c7c6e0" stroke="#c7c6e0"></path><path d="M733.1505333469249,-35.092527768574655L737.1749979443848,14.722973476164043L836.4474008628167,-74.15990298613906Z" fill="#c3c1de" stroke="#c3c1de"></path><path d="M836.4474008628167,-74.15990298613906L737.1749979443848,14.722973476164043L868.2245576614514,17.614241673145443Z" fill="#bfbcdc" stroke="#bfbcdc"></path><path d="M836.4474008628167,-74.15990298613906L868.2245576614514,17.614241673145443L904.657524060458,-61.09096052125096Z" fill="#bbb5d8" stroke="#bbb5d8"></path><path d="M836.4474008628167,-74.15990298613906L904.657524060458,-61.09096052125096L1314.213173200842,-72.21447622170672Z" fill="#b1a1ce" stroke="#b1a1ce"></path><path d="M904.657524060458,-61.09096052125096L868.2245576614514,17.614241673145443L946.7896229610778,56.19048211723566Z" fill="#b8b0d5" stroke="#b8b0d5"></path><path d="M904.657524060458,-61.09096052125096L946.7896229610778,56.19048211723566L1029.575304130558,-11.366332722827792Z" fill="#b5a8d1" stroke="#b5a8d1"></path><path d="M904.657524060458,-61.09096052125096L1029.575304130558,-11.366332722827792L1058.176179875154,-36.801801533438265Z" fill="#b2a3cf" stroke="#b2a3cf"></path><path d="M904.657524060458,-61.09096052125096L1058.176179875154,-36.801801533438265L1314.213173200842,-72.21447622170672Z" fill="#ac97c9" stroke="#ac97c9"></path><path d="M1029.575304130558,-11.366332722827792L946.7896229610778,56.19048211723566L1026.5472273644991,46.43527240958065Z" fill="#b2a3cf" stroke="#b2a3cf"></path><path d="M1029.575304130558,-11.366332722827792L1026.5472273644991,46.43527240958065L1071.603330175858,43.63434949191287Z" fill="#af9dcc" stroke="#af9dcc"></path><path d="M1029.575304130558,-11.366332722827792L1071.603330175858,43.63434949191287L1058.176179875154,-36.801801533438265Z" fill="#ae9ccb" stroke="#ae9ccb"></path><path d="M1058.176179875154,-36.801801533438265L1071.603330175858,43.63434949191287L1149.577164715156,-32.28715245844796Z" fill="#ac97c9" stroke="#ac97c9"></path><path d="M1058.176179875154,-36.801801533438265L1149.577164715156,-32.28715245844796L1314.213173200842,-72.21447622170672Z" fill="#a68dc4" stroke="#a68dc4"></path><path d="M1149.577164715156,-32.28715245844796L1071.603330175858,43.63434949191287L1136.5294815017842,59.49848661432043Z" fill="#aa93c7" stroke="#aa93c7"></path><path d="M1149.577164715156,-32.28715245844796L1136.5294815017842,59.49848661432043L1238.2747753383592,14.641248774714768Z" fill="#a68dc4" stroke="#a68dc4"></path><path d="M1149.577164715156,-32.28715245844796L1238.2747753383592,14.641248774714768L1254.4276233599521,-22.927158784586936Z" fill="#a488c2" stroke="#a488c2"></path><path d="M1149.577164715156,-32.28715245844796L1254.4276233599521,-22.927158784586936L1314.213173200842,-72.21447622170672Z" fill="#a285c1" stroke="#a285c1"></path><path d="M1254.4276233599521,-22.927158784586936L1238.2747753383592,14.641248774714768L1340.7648471882567,66.18633576203138Z" fill="#9f80be" stroke="#9f80be"></path><path d="M1254.4276233599521,-22.927158784586936L1340.7648471882567,66.18633576203138L1365.7110272115096,-44.97213588794693Z" fill="#9d80bc" stroke="#9d80bc"></path><path d="M1254.4276233599521,-22.927158784586936L1365.7110272115096,-44.97213588794693L1314.213173200842,-72.21447622170672Z" fill="#9d80bc" stroke="#9d80bc"></path><path d="M1314.213173200842,-72.21447622170672L1365.7110272115096,-44.97213588794693L1465.9286253410392,-66.92565689561889Z" fill="#9980b9" stroke="#9980b9"></path><path d="M1365.7110272115096,-44.97213588794693L1340.7648471882567,66.18633576203138L1390.7381469919346,59.8291188525036Z" fill="#9a80b9" stroke="#9a80b9"></path><path d="M1365.7110272115096,-44.97213588794693L1390.7381469919346,59.8291188525036L1493.1955164507963,26.578937855083495Z" fill="#9680b7" stroke="#9680b7"></path><path d="M1365.7110272115096,-44.97213588794693L1493.1955164507963,26.578937855083495L1465.9286253410392,-66.92565689561889Z" fill="#9580b5" stroke="#9580b5"></path><path d="M-25.099297766573727,13.742523535620421L-66.7519851331599,176.27605574438348L-5.598566001281142,131.6037682024762Z" fill="#ffffff" stroke="#ffffff"></path><path d="M-25.099297766573727,13.742523535620421L-5.598566001281142,131.6037682024762L31.039696037769318,38.70681096799672Z" fill="#fefdfe" stroke="#fefdfe"></path><path d="M31.039696037769318,38.70681096799672L-5.598566001281142,131.6037682024762L49.7960008517839,139.54324554186314Z" fill="#fdfcfe" stroke="#fdfcfe"></path><path d="M31.039696037769318,38.70681096799672L49.7960008517839,139.54324554186314L87.77443108148873,107.59699892718345Z" fill="#fbfbfd" stroke="#fbfbfd"></path><path d="M31.039696037769318,38.70681096799672L87.77443108148873,107.59699892718345L151.36216612765566,37.215395991224796Z" fill="#faf9fc" stroke="#faf9fc"></path><path d="M151.36216612765566,37.215395991224796L87.77443108148873,107.59699892718345L202.07592522958294,109.13270781282336Z" fill="#f8f7fb" stroke="#f8f7fb"></path><path d="M151.36216612765566,37.215395991224796L202.07592522958294,109.13270781282336L206.42050796886906,49.694990816060454Z" fill="#f6f5f9" stroke="#f6f5f9"></path><path d="M206.42050796886906,49.694990816060454L202.07592522958294,109.13270781282336L263.9188311062753,54.42776241572574Z" fill="#f3f2f8" stroke="#f3f2f8"></path><path d="M263.9188311062753,54.42776241572574L202.07592522958294,109.13270781282336L288.04866350255907,122.36959128640592Z" fill="#f1f1f7" stroke="#f1f1f7"></path><path d="M263.9188311062753,54.42776241572574L288.04866350255907,122.36959128640592L332.194579730276,86.92492901114747Z" fill="#eeeef6" stroke="#eeeef6"></path><path d="M263.9188311062753,54.42776241572574L332.194579730276,86.92492901114747L370.4393754573539,49.96725131291896Z" fill="#ededf5" stroke="#ededf5"></path><path d="M370.4393754573539,49.96725131291896L332.194579730276,86.92492901114747L437.8477146849036,112.91502317646518Z" fill="#e7e7f2" stroke="#e7e7f2"></path><path d="M370.4393754573539,49.96725131291896L437.8477146849036,112.91502317646518L432.04564969055355,74.93393706623465Z" fill="#e4e4f1" stroke="#e4e4f1"></path><path d="M432.04564969055355,74.93393706623465L437.8477146849036,112.91502317646518L542.4449865357019,54.29189294576645Z" fill="#dfdfee" stroke="#dfdfee"></path><path d="M542.4449865357019,54.29189294576645L437.8477146849036,112.91502317646518L548.9378291438334,120.4898844123818Z" fill="#dbdbec" stroke="#dbdbec"></path><path d="M542.4449865357019,54.29189294576645L548.9378291438334,120.4898844123818L596.9198473356664,120.93624107539654Z" fill="#d6d5e9" stroke="#d6d5e9"></path><path d="M542.4449865357019,54.29189294576645L596.9198473356664,120.93624107539654L592.4373210081831,29.12450335919857Z" fill="#d5d4e8" stroke="#d5d4e8"></path><path d="M592.4373210081831,29.12450335919857L596.9198473356664,120.93624107539654L688.737736819312,31.26469523878768Z" fill="#d0cee5" stroke="#d0cee5"></path><path d="M688.737736819312,31.26469523878768L596.9198473356664,120.93624107539654L706.3785975635983,118.3897036476992Z" fill="#cccbe3" stroke="#cccbe3"></path><path d="M688.737736819312,31.26469523878768L706.3785975635983,118.3897036476992L737.1749979443848,14.722973476164043Z" fill="#c8c6e1" stroke="#c8c6e1"></path><path d="M737.1749979443848,14.722973476164043L706.3785975635983,118.3897036476992L822.2513305954635,123.94294486148283Z" fill="#c4c2df" stroke="#c4c2df"></path><path d="M737.1749979443848,14.722973476164043L822.2513305954635,123.94294486148283L868.2245576614514,17.614241673145443Z" fill="#bfbddc" stroke="#bfbddc"></path><path d="M868.2245576614514,17.614241673145443L822.2513305954635,123.94294486148283L934.528685582336,100.20061567891389Z" fill="#bbb4d7" stroke="#bbb4d7"></path><path d="M868.2245576614514,17.614241673145443L934.528685582336,100.20061567891389L946.7896229610778,56.19048211723566Z" fill="#b8aed4" stroke="#b8aed4"></path><path d="M946.7896229610778,56.19048211723566L934.528685582336,100.20061567891389L974.7671606973745,128.81039562867954Z" fill="#b5a9d2" stroke="#b5a9d2"></path><path d="M946.7896229610778,56.19048211723566L974.7671606973745,128.81039562867954L1026.5472273644991,46.43527240958065Z" fill="#b3a5d0" stroke="#b3a5d0"></path><path d="M1026.5472273644991,46.43527240958065L974.7671606973745,128.81039562867954L1064.4626465043984,128.67456051521003Z" fill="#b0a0cd" stroke="#b0a0cd"></path><path d="M1026.5472273644991,46.43527240958065L1064.4626465043984,128.67456051521003L1071.603330175858,43.63434949191287Z" fill="#ae9ccb" stroke="#ae9ccb"></path><path d="M1071.603330175858,43.63434949191287L1064.4626465043984,128.67456051521003L1136.5294815017842,59.49848661432043Z" fill="#ac97c9" stroke="#ac97c9"></path><path d="M1136.5294815017842,59.49848661432043L1064.4626465043984,128.67456051521003L1188.4220346412621,147.84999964060262Z" fill="#a992c7" stroke="#a992c7"></path><path d="M1136.5294815017842,59.49848661432043L1188.4220346412621,147.84999964060262L1241.8845248338766,126.69340963475406Z" fill="#a58bc3" stroke="#a58bc3"></path><path d="M1136.5294815017842,59.49848661432043L1241.8845248338766,126.69340963475406L1238.2747753383592,14.641248774714768Z" fill="#a489c2" stroke="#a489c2"></path><path d="M1238.2747753383592,14.641248774714768L1241.8845248338766,126.69340963475406L1340.7648471882567,66.18633576203138Z" fill="#a081bf" stroke="#a081bf"></path><path d="M1340.7648471882567,66.18633576203138L1241.8845248338766,126.69340963475406L1338.0024263565429,152.42907301755622Z" fill="#9d80bd" stroke="#9d80bd"></path><path d="M1340.7648471882567,66.18633576203138L1338.0024263565429,152.42907301755622L1370.7469930732623,108.86468079173937Z" fill="#9b80ba" stroke="#9b80ba"></path><path d="M1340.7648471882567,66.18633576203138L1370.7469930732623,108.86468079173937L1390.7381469919346,59.8291188525036Z" fill="#9a80b9" stroke="#9a80b9"></path><path d="M1390.7381469919346,59.8291188525036L1370.7469930732623,108.86468079173937L1480.378966848366,105.90892296982929Z" fill="#9680b7" stroke="#9680b7"></path><path d="M1390.7381469919346,59.8291188525036L1480.378966848366,105.90892296982929L1493.1955164507963,26.578937855083495Z" fill="#9480b4" stroke="#9480b4"></path><path d="M1493.1955164507963,26.578937855083495L1480.378966848366,105.90892296982929L1510.9814076242037,166.31842706818134Z" fill="#9180b2" stroke="#9180b2"></path><path d="M-5.598566001281142,131.6037682024762L-66.7519851331599,176.27605574438348L25.821663972456008,176.0785844689235Z" fill="#fefeff" stroke="#fefeff"></path><path d="M-5.598566001281142,131.6037682024762L25.821663972456008,176.0785844689235L49.7960008517839,139.54324554186314Z" fill="#fdfcfe" stroke="#fdfcfe"></path><path d="M49.7960008517839,139.54324554186314L25.821663972456008,176.0785844689235L88.07538641849533,219.46028330596164Z" fill="#f9f8fd" stroke="#f9f8fd"></path><path d="M49.7960008517839,139.54324554186314L88.07538641849533,219.46028330596164L87.77443108148873,107.59699892718345Z" fill="#fbfafc" stroke="#fbfafc"></path><path d="M87.77443108148873,107.59699892718345L88.07538641849533,219.46028330596164L193.28104983549565,209.5250267186202Z" fill="#f6f5fb" stroke="#f6f5fb"></path><path d="M87.77443108148873,107.59699892718345L193.28104983549565,209.5250267186202L202.07592522958294,109.13270781282336Z" fill="#f7f6fa" stroke="#f7f6fa"></path><path d="M202.07592522958294,109.13270781282336L193.28104983549565,209.5250267186202L288.04866350255907,122.36959128640592Z" fill="#f3f2f8" stroke="#f3f2f8"></path><path d="M288.04866350255907,122.36959128640592L193.28104983549565,209.5250267186202L306.945835694205,204.66721951495856Z" fill="#eeedf7" stroke="#eeedf7"></path><path d="M288.04866350255907,122.36959128640592L306.945835694205,204.66721951495856L389.9710276396945,177.3528655502014Z" fill="#ebebf5" stroke="#ebebf5"></path><path d="M288.04866350255907,122.36959128640592L389.9710276396945,177.3528655502014L332.194579730276,86.92492901114747Z" fill="#ebebf4" stroke="#ebebf4"></path><path d="M332.194579730276,86.92492901114747L389.9710276396945,177.3528655502014L437.8477146849036,112.91502317646518Z" fill="#e6e7f2" stroke="#e6e7f2"></path><path d="M437.8477146849036,112.91502317646518L389.9710276396945,177.3528655502014L464.9659339687787,199.93729626061395Z" fill="#e2e3f0" stroke="#e2e3f0"></path><path d="M437.8477146849036,112.91502317646518L464.9659339687787,199.93729626061395L505.17682714620605,173.52187160402536Z" fill="#dfdfee" stroke="#dfdfee"></path><path d="M437.8477146849036,112.91502317646518L505.17682714620605,173.52187160402536L548.9378291438334,120.4898844123818Z" fill="#dcdced" stroke="#dcdced"></path><path d="M548.9378291438334,120.4898844123818L505.17682714620605,173.52187160402536L602.5945961102843,220.79557637916878Z" fill="#d5d5e9" stroke="#d5d5e9"></path><path d="M548.9378291438334,120.4898844123818L602.5945961102843,220.79557637916878L596.9198473356664,120.93624107539654Z" fill="#d4d3e7" stroke="#d4d3e7"></path><path d="M596.9198473356664,120.93624107539654L602.5945961102843,220.79557637916878L649.9930157838389,196.14600679604337Z" fill="#cecce5" stroke="#cecce5"></path><path d="M596.9198473356664,120.93624107539654L649.9930157838389,196.14600679604337L706.3785975635983,118.3897036476992Z" fill="#cecce3" stroke="#cecce3"></path><path d="M706.3785975635983,118.3897036476992L649.9930157838389,196.14600679604337L744.467696484644,153.35760758025572Z" fill="#c9c7e1" stroke="#c9c7e1"></path><path d="M706.3785975635983,118.3897036476992L744.467696484644,153.35760758025572L822.2513305954635,123.94294486148283Z" fill="#c4c2df" stroke="#c4c2df"></path><path d="M744.467696484644,153.35760758025572L649.9930157838389,196.14600679604337L742.1226405561902,211.92971020936966Z" fill="#c3c2e1" stroke="#c3c2e1"></path><path d="M744.467696484644,153.35760758025572L742.1226405561902,211.92971020936966L838.1090411311015,227.29176706634462Z" fill="#bcbade" stroke="#bcbade"></path><path d="M744.467696484644,153.35760758025572L838.1090411311015,227.29176706634462L822.2513305954635,123.94294486148283Z" fill="#bfbddd" stroke="#bfbddd"></path><path d="M822.2513305954635,123.94294486148283L838.1090411311015,227.29176706634462L945.2090952522121,183.88977760914713Z" fill="#b8b2d8" stroke="#b8b2d8"></path><path d="M822.2513305954635,123.94294486148283L945.2090952522121,183.88977760914713L934.528685582336,100.20061567891389Z" fill="#b9b0d6" stroke="#b9b0d6"></path><path d="M934.528685582336,100.20061567891389L945.2090952522121,183.88977760914713L974.7671606973745,128.81039562867954Z" fill="#b5a9d2" stroke="#b5a9d2"></path><path d="M974.7671606973745,128.81039562867954L945.2090952522121,183.88977760914713L981.776182281319,184.78773707989603Z" fill="#b4a7d1" stroke="#b4a7d1"></path><path d="M974.7671606973745,128.81039562867954L981.776182281319,184.78773707989603L1064.4626465043984,128.67456051521003Z" fill="#b2a2ce" stroke="#b2a2ce"></path><path d="M1064.4626465043984,128.67456051521003L981.776182281319,184.78773707989603L1064.5083486055955,201.23666690196842Z" fill="#ae9dcc" stroke="#ae9dcc"></path><path d="M1064.4626465043984,128.67456051521003L1064.5083486055955,201.23666690196842L1137.382747840602,203.44871352193877Z" fill="#a995c9" stroke="#a995c9"></path><path d="M1064.4626465043984,128.67456051521003L1137.382747840602,203.44871352193877L1188.4220346412621,147.84999964060262Z" fill="#a992c7" stroke="#a992c7"></path><path d="M1188.4220346412621,147.84999964060262L1137.382747840602,203.44871352193877L1246.4906083606184,220.08132114075124Z" fill="#a086c3" stroke="#a086c3"></path><path d="M1188.4220346412621,147.84999964060262L1246.4906083606184,220.08132114075124L1241.8845248338766,126.69340963475406Z" fill="#a286c1" stroke="#a286c1"></path><path d="M1241.8845248338766,126.69340963475406L1246.4906083606184,220.08132114075124L1323.7585205608048,208.52029252564535Z" fill="#9c7dbf" stroke="#9c7dbf"></path><path d="M1241.8845248338766,126.69340963475406L1323.7585205608048,208.52029252564535L1338.0024263565429,152.42907301755622Z" fill="#9e80bd" stroke="#9e80bd"></path><path d="M1338.0024263565429,152.42907301755622L1323.7585205608048,208.52029252564535L1403.7398661929183,223.49602478556335Z" fill="#947aba" stroke="#947aba"></path><path d="M1338.0024263565429,152.42907301755622L1403.7398661929183,223.49602478556335L1370.7469930732623,108.86468079173937Z" fill="#9980b9" stroke="#9980b9"></path><path d="M1370.7469930732623,108.86468079173937L1403.7398661929183,223.49602478556335L1480.378966848366,105.90892296982929Z" fill="#9680b6" stroke="#9680b6"></path><path d="M1480.378966848366,105.90892296982929L1403.7398661929183,223.49602478556335L1510.9814076242037,166.31842706818134Z" fill="#937fb4" stroke="#937fb4"></path><path d="M-66.7519851331599,176.27605574438348L-66.3328040461056,433.37409105617553L-51.797426184639335,288.1889866362326Z" fill="#e4e3fa" stroke="#e4e3fa"></path><path d="M-66.7519851331599,176.27605574438348L-51.797426184639335,288.1889866362326L8.924756897613406,284.96137670008466Z" fill="#efefff" stroke="#efefff"></path><path d="M-66.7519851331599,176.27605574438348L8.924756897613406,284.96137670008466L25.821663972456008,176.0785844689235Z" fill="#f5f5ff" stroke="#f5f5ff"></path><path d="M25.821663972456008,176.0785844689235L8.924756897613406,284.96137670008466L88.07538641849533,219.46028330596164Z" fill="#f0f0fd" stroke="#f0f0fd"></path><path d="M88.07538641849533,219.46028330596164L8.924756897613406,284.96137670008466L111.15253714146093,306.7661698325537Z" fill="#e6e5fa" stroke="#e6e5fa"></path><path d="M88.07538641849533,219.46028330596164L111.15253714146093,306.7661698325537L193.28104983549565,209.5250267186202Z" fill="#e9e9fb" stroke="#e9e9fb"></path><path d="M193.28104983549565,209.5250267186202L111.15253714146093,306.7661698325537L210.5759923439473,271.66949591832235Z" fill="#e3e2f8" stroke="#e3e2f8"></path><path d="M193.28104983549565,209.5250267186202L210.5759923439473,271.66949591832235L306.945835694205,204.66721951495856Z" fill="#e6e6f8" stroke="#e6e6f8"></path><path d="M306.945835694205,204.66721951495856L210.5759923439473,271.66949591832235L304.88454536767676,270.5861183675006Z" fill="#dfdff6" stroke="#dfdff6"></path><path d="M306.945835694205,204.66721951495856L304.88454536767676,270.5861183675006L337.9562442796305,261.46795433713123Z" fill="#dddef5" stroke="#dddef5"></path><path d="M306.945835694205,204.66721951495856L337.9562442796305,261.46795433713123L389.9710276396945,177.3528655502014Z" fill="#e1e1f4" stroke="#e1e1f4"></path><path d="M389.9710276396945,177.3528655502014L337.9562442796305,261.46795433713123L452.52642723498866,268.3037637011148Z" fill="#d8d9f2" stroke="#d8d9f2"></path><path d="M389.9710276396945,177.3528655502014L452.52642723498866,268.3037637011148L464.9659339687787,199.93729626061395Z" fill="#d8d9f0" stroke="#d8d9f0"></path><path d="M464.9659339687787,199.93729626061395L452.52642723498866,268.3037637011148L505.2514245873317,266.9968014000915Z" fill="#cfd0ee" stroke="#cfd0ee"></path><path d="M464.9659339687787,199.93729626061395L505.2514245873317,266.9968014000915L505.17682714620605,173.52187160402536Z" fill="#d3d4ed" stroke="#d3d4ed"></path><path d="M505.17682714620605,173.52187160402536L505.2514245873317,266.9968014000915L602.5945961102843,220.79557637916878Z" fill="#cdcdea" stroke="#cdcdea"></path><path d="M602.5945961102843,220.79557637916878L505.2514245873317,266.9968014000915L577.536116221454,270.5054710060358Z" fill="#c5c4e8" stroke="#c5c4e8"></path><path d="M602.5945961102843,220.79557637916878L577.536116221454,270.5054710060358L701.4116514124908,308.3172881579958Z" fill="#bcbae3" stroke="#bcbae3"></path><path d="M602.5945961102843,220.79557637916878L701.4116514124908,308.3172881579958L649.9930157838389,196.14600679604337Z" fill="#bfbde3" stroke="#bfbde3"></path><path d="M649.9930157838389,196.14600679604337L701.4116514124908,308.3172881579958L742.1226405561902,211.92971020936966Z" fill="#bbbae1" stroke="#bbbae1"></path><path d="M742.1226405561902,211.92971020936966L701.4116514124908,308.3172881579958L768.6697528231889,293.06132725439966Z" fill="#b0aedd" stroke="#b0aedd"></path><path d="M742.1226405561902,211.92971020936966L768.6697528231889,293.06132725439966L814.2407512618229,265.76112219830975Z" fill="#b0afdd" stroke="#b0afdd"></path><path d="M742.1226405561902,211.92971020936966L814.2407512618229,265.76112219830975L838.1090411311015,227.29176706634462Z" fill="#b2b1dd" stroke="#b2b1dd"></path><path d="M838.1090411311015,227.29176706634462L814.2407512618229,265.76112219830975L922.52200800227,307.00702670495957Z" fill="#a7a2d7" stroke="#a7a2d7"></path><path d="M838.1090411311015,227.29176706634462L922.52200800227,307.00702670495957L945.2090952522121,183.88977760914713Z" fill="#aaa2d5" stroke="#aaa2d5"></path><path d="M945.2090952522121,183.88977760914713L922.52200800227,307.00702670495957L995.2222964679822,265.235101392027Z" fill="#a498d1" stroke="#a498d1"></path><path d="M945.2090952522121,183.88977760914713L995.2222964679822,265.235101392027L981.776182281319,184.78773707989603Z" fill="#ab9dd0" stroke="#ab9dd0"></path><path d="M981.776182281319,184.78773707989603L995.2222964679822,265.235101392027L1064.5083486055955,201.23666690196842Z" fill="#a797ce" stroke="#a797ce"></path><path d="M1064.5083486055955,201.23666690196842L995.2222964679822,265.235101392027L1056.1607586406171,280.7723552407697Z" fill="#9f8ecc" stroke="#9f8ecc"></path><path d="M1064.5083486055955,201.23666690196842L1056.1607586406171,280.7723552407697L1134.3871270050295,276.2555913021788Z" fill="#9b87c8" stroke="#9b87c8"></path><path d="M1064.5083486055955,201.23666690196842L1134.3871270050295,276.2555913021788L1137.382747840602,203.44871352193877Z" fill="#9e89c8" stroke="#9e89c8"></path><path d="M1137.382747840602,203.44871352193877L1134.3871270050295,276.2555913021788L1246.4906083606184,220.08132114075124Z" fill="#9980c4" stroke="#9980c4"></path><path d="M1246.4906083606184,220.08132114075124L1134.3871270050295,276.2555913021788L1233.198368921876,338.9568480825983Z" fill="#8d71bf" stroke="#8d71bf"></path><path d="M1246.4906083606184,220.08132114075124L1233.198368921876,338.9568480825983L1273.6675822618417,255.66249468363822Z" fill="#8c6ebd" stroke="#8c6ebd"></path><path d="M1246.4906083606184,220.08132114075124L1273.6675822618417,255.66249468363822L1323.7585205608048,208.52029252564535Z" fill="#9374be" stroke="#9374be"></path><path d="M1323.7585205608048,208.52029252564535L1273.6675822618417,255.66249468363822L1319.5256916922517,277.6101816724986Z" fill="#8e70bd" stroke="#8e70bd"></path><path d="M1323.7585205608048,208.52029252564535L1319.5256916922517,277.6101816724986L1403.7398661929183,223.49602478556335Z" fill="#8d72ba" stroke="#8d72ba"></path><path d="M1403.7398661929183,223.49602478556335L1319.5256916922517,277.6101816724986L1409.0811999188736,258.3199109020643Z" fill="#876fb8" stroke="#876fb8"></path><path d="M1403.7398661929183,223.49602478556335L1409.0811999188736,258.3199109020643L1452.6326214545406,262.46414163615555Z" fill="#8670b6" stroke="#8670b6"></path><path d="M1403.7398661929183,223.49602478556335L1452.6326214545406,262.46414163615555L1510.9814076242037,166.31842706818134Z" fill="#8976b4" stroke="#8976b4"></path><path d="M1510.9814076242037,166.31842706818134L1452.6326214545406,262.46414163615555L1482.330643022433,332.1795905381441Z" fill="#806fb2" stroke="#806fb2"></path><path d="M1510.9814076242037,166.31842706818134L1482.330643022433,332.1795905381441L1486.4603662723675,571.5886243293062Z" fill="#6956a7" stroke="#6956a7"></path><path d="M1510.9814076242037,166.31842706818134L1486.4603662723675,571.5886243293062L1491.631873473525,790.6579898088239Z" fill="#4e2a91" stroke="#4e2a91"></path><path d="M-51.797426184639335,288.1889866362326L-66.3328040461056,433.37409105617553L-18.97297685733065,359.71391833387315Z" fill="#d6d5f4" stroke="#d6d5f4"></path><path d="M-51.797426184639335,288.1889866362326L-18.97297685733065,359.71391833387315L8.924756897613406,284.96137670008466Z" fill="#e1dff8" stroke="#e1dff8"></path><path d="M8.924756897613406,284.96137670008466L-18.97297685733065,359.71391833387315L74.88606864819303,346.2882003141567Z" fill="#dad8f5" stroke="#dad8f5"></path><path d="M8.924756897613406,284.96137670008466L74.88606864819303,346.2882003141567L111.15253714146093,306.7661698325537Z" fill="#dddaf6" stroke="#dddaf6"></path><path d="M111.15253714146093,306.7661698325537L74.88606864819303,346.2882003141567L101.64289862615988,355.7474802993238Z" fill="#d6d4f3" stroke="#d6d4f3"></path><path d="M111.15253714146093,306.7661698325537L101.64289862615988,355.7474802993238L185.27936151484028,386.04937544092536Z" fill="#d2cff0" stroke="#d2cff0"></path><path d="M111.15253714146093,306.7661698325537L185.27936151484028,386.04937544092536L210.5759923439473,271.66949591832235Z" fill="#d6d4f2" stroke="#d6d4f2"></path><path d="M210.5759923439473,271.66949591832235L185.27936151484028,386.04937544092536L282.5820294255391,371.2294065905735Z" fill="#cecbef" stroke="#cecbef"></path><path d="M210.5759923439473,271.66949591832235L282.5820294255391,371.2294065905735L304.88454536767676,270.5861183675006Z" fill="#d4d2f1" stroke="#d4d2f1"></path><path d="M304.88454536767676,270.5861183675006L282.5820294255391,371.2294065905735L337.9562442796305,261.46795433713123Z" fill="#d2d0f0" stroke="#d2d0f0"></path><path d="M337.9562442796305,261.46795433713123L282.5820294255391,371.2294065905735L348.4398002270609,407.4440319882706Z" fill="#c6c4eb" stroke="#c6c4eb"></path><path d="M337.9562442796305,261.46795433713123L348.4398002270609,407.4440319882706L389.74051410797983,393.3658244693652Z" fill="#c2c0e8" stroke="#c2c0e8"></path><path d="M337.9562442796305,261.46795433713123L389.74051410797983,393.3658244693652L451.0164359258488,344.7896265401505Z" fill="#c3c1e9" stroke="#c3c1e9"></path><path d="M337.9562442796305,261.46795433713123L451.0164359258488,344.7896265401505L452.52642723498866,268.3037637011148Z" fill="#cacaec" stroke="#cacaec"></path><path d="M452.52642723498866,268.3037637011148L451.0164359258488,344.7896265401505L505.2514245873317,266.9968014000915Z" fill="#c5c4ea" stroke="#c5c4ea"></path><path d="M505.2514245873317,266.9968014000915L451.0164359258488,344.7896265401505L551.6968736681156,372.364638466388Z" fill="#bab8e4" stroke="#bab8e4"></path><path d="M505.2514245873317,266.9968014000915L551.6968736681156,372.364638466388L595.1403025863692,327.80967984581366Z" fill="#b7b4e2" stroke="#b7b4e2"></path><path d="M505.2514245873317,266.9968014000915L595.1403025863692,327.80967984581366L577.536116221454,270.5054710060358Z" fill="#bdbce4" stroke="#bdbce4"></path><path d="M577.536116221454,270.5054710060358L595.1403025863692,327.80967984581366L701.4116514124908,308.3172881579958Z" fill="#b4b1df" stroke="#b4b1df"></path><path d="M701.4116514124908,308.3172881579958L595.1403025863692,327.80967984581366L674.8760641831905,375.0045057060197Z" fill="#a9a6da" stroke="#a9a6da"></path><path d="M701.4116514124908,308.3172881579958L674.8760641831905,375.0045057060197L743.0354133131914,334.79562904220074Z" fill="#a4a1d7" stroke="#a4a1d7"></path><path d="M701.4116514124908,308.3172881579958L743.0354133131914,334.79562904220074L768.6697528231889,293.06132725439966Z" fill="#a7a4d9" stroke="#a7a4d9"></path><path d="M768.6697528231889,293.06132725439966L743.0354133131914,334.79562904220074L867.0604796824045,343.37437711423263Z" fill="#9f9cd6" stroke="#9f9cd6"></path><path d="M768.6697528231889,293.06132725439966L867.0604796824045,343.37437711423263L814.2407512618229,265.76112219830975Z" fill="#a39fd6" stroke="#a39fd6"></path><path d="M814.2407512618229,265.76112219830975L867.0604796824045,343.37437711423263L922.52200800227,307.00702670495957Z" fill="#9e97d2" stroke="#9e97d2"></path><path d="M922.52200800227,307.00702670495957L867.0604796824045,343.37437711423263L925.257560510654,391.093116349075Z" fill="#9388cb" stroke="#9388cb"></path><path d="M922.52200800227,307.00702670495957L925.257560510654,391.093116349075L980.5883985524997,354.30022219661623Z" fill="#8f82c8" stroke="#8f82c8"></path><path d="M922.52200800227,307.00702670495957L980.5883985524997,354.30022219661623L995.2222964679822,265.235101392027Z" fill="#9788ca" stroke="#9788ca"></path><path d="M995.2222964679822,265.235101392027L980.5883985524997,354.30022219661623L1056.1607586406171,280.7723552407697Z" fill="#9685c9" stroke="#9685c9"></path><path d="M1056.1607586406171,280.7723552407697L980.5883985524997,354.30022219661623L1078.5437203198671,346.0678040678613Z" fill="#8e7ac4" stroke="#8e7ac4"></path><path d="M1056.1607586406171,280.7723552407697L1078.5437203198671,346.0678040678613L1134.3871270050295,276.2555913021788Z" fill="#907ac4" stroke="#907ac4"></path><path d="M1134.3871270050295,276.2555913021788L1078.5437203198671,346.0678040678613L1170.869734545704,387.6808528136462Z" fill="#866dbe" stroke="#866dbe"></path><path d="M1134.3871270050295,276.2555913021788L1170.869734545704,387.6808528136462L1233.198368921876,338.9568480825983Z" fill="#8367bb" stroke="#8367bb"></path><path d="M1273.6675822618417,255.66249468363822L1233.198368921876,338.9568480825983L1300.7345372554846,353.6832616850734Z" fill="#8160b8" stroke="#8160b8"></path><path d="M1273.6675822618417,255.66249468363822L1300.7345372554846,353.6832616850734L1319.5256916922517,277.6101816724986Z" fill="#8464b8" stroke="#8464b8"></path><path d="M1319.5256916922517,277.6101816724986L1300.7345372554846,353.6832616850734L1406.8887304514647,377.4495941074565Z" fill="#785ab2" stroke="#785ab2"></path><path d="M1319.5256916922517,277.6101816724986L1406.8887304514647,377.4495941074565L1409.0811999188736,258.3199109020643Z" fill="#7c62b3" stroke="#7c62b3"></path><path d="M1409.0811999188736,258.3199109020643L1406.8887304514647,377.4495941074565L1482.330643022433,332.1795905381441Z" fill="#755dae" stroke="#755dae"></path><path d="M1409.0811999188736,258.3199109020643L1482.330643022433,332.1795905381441L1452.6326214545406,262.46414163615555Z" fill="#7c67b1" stroke="#7c67b1"></path><path d="M-18.97297685733065,359.71391833387315L-66.3328040461056,433.37409105617553L54.794240843039006,427.63626963365823Z" fill="#cbc9ee" stroke="#cbc9ee"></path><path d="M-18.97297685733065,359.71391833387315L54.794240843039006,427.63626963365823L74.88606864819303,346.2882003141567Z" fill="#cfcdf0" stroke="#cfcdf0"></path><path d="M74.88606864819303,346.2882003141567L54.794240843039006,427.63626963365823L101.64289862615988,355.7474802993238Z" fill="#ceccef" stroke="#ceccef"></path><path d="M101.64289862615988,355.7474802993238L54.794240843039006,427.63626963365823L87.33935527736321,455.00843556365Z" fill="#c6c3eb" stroke="#c6c3eb"></path><path d="M101.64289862615988,355.7474802993238L87.33935527736321,455.00843556365L185.27936151484028,386.04937544092536Z" fill="#c7c5ec" stroke="#c7c5ec"></path><path d="M185.27936151484028,386.04937544092536L87.33935527736321,455.00843556365L183.42916279099882,457.29903731960803Z" fill="#c0bae6" stroke="#c0bae6"></path><path d="M185.27936151484028,386.04937544092536L183.42916279099882,457.29903731960803L253.79908233648166,466.6276147053577Z" fill="#bcb5e3" stroke="#bcb5e3"></path><path d="M185.27936151484028,386.04937544092536L253.79908233648166,466.6276147053577L282.5820294255391,371.2294065905735Z" fill="#bebce7" stroke="#bebce7"></path><path d="M282.5820294255391,371.2294065905735L253.79908233648166,466.6276147053577L348.4398002270609,407.4440319882706Z" fill="#bab7e5" stroke="#bab7e5"></path><path d="M389.74051410797983,393.3658244693652L348.4398002270609,407.4440319882706L407.96402148669586,457.2151636588387Z" fill="#b1afe0" stroke="#b1afe0"></path><path d="M389.74051410797983,393.3658244693652L407.96402148669586,457.2151636588387L507.10866272449493,426.28557719290257Z" fill="#aba8dc" stroke="#aba8dc"></path><path d="M389.74051410797983,393.3658244693652L507.10866272449493,426.28557719290257L451.0164359258488,344.7896265401505Z" fill="#b2b1e1" stroke="#b2b1e1"></path><path d="M451.0164359258488,344.7896265401505L507.10866272449493,426.28557719290257L551.6968736681156,372.364638466388Z" fill="#aeaddf" stroke="#aeaddf"></path><path d="M551.6968736681156,372.364638466388L507.10866272449493,426.28557719290257L599.2862961441278,408.613593543414Z" fill="#a5a3d9" stroke="#a5a3d9"></path><path d="M551.6968736681156,372.364638466388L599.2862961441278,408.613593543414L595.1403025863692,327.80967984581366Z" fill="#a9a7db" stroke="#a9a7db"></path><path d="M595.1403025863692,327.80967984581366L599.2862961441278,408.613593543414L674.8760641831905,375.0045057060197Z" fill="#a5a2d8" stroke="#a5a2d8"></path><path d="M674.8760641831905,375.0045057060197L599.2862961441278,408.613593543414L672.8362516826019,435.9973393706605Z" fill="#9b97d3" stroke="#9b97d3"></path><path d="M674.8760641831905,375.0045057060197L672.8362516826019,435.9973393706605L765.5356434872374,439.20730667887256Z" fill="#948fcf" stroke="#948fcf"></path><path d="M674.8760641831905,375.0045057060197L765.5356434872374,439.20730667887256L743.0354133131914,334.79562904220074Z" fill="#9995d2" stroke="#9995d2"></path><path d="M743.0354133131914,334.79562904220074L765.5356434872374,439.20730667887256L839.6739495778456,427.1311321295798Z" fill="#908cce" stroke="#908cce"></path><path d="M743.0354133131914,334.79562904220074L839.6739495778456,427.1311321295798L867.0604796824045,343.37437711423263Z" fill="#948fcf" stroke="#948fcf"></path><path d="M867.0604796824045,343.37437711423263L839.6739495778456,427.1311321295798L925.257560510654,391.093116349075Z" fill="#8b83c9" stroke="#8b83c9"></path><path d="M925.257560510654,391.093116349075L839.6739495778456,427.1311321295798L891.2663453794084,451.82118265423924Z" fill="#8479c4" stroke="#8479c4"></path><path d="M925.257560510654,391.093116349075L891.2663453794084,451.82118265423924L983.797041522339,470.0058193388395Z" fill="#7f6dbe" stroke="#7f6dbe"></path><path d="M925.257560510654,391.093116349075L983.797041522339,470.0058193388395L980.5883985524997,354.30022219661623Z" fill="#8273c1" stroke="#8273c1"></path><path d="M980.5883985524997,354.30022219661623L983.797041522339,470.0058193388395L1065.6173599278554,413.18576556863263Z" fill="#7d6bbd" stroke="#7d6bbd"></path><path d="M980.5883985524997,354.30022219661623L1065.6173599278554,413.18576556863263L1078.5437203198671,346.0678040678613Z" fill="#8471c0" stroke="#8471c0"></path><path d="M1078.5437203198671,346.0678040678613L1065.6173599278554,413.18576556863263L1170.869734545704,387.6808528136462Z" fill="#7d66ba" stroke="#7d66ba"></path><path d="M1170.869734545704,387.6808528136462L1065.6173599278554,413.18576556863263L1174.6518735634163,416.1565442662686Z" fill="#765db6" stroke="#765db6"></path><path d="M1170.869734545704,387.6808528136462L1174.6518735634163,416.1565442662686L1240.9041180019267,435.0595890870318Z" fill="#7154b2" stroke="#7154b2"></path><path d="M1170.869734545704,387.6808528136462L1240.9041180019267,435.0595890870318L1233.198368921876,338.9568480825983Z" fill="#7557b3" stroke="#7557b3"></path><path d="M1233.198368921876,338.9568480825983L1240.9041180019267,435.0595890870318L1300.7345372554846,353.6832616850734Z" fill="#7454b2" stroke="#7454b2"></path><path d="M1300.7345372554846,353.6832616850734L1240.9041180019267,435.0595890870318L1341.2712272629142,413.2544899568893Z" fill="#6c4cae" stroke="#6c4cae"></path><path d="M1300.7345372554846,353.6832616850734L1341.2712272629142,413.2544899568893L1406.8887304514647,377.4495941074565Z" fill="#6d51ad" stroke="#6d51ad"></path><path d="M1406.8887304514647,377.4495941074565L1341.2712272629142,413.2544899568893L1433.2410603272729,461.69935625977814Z" fill="#6348a6" stroke="#6348a6"></path><path d="M1406.8887304514647,377.4495941074565L1433.2410603272729,461.69935625977814L1450.486264671199,423.560853775125Z" fill="#6047a3" stroke="#6047a3"></path><path d="M1406.8887304514647,377.4495941074565L1450.486264671199,423.560853775125L1482.330643022433,332.1795905381441Z" fill="#6751a7" stroke="#6751a7"></path><path d="M1482.330643022433,332.1795905381441L1450.486264671199,423.560853775125L1475.65276944777,514.2315816134214Z" fill="#5d46a1" stroke="#5d46a1"></path><path d="M1482.330643022433,332.1795905381441L1475.65276944777,514.2315816134214L1486.4603662723675,571.5886243293062Z" fill="#553697" stroke="#553697"></path><path d="M-66.3328040461056,433.37409105617553L-64.92371450411156,500.35319050308317L54.794240843039006,427.63626963365823Z" fill="#c4bbe6" stroke="#c4bbe6"></path><path d="M54.794240843039006,427.63626963365823L-64.92371450411156,500.35319050308317L64.79315777309239,528.4289092500694Z" fill="#bdaee0" stroke="#bdaee0"></path><path d="M54.794240843039006,427.63626963365823L64.79315777309239,528.4289092500694L87.33935527736321,455.00843556365Z" fill="#bdb1e2" stroke="#bdb1e2"></path><path d="M87.33935527736321,455.00843556365L64.79315777309239,528.4289092500694L150.60333624482155,502.8627145825885Z" fill="#b8a8dc" stroke="#b8a8dc"></path><path d="M87.33935527736321,455.00843556365L150.60333624482155,502.8627145825885L183.42916279099882,457.29903731960803Z" fill="#bbaedf" stroke="#bbaedf"></path><path d="M183.42916279099882,457.29903731960803L150.60333624482155,502.8627145825885L167.281773686409,529.7239179047756Z" fill="#b5a4db" stroke="#b5a4db"></path><path d="M183.42916279099882,457.29903731960803L167.281773686409,529.7239179047756L253.79908233648166,466.6276147053577Z" fill="#b5a6db" stroke="#b5a6db"></path><path d="M253.79908233648166,466.6276147053577L167.281773686409,529.7239179047756L289.9831239134073,524.6104873344302Z" fill="#af9dd7" stroke="#af9dd7"></path><path d="M253.79908233648166,466.6276147053577L289.9831239134073,524.6104873344302L330.8048014692031,505.06190775195137Z" fill="#ad9cd6" stroke="#ad9cd6"></path><path d="M253.79908233648166,466.6276147053577L330.8048014692031,505.06190775195137L348.4398002270609,407.4440319882706Z" fill="#b2a8dc" stroke="#b2a8dc"></path><path d="M348.4398002270609,407.4440319882706L330.8048014692031,505.06190775195137L407.96402148669586,457.2151636588387Z" fill="#aea4da" stroke="#aea4da"></path><path d="M407.96402148669586,457.2151636588387L330.8048014692031,505.06190775195137L411.47816414013505,582.066883216612Z" fill="#a290d0" stroke="#a290d0"></path><path d="M407.96402148669586,457.2151636588387L411.47816414013505,582.066883216612L467.4906878825277,531.8572874297388Z" fill="#9d89cd" stroke="#9d89cd"></path><path d="M407.96402148669586,457.2151636588387L467.4906878825277,531.8572874297388L507.10866272449493,426.28557719290257Z" fill="#a296d3" stroke="#a296d3"></path><path d="M507.10866272449493,426.28557719290257L467.4906878825277,531.8572874297388L553.0744991521351,517.7061704127118Z" fill="#9a8bcd" stroke="#9a8bcd"></path><path d="M507.10866272449493,426.28557719290257L553.0744991521351,517.7061704127118L599.2862961441278,408.613593543414Z" fill="#9c93d1" stroke="#9c93d1"></path><path d="M599.2862961441278,408.613593543414L553.0744991521351,517.7061704127118L625.0266507198103,518.1193848629482Z" fill="#9485ca" stroke="#9485ca"></path><path d="M599.2862961441278,408.613593543414L625.0266507198103,518.1193848629482L672.8362516826019,435.9973393706605Z" fill="#948acc" stroke="#948acc"></path><path d="M672.8362516826019,435.9973393706605L625.0266507198103,518.1193848629482L696.1206065583974,529.9046693695709Z" fill="#8b7ac4" stroke="#8b7ac4"></path><path d="M672.8362516826019,435.9973393706605L696.1206065583974,529.9046693695709L741.6039214166813,519.695825225208Z" fill="#8776c1" stroke="#8776c1"></path><path d="M672.8362516826019,435.9973393706605L741.6039214166813,519.695825225208L765.5356434872374,439.20730667887256Z" fill="#8a7dc6" stroke="#8a7dc6"></path><path d="M765.5356434872374,439.20730667887256L741.6039214166813,519.695825225208L812.0942904963158,541.5191266126931Z" fill="#806ebe" stroke="#806ebe"></path><path d="M765.5356434872374,439.20730667887256L812.0942904963158,541.5191266126931L839.6739495778456,427.1311321295798Z" fill="#8274c1" stroke="#8274c1"></path><path d="M839.6739495778456,427.1311321295798L812.0942904963158,541.5191266126931L891.2663453794084,451.82118265423924Z" fill="#7e6ebe" stroke="#7e6ebe"></path><path d="M891.2663453794084,451.82118265423924L812.0942904963158,541.5191266126931L934.9506412493065,514.5805708598346Z" fill="#7860b7" stroke="#7860b7"></path><path d="M891.2663453794084,451.82118265423924L934.9506412493065,514.5805708598346L983.797041522339,470.0058193388395Z" fill="#785fb6" stroke="#785fb6"></path><path d="M983.797041522339,470.0058193388395L934.9506412493065,514.5805708598346L1031.2720754253678,537.062621936202Z" fill="#7050af" stroke="#7050af"></path><path d="M983.797041522339,470.0058193388395L1031.2720754253678,537.062621936202L1065.6173599278554,413.18576556863263Z" fill="#7255b2" stroke="#7255b2"></path><path d="M1065.6173599278554,413.18576556863263L1031.2720754253678,537.062621936202L1093.7332318280824,523.1948385876603Z" fill="#6d4bac" stroke="#6d4bac"></path><path d="M1065.6173599278554,413.18576556863263L1093.7332318280824,523.1948385876603L1174.6518735634163,416.1565442662686Z" fill="#7051b0" stroke="#7051b0"></path><path d="M1174.6518735634163,416.1565442662686L1093.7332318280824,523.1948385876603L1170.937874368392,541.5871246252209Z" fill="#6740a7" stroke="#6740a7"></path><path d="M1174.6518735634163,416.1565442662686L1170.937874368392,541.5871246252209L1240.9041180019267,435.0595890870318Z" fill="#6843a9" stroke="#6843a9"></path><path d="M1240.9041180019267,435.0595890870318L1170.937874368392,541.5871246252209L1254.9126477143727,511.96377418236807Z" fill="#6235a2" stroke="#6235a2"></path><path d="M1240.9041180019267,435.0595890870318L1254.9126477143727,511.96377418236807L1341.2712272629142,413.2544899568893Z" fill="#653ca6" stroke="#653ca6"></path><path d="M1341.2712272629142,413.2544899568893L1254.9126477143727,511.96377418236807L1342.9702556389384,535.0043136323802Z" fill="#5d319e" stroke="#5d319e"></path><path d="M1341.2712272629142,413.2544899568893L1342.9702556389384,535.0043136323802L1390.86877993308,487.3840930662118Z" fill="#5c349d" stroke="#5c349d"></path><path d="M1341.2712272629142,413.2544899568893L1390.86877993308,487.3840930662118L1433.2410603272729,461.69935625977814Z" fill="#5d3ca0" stroke="#5d3ca0"></path><path d="M1433.2410603272729,461.69935625977814L1390.86877993308,487.3840930662118L1475.65276944777,514.2315816134214Z" fill="#553198" stroke="#553198"></path><path d="M1433.2410603272729,461.69935625977814L1475.65276944777,514.2315816134214L1450.486264671199,423.560853775125Z" fill="#57389a" stroke="#57389a"></path><path d="M-64.92371450411156,500.35319050308317L-40.843122405931354,839.3483907403424L-26.386911708395928,631.3331264187582Z" fill="#a580ca" stroke="#a580ca"></path><path d="M-64.92371450411156,500.35319050308317L-26.386911708395928,631.3331264187582L64.79315777309239,528.4289092500694Z" fill="#b49bd6" stroke="#b49bd6"></path><path d="M64.79315777309239,528.4289092500694L-26.386911708395928,631.3331264187582L54.87605715636164,631.0809184261598Z" fill="#ab8ccf" stroke="#ab8ccf"></path><path d="M64.79315777309239,528.4289092500694L54.87605715636164,631.0809184261598L149.05888919020072,576.6279900004156Z" fill="#ac8fd1" stroke="#ac8fd1"></path><path d="M64.79315777309239,528.4289092500694L149.05888919020072,576.6279900004156L150.60333624482155,502.8627145825885Z" fill="#b19ad6" stroke="#b19ad6"></path><path d="M150.60333624482155,502.8627145825885L149.05888919020072,576.6279900004156L167.281773686409,529.7239179047756Z" fill="#af99d5" stroke="#af99d5"></path><path d="M167.281773686409,529.7239179047756L149.05888919020072,576.6279900004156L202.21371851628646,583.8540550414473Z" fill="#aa8fd0" stroke="#aa8fd0"></path><path d="M167.281773686409,529.7239179047756L202.21371851628646,583.8540550414473L289.9831239134073,524.6104873344302Z" fill="#aa92d2" stroke="#aa92d2"></path><path d="M289.9831239134073,524.6104873344302L202.21371851628646,583.8540550414473L291.7632439546287,583.353244010359Z" fill="#a48ace" stroke="#a48ace"></path><path d="M289.9831239134073,524.6104873344302L291.7632439546287,583.353244010359L330.8048014692031,505.06190775195137Z" fill="#a690d0" stroke="#a690d0"></path><path d="M330.8048014692031,505.06190775195137L291.7632439546287,583.353244010359L390.6397903873585,609.4720306596719Z" fill="#9f84cb" stroke="#9f84cb"></path><path d="M330.8048014692031,505.06190775195137L390.6397903873585,609.4720306596719L411.47816414013505,582.066883216612Z" fill="#9b81c9" stroke="#9b81c9"></path><path d="M467.4906878825277,531.8572874297388L411.47816414013505,582.066883216612L490.13233281672,622.1613930421881Z" fill="#9176c3" stroke="#9176c3"></path><path d="M467.4906878825277,531.8572874297388L490.13233281672,622.1613930421881L553.0744991521351,517.7061704127118Z" fill="#9178c4" stroke="#9178c4"></path><path d="M553.0744991521351,517.7061704127118L490.13233281672,622.1613930421881L604.0416570217349,601.2823389004916Z" fill="#886cbe" stroke="#886cbe"></path><path d="M553.0744991521351,517.7061704127118L604.0416570217349,601.2823389004916L625.0266507198103,518.1193848629482Z" fill="#8a71c0" stroke="#8a71c0"></path><path d="M625.0266507198103,518.1193848629482L604.0416570217349,601.2823389004916L662.0896400557831,568.3134731603786Z" fill="#8468bb" stroke="#8468bb"></path><path d="M625.0266507198103,518.1193848629482L662.0896400557831,568.3134731603786L696.1206065583974,529.9046693695709Z" fill="#846cbd" stroke="#846cbd"></path><path d="M696.1206065583974,529.9046693695709L662.0896400557831,568.3134731603786L793.576466308441,588.8698135013692Z" fill="#7c60b7" stroke="#7c60b7"></path><path d="M696.1206065583974,529.9046693695709L793.576466308441,588.8698135013692L741.6039214166813,519.695825225208Z" fill="#7c63b8" stroke="#7c63b8"></path><path d="M741.6039214166813,519.695825225208L793.576466308441,588.8698135013692L812.0942904963158,541.5191266126931Z" fill="#775eb6" stroke="#775eb6"></path><path d="M812.0942904963158,541.5191266126931L793.576466308441,588.8698135013692L815.4847241495736,567.1018900815398Z" fill="#7357b3" stroke="#7357b3"></path><path d="M812.0942904963158,541.5191266126931L815.4847241495736,567.1018900815398L919.1796960728243,591.015225041192Z" fill="#7051b0" stroke="#7051b0"></path><path d="M812.0942904963158,541.5191266126931L919.1796960728243,591.015225041192L934.9506412493065,514.5805708598346Z" fill="#7051af" stroke="#7051af"></path><path d="M934.9506412493065,514.5805708598346L919.1796960728243,591.015225041192L976.8934625806287,601.9887575344183Z" fill="#6943a8" stroke="#6943a8"></path><path d="M934.9506412493065,514.5805708598346L976.8934625806287,601.9887575344183L1031.2720754253678,537.062621936202Z" fill="#6943a8" stroke="#6943a8"></path><path d="M1031.2720754253678,537.062621936202L976.8934625806287,601.9887575344183L1075.6995778996497,622.6574813271873Z" fill="#6032a1" stroke="#6032a1"></path><path d="M1031.2720754253678,537.062621936202L1075.6995778996497,622.6574813271873L1093.7332318280824,523.1948385876603Z" fill="#6135a2" stroke="#6135a2"></path><path d="M1093.7332318280824,523.1948385876603L1075.6995778996497,622.6574813271873L1127.3683538660407,591.7509315232746Z" fill="#5d2c9d" stroke="#5d2c9d"></path><path d="M1093.7332318280824,523.1948385876603L1127.3683538660407,591.7509315232746L1170.937874368392,541.5871246252209Z" fill="#5f2f9f" stroke="#5f2f9f"></path><path d="M1170.937874368392,541.5871246252209L1127.3683538660407,591.7509315232746L1266.1801087134518,605.5423440947197Z" fill="#572098" stroke="#572098"></path><path d="M1170.937874368392,541.5871246252209L1266.1801087134518,605.5423440947197L1254.9126477143727,511.96377418236807Z" fill="#582399" stroke="#582399"></path><path d="M1254.9126477143727,511.96377418236807L1266.1801087134518,605.5423440947197L1304.728596310597,567.6636149408296Z" fill="#541b96" stroke="#541b96"></path><path d="M1254.9126477143727,511.96377418236807L1304.728596310597,567.6636149408296L1342.9702556389384,535.0043136323802Z" fill="#562198" stroke="#562198"></path><path d="M1342.9702556389384,535.0043136323802L1304.728596310597,567.6636149408296L1378.0514564132318,632.1485816640779Z" fill="#4d158f" stroke="#4d158f"></path><path d="M1342.9702556389384,535.0043136323802L1378.0514564132318,632.1485816640779L1486.4603662723675,571.5886243293062Z" fill="#49158c" stroke="#49158c"></path><path d="M1342.9702556389384,535.0043136323802L1486.4603662723675,571.5886243293062L1390.86877993308,487.3840930662118Z" fill="#502493" stroke="#502493"></path><path d="M1390.86877993308,487.3840930662118L1486.4603662723675,571.5886243293062L1475.65276944777,514.2315816134214Z" fill="#4e2691" stroke="#4e2691"></path><path d="M-26.386911708395928,631.3331264187582L-40.843122405931354,839.3483907403424L-8.128573165740818,738.0112173524685Z" fill="#987fbf" stroke="#987fbf"></path><path d="M-26.386911708395928,631.3331264187582L-8.128573165740818,738.0112173524685L-8.452452707570046,686.2100594420917Z" fill="#9f7ec6" stroke="#9f7ec6"></path><path d="M-26.386911708395928,631.3331264187582L-8.452452707570046,686.2100594420917L54.87605715636164,631.0809184261598Z" fill="#a47eca" stroke="#a47eca"></path><path d="M54.87605715636164,631.0809184261598L-8.452452707570046,686.2100594420917L64.28602907573804,664.7461230261251Z" fill="#a17cc7" stroke="#a17cc7"></path><path d="M54.87605715636164,631.0809184261598L64.28602907573804,664.7461230261251L125.17198238987476,690.0626397435553Z" fill="#9f7ac6" stroke="#9f7ac6"></path><path d="M54.87605715636164,631.0809184261598L125.17198238987476,690.0626397435553L149.05888919020072,576.6279900004156Z" fill="#a27fc9" stroke="#a27fc9"></path><path d="M149.05888919020072,576.6279900004156L125.17198238987476,690.0626397435553L177.64863533899188,645.8090689312667Z" fill="#a07cc7" stroke="#a07cc7"></path><path d="M149.05888919020072,576.6279900004156L177.64863533899188,645.8090689312667L202.21371851628646,583.8540550414473Z" fill="#a484cb" stroke="#a484cb"></path><path d="M202.21371851628646,583.8540550414473L177.64863533899188,645.8090689312667L253.40389862190932,680.7329857349396Z" fill="#9c78c6" stroke="#9c78c6"></path><path d="M202.21371851628646,583.8540550414473L253.40389862190932,680.7329857349396L291.7632439546287,583.353244010359Z" fill="#9d7cc7" stroke="#9d7cc7"></path><path d="M291.7632439546287,583.353244010359L253.40389862190932,680.7329857349396L381.4648190420121,687.5355078163557Z" fill="#946fc1" stroke="#946fc1"></path><path d="M291.7632439546287,583.353244010359L381.4648190420121,687.5355078163557L390.6397903873585,609.4720306596719Z" fill="#9472c2" stroke="#9472c2"></path><path d="M390.6397903873585,609.4720306596719L381.4648190420121,687.5355078163557L443.3853099728003,663.3549480792135Z" fill="#8b66bc" stroke="#8b66bc"></path><path d="M390.6397903873585,609.4720306596719L443.3853099728003,663.3549480792135L411.47816414013505,582.066883216612Z" fill="#8f6fc0" stroke="#8f6fc0"></path><path d="M411.47816414013505,582.066883216612L443.3853099728003,663.3549480792135L490.13233281672,622.1613930421881Z" fill="#8b6abe" stroke="#8b6abe"></path><path d="M490.13233281672,622.1613930421881L443.3853099728003,663.3549480792135L517.338582733646,697.0845328853466Z" fill="#825eb8" stroke="#825eb8"></path><path d="M490.13233281672,622.1613930421881L517.338582733646,697.0845328853466L594.1430225619115,689.6222689491697Z" fill="#7c59b3" stroke="#7c59b3"></path><path d="M490.13233281672,622.1613930421881L594.1430225619115,689.6222689491697L604.0416570217349,601.2823389004916Z" fill="#7e5ab6" stroke="#7e5ab6"></path><path d="M604.0416570217349,601.2823389004916L594.1430225619115,689.6222689491697L663.2941580517218,686.5704050078057Z" fill="#764faf" stroke="#764faf"></path><path d="M604.0416570217349,601.2823389004916L663.2941580517218,686.5704050078057L662.0896400557831,568.3134731603786Z" fill="#7a56b3" stroke="#7a56b3"></path><path d="M662.0896400557831,568.3134731603786L663.2941580517218,686.5704050078057L793.576466308441,588.8698135013692Z" fill="#7552b1" stroke="#7552b1"></path><path d="M793.576466308441,588.8698135013692L663.2941580517218,686.5704050078057L768.2874484569766,699.6725429152139Z" fill="#6a44aa" stroke="#6a44aa"></path><path d="M793.576466308441,588.8698135013692L768.2874484569766,699.6725429152139L858.9914946258068,659.4104232429527Z" fill="#663fa8" stroke="#663fa8"></path><path d="M793.576466308441,588.8698135013692L858.9914946258068,659.4104232429527L815.4847241495736,567.1018900815398Z" fill="#6c49ac" stroke="#6c49ac"></path><path d="M815.4847241495736,567.1018900815398L858.9914946258068,659.4104232429527L919.1796960728243,591.015225041192Z" fill="#6943a9" stroke="#6943a9"></path><path d="M919.1796960728243,591.015225041192L858.9914946258068,659.4104232429527L942.9356632824056,696.9387157447636Z" fill="#5f31a1" stroke="#5f31a1"></path><path d="M919.1796960728243,591.015225041192L942.9356632824056,696.9387157447636L976.8934625806287,601.9887575344183Z" fill="#5f31a0" stroke="#5f31a0"></path><path d="M976.8934625806287,601.9887575344183L942.9356632824056,696.9387157447636L987.3588836472481,702.8611219557934Z" fill="#58289a" stroke="#58289a"></path><path d="M976.8934625806287,601.9887575344183L987.3588836472481,702.8611219557934L1062.9176968638785,680.0422897585668Z" fill="#562298" stroke="#562298"></path><path d="M976.8934625806287,601.9887575344183L1062.9176968638785,680.0422897585668L1075.6995778996497,622.6574813271873Z" fill="#58239a" stroke="#58239a"></path><path d="M1075.6995778996497,622.6574813271873L1062.9176968638785,680.0422897585668L1156.1849312321283,692.6542301173322Z" fill="#4f1792" stroke="#4f1792"></path><path d="M1075.6995778996497,622.6574813271873L1156.1849312321283,692.6542301173322L1127.3683538660407,591.7509315232746Z" fill="#521995" stroke="#521995"></path><path d="M1127.3683538660407,591.7509315232746L1156.1849312321283,692.6542301173322L1266.1801087134518,605.5423440947197Z" fill="#4f1392" stroke="#4f1392"></path><path d="M1266.1801087134518,605.5423440947197L1156.1849312321283,692.6542301173322L1264.5275318436325,667.5352366175503Z" fill="#48068c" stroke="#48068c"></path><path d="M1266.1801087134518,605.5423440947197L1264.5275318436325,667.5352366175503L1345.392690775916,649.8443284584209Z" fill="#46048a" stroke="#46048a"></path><path d="M1266.1801087134518,605.5423440947197L1345.392690775916,649.8443284584209L1304.728596310597,567.6636149408296Z" fill="#4b0d8e" stroke="#4b0d8e"></path><path d="M1304.728596310597,567.6636149408296L1345.392690775916,649.8443284584209L1378.0514564132318,632.1485816640779Z" fill="#470b8a" stroke="#470b8a"></path><path d="M1378.0514564132318,632.1485816640779L1345.392690775916,649.8443284584209L1414.4710327521898,646.7389621888287Z" fill="#400385" stroke="#400385"></path><path d="M1378.0514564132318,632.1485816640779L1414.4710327521898,646.7389621888287L1486.4603662723675,571.5886243293062Z" fill="#410b86" stroke="#410b86"></path><path d="M1486.4603662723675,571.5886243293062L1414.4710327521898,646.7389621888287L1453.560127702076,680.0902753928676Z" fill="#3d0682" stroke="#3d0682"></path><path d="M1486.4603662723675,571.5886243293062L1453.560127702076,680.0902753928676L1491.631873473525,790.6579898088239Z" fill="#34007b" stroke="#34007b"></path><path d="M-8.452452707570046,686.2100594420917L-8.128573165740818,738.0112173524685L64.28602907573804,664.7461230261251Z" fill="#9d7dc3" stroke="#9d7dc3"></path><path d="M64.28602907573804,664.7461230261251L-8.128573165740818,738.0112173524685L48.380355869885534,789.7468308941461Z" fill="#967cbe" stroke="#967cbe"></path><path d="M64.28602907573804,664.7461230261251L48.380355869885534,789.7468308941461L125.17198238987476,690.0626397435553Z" fill="#977abf" stroke="#977abf"></path><path d="M125.17198238987476,690.0626397435553L48.380355869885534,789.7468308941461L129.67757854610682,788.1396574457176Z" fill="#9079ba" stroke="#9079ba"></path><path d="M125.17198238987476,690.0626397435553L129.67757854610682,788.1396574457176L185.46435419702902,741.6389899887145Z" fill="#9077bb" stroke="#9077bb"></path><path d="M125.17198238987476,690.0626397435553L185.46435419702902,741.6389899887145L177.64863533899188,645.8090689312667Z" fill="#9777c0" stroke="#9777c0"></path><path d="M177.64863533899188,645.8090689312667L185.46435419702902,741.6389899887145L253.40389862190932,680.7329857349396Z" fill="#9574bf" stroke="#9574bf"></path><path d="M253.40389862190932,680.7329857349396L185.46435419702902,741.6389899887145L267.447454710491,763.4681373904459Z" fill="#8d72b9" stroke="#8d72b9"></path><path d="M253.40389862190932,680.7329857349396L267.447454710491,763.4681373904459L370.6139951851219,747.809578909073Z" fill="#886fb7" stroke="#886fb7"></path><path d="M253.40389862190932,680.7329857349396L370.6139951851219,747.809578909073L381.4648190420121,687.5355078163557Z" fill="#896cb9" stroke="#896cb9"></path><path d="M381.4648190420121,687.5355078163557L370.6139951851219,747.809578909073L418.03672390058637,734.5181445172057Z" fill="#8267b4" stroke="#8267b4"></path><path d="M381.4648190420121,687.5355078163557L418.03672390058637,734.5181445172057L443.3853099728003,663.3549480792135Z" fill="#8365b6" stroke="#8365b6"></path><path d="M443.3853099728003,663.3549480792135L418.03672390058637,734.5181445172057L517.338582733646,697.0845328853466Z" fill="#7f61b4" stroke="#7f61b4"></path><path d="M517.338582733646,697.0845328853466L418.03672390058637,734.5181445172057L530.5898316693492,780.8310129796155Z" fill="#765ead" stroke="#765ead"></path><path d="M517.338582733646,697.0845328853466L530.5898316693492,780.8310129796155L586.3050229172222,770.0062294513918Z" fill="#6f58a8" stroke="#6f58a8"></path><path d="M517.338582733646,697.0845328853466L586.3050229172222,770.0062294513918L594.1430225619115,689.6222689491697Z" fill="#7255ab" stroke="#7255ab"></path><path d="M594.1430225619115,689.6222689491697L586.3050229172222,770.0062294513918L663.2941580517218,686.5704050078057Z" fill="#6e50a8" stroke="#6e50a8"></path><path d="M663.2941580517218,686.5704050078057L586.3050229172222,770.0062294513918L687.4693585350178,759.6127552911639Z" fill="#674da4" stroke="#674da4"></path><path d="M663.2941580517218,686.5704050078057L687.4693585350178,759.6127552911639L768.2874484569766,699.6725429152139Z" fill="#6547a4" stroke="#6547a4"></path><path d="M768.2874484569766,699.6725429152139L687.4693585350178,759.6127552911639L756.9273649691604,757.3152950475924Z" fill="#5f449f" stroke="#5f449f"></path><path d="M768.2874484569766,699.6725429152139L756.9273649691604,757.3152950475924L851.4809062494896,754.9241603678092Z" fill="#593f9d" stroke="#593f9d"></path><path d="M768.2874484569766,699.6725429152139L851.4809062494896,754.9241603678092L858.9914946258068,659.4104232429527Z" fill="#5c3b9f" stroke="#5c3b9f"></path><path d="M858.9914946258068,659.4104232429527L851.4809062494896,754.9241603678092L942.9356632824056,696.9387157447636Z" fill="#58339b" stroke="#58339b"></path><path d="M942.9356632824056,696.9387157447636L851.4809062494896,754.9241603678092L915.4762224969454,761.4950895239599Z" fill="#523195" stroke="#523195"></path><path d="M942.9356632824056,696.9387157447636L915.4762224969454,761.4950895239599L987.3588836472481,702.8611219557934Z" fill="#512a95" stroke="#512a95"></path><path d="M987.3588836472481,702.8611219557934L915.4762224969454,761.4950895239599L1013.7176637258381,746.0898129525594Z" fill="#4d2791" stroke="#4d2791"></path><path d="M987.3588836472481,702.8611219557934L1013.7176637258381,746.0898129525594L1062.9176968638785,680.0422897585668Z" fill="#4e2191" stroke="#4e2191"></path><path d="M1062.9176968638785,680.0422897585668L1013.7176637258381,746.0898129525594L1065.4541664384305,744.7370360279456Z" fill="#4a1d8e" stroke="#4a1d8e"></path><path d="M1062.9176968638785,680.0422897585668L1065.4541664384305,744.7370360279456L1156.1849312321283,692.6542301173322Z" fill="#49178d" stroke="#49178d"></path><path d="M1156.1849312321283,692.6542301173322L1065.4541664384305,744.7370360279456L1138.2034016726539,768.4183883736841Z" fill="#431488" stroke="#431488"></path><path d="M1156.1849312321283,692.6542301173322L1138.2034016726539,768.4183883736841L1272.4357649544254,775.1801768434234Z" fill="#3d0b82" stroke="#3d0b82"></path><path d="M1156.1849312321283,692.6542301173322L1272.4357649544254,775.1801768434234L1264.5275318436325,667.5352366175503Z" fill="#3f0685" stroke="#3f0685"></path><path d="M1264.5275318436325,667.5352366175503L1272.4357649544254,775.1801768434234L1313.9245129562914,757.9693918931298Z" fill="#39007f" stroke="#39007f"></path><path d="M1264.5275318436325,667.5352366175503L1313.9245129562914,757.9693918931298L1345.392690775916,649.8443284584209Z" fill="#3d0083" stroke="#3d0083"></path><path d="M1345.392690775916,649.8443284584209L1313.9245129562914,757.9693918931298L1385.4575599404052,736.6022388986312Z" fill="#37007d" stroke="#37007d"></path><path d="M1345.392690775916,649.8443284584209L1385.4575599404052,736.6022388986312L1414.4710327521898,646.7389621888287Z" fill="#3b0081" stroke="#3b0081"></path><path d="M1414.4710327521898,646.7389621888287L1385.4575599404052,736.6022388986312L1453.560127702076,680.0902753928676Z" fill="#37007d" stroke="#37007d"></path><path d="M1453.560127702076,680.0902753928676L1385.4575599404052,736.6022388986312L1491.631873473525,790.6579898088239Z" fill="#2e0076" stroke="#2e0076"></path><path d="M-8.128573165740818,738.0112173524685L-40.843122405931354,839.3483907403424L24.22761445865035,822.1490650810301Z" fill="#8e7eb6" stroke="#8e7eb6"></path><path d="M-8.128573165740818,738.0112173524685L24.22761445865035,822.1490650810301L48.380355869885534,789.7468308941461Z" fill="#8f7db8" stroke="#8f7db8"></path><path d="M48.380355869885534,789.7468308941461L24.22761445865035,822.1490650810301L126.54801963595673,858.0960997822694Z" fill="#877bb2" stroke="#877bb2"></path><path d="M48.380355869885534,789.7468308941461L126.54801963595673,858.0960997822694L129.67757854610682,788.1396574457176Z" fill="#8779b2" stroke="#8779b2"></path><path d="M129.67757854610682,788.1396574457176L126.54801963595673,858.0960997822694L199.9439831613563,870.3685791813768Z" fill="#8177ad" stroke="#8177ad"></path><path d="M129.67757854610682,788.1396574457176L199.9439831613563,870.3685791813768L185.46435419702902,741.6389899887145Z" fill="#8676b2" stroke="#8676b2"></path><path d="M185.46435419702902,741.6389899887145L199.9439831613563,870.3685791813768L267.447454710491,763.4681373904459Z" fill="#8473b1" stroke="#8473b1"></path><path d="M267.447454710491,763.4681373904459L199.9439831613563,870.3685791813768L306.6089493688196,862.4132598168217Z" fill="#7b71ab" stroke="#7b71ab"></path><path d="M267.447454710491,763.4681373904459L306.6089493688196,862.4132598168217L346.4404785609804,809.1917049651965Z" fill="#7c6eac" stroke="#7c6eac"></path><path d="M267.447454710491,763.4681373904459L346.4404785609804,809.1917049651965L370.6139951851219,747.809578909073Z" fill="#7f6db0" stroke="#7f6db0"></path><path d="M370.6139951851219,747.809578909073L346.4404785609804,809.1917049651965L418.3141592540778,843.9213405293413Z" fill="#7768ab" stroke="#7768ab"></path><path d="M370.6139951851219,747.809578909073L418.3141592540778,843.9213405293413L418.03672390058637,734.5181445172057Z" fill="#7966ad" stroke="#7966ad"></path><path d="M418.03672390058637,734.5181445172057L418.3141592540778,843.9213405293413L493.0773023259826,848.4711880073883Z" fill="#6f62a6" stroke="#6f62a6"></path><path d="M418.03672390058637,734.5181445172057L493.0773023259826,848.4711880073883L530.5898316693492,780.8310129796155Z" fill="#6f5fa7" stroke="#6f5fa7"></path><path d="M530.5898316693492,780.8310129796155L493.0773023259826,848.4711880073883L607.3723629931919,813.0761585384607Z" fill="#6558a0" stroke="#6558a0"></path><path d="M530.5898316693492,780.8310129796155L607.3723629931919,813.0761585384607L586.3050229172222,770.0062294513918Z" fill="#6654a1" stroke="#6654a1"></path><path d="M586.3050229172222,770.0062294513918L607.3723629931919,813.0761585384607L687.4693585350178,759.6127552911639Z" fill="#624f9f" stroke="#624f9f"></path><path d="M687.4693585350178,759.6127552911639L607.3723629931919,813.0761585384607L669.9157225294039,866.4149021054618Z" fill="#5b4c9a" stroke="#5b4c9a"></path><path d="M687.4693585350178,759.6127552911639L669.9157225294039,866.4149021054618L788.9179454231635,828.9944606879726Z" fill="#544696" stroke="#544696"></path><path d="M687.4693585350178,759.6127552911639L788.9179454231635,828.9944606879726L756.9273649691604,757.3152950475924Z" fill="#57449a" stroke="#57449a"></path><path d="M756.9273649691604,757.3152950475924L788.9179454231635,828.9944606879726L851.4809062494896,754.9241603678092Z" fill="#523f97" stroke="#523f97"></path><path d="M851.4809062494896,754.9241603678092L788.9179454231635,828.9944606879726L857.7534568542615,869.8777109477669Z" fill="#4b3a90" stroke="#4b3a90"></path><path d="M851.4809062494896,754.9241603678092L857.7534568542615,869.8777109477669L915.4762224969454,761.4950895239599Z" fill="#4b3490" stroke="#4b3490"></path><path d="M915.4762224969454,761.4950895239599L857.7534568542615,869.8777109477669L952.9646130651236,862.4106913758442Z" fill="#433089" stroke="#433089"></path><path d="M915.4762224969454,761.4950895239599L952.9646130651236,862.4106913758442L1013.7176637258381,746.0898129525594Z" fill="#46298b" stroke="#46298b"></path><path d="M1013.7176637258381,746.0898129525594L952.9646130651236,862.4106913758442L1019.177969249431,856.2485164217651Z" fill="#3e2485" stroke="#3e2485"></path><path d="M1013.7176637258381,746.0898129525594L1019.177969249431,856.2485164217651L1057.8966384753585,855.6332893972285Z" fill="#3c2082" stroke="#3c2082"></path><path d="M1013.7176637258381,746.0898129525594L1057.8966384753585,855.6332893972285L1065.4541664384305,744.7370360279456Z" fill="#411e86" stroke="#411e86"></path><path d="M1065.4541664384305,744.7370360279456L1057.8966384753585,855.6332893972285L1138.2034016726539,768.4183883736841Z" fill="#3d1883" stroke="#3d1883"></path><path d="M1138.2034016726539,768.4183883736841L1057.8966384753585,855.6332893972285L1154.2088736197911,869.3126732623205Z" fill="#35147b" stroke="#35147b"></path><path d="M1138.2034016726539,768.4183883736841L1154.2088736197911,869.3126732623205L1231.5530884382315,842.6827825210057Z" fill="#320d79" stroke="#320d79"></path><path d="M1138.2034016726539,768.4183883736841L1231.5530884382315,842.6827825210057L1272.4357649544254,775.1801768434234Z" fill="#34087a" stroke="#34087a"></path><path d="M1272.4357649544254,775.1801768434234L1231.5530884382315,842.6827825210057L1336.2724623573013,822.6860876893625Z" fill="#2d0075" stroke="#2d0075"></path><path d="M1272.4357649544254,775.1801768434234L1336.2724623573013,822.6860876893625L1313.9245129562914,757.9693918931298Z" fill="#2f0077" stroke="#2f0077"></path><path d="M1313.9245129562914,757.9693918931298L1336.2724623573013,822.6860876893625L1385.4575599404052,736.6022388986312Z" fill="#2f0076" stroke="#2f0076"></path><path d="M1385.4575599404052,736.6022388986312L1336.2724623573013,822.6860876893625L1432.8704014746472,811.6972918855026Z" fill="#290072" stroke="#290072"></path><path d="M1385.4575599404052,736.6022388986312L1432.8704014746472,811.6972918855026L1491.631873473525,790.6579898088239Z" fill="#270070" stroke="#270070"></path><path d="M1491.631873473525,790.6579898088239L1432.8704014746472,811.6972918855026L1479.7132905456237,841.6147091728635Z" fill="#20006a" stroke="#20006a"></path><path d="M-40.843122405931354,839.3483907403424L199.9439831613563,870.3685791813768L126.54801963595673,858.0960997822694Z" fill="#817aad" stroke="#817aad"></path><path d="M-40.843122405931354,839.3483907403424L126.54801963595673,858.0960997822694L24.22761445865035,822.1490650810301Z" fill="#867cb0" stroke="#867cb0"></path><path d="M199.9439831613563,870.3685791813768L857.7534568542615,869.8777109477669L669.9157225294039,866.4149021054618Z" fill="#5a5497" stroke="#5a5497"></path><path d="M199.9439831613563,870.3685791813768L669.9157225294039,866.4149021054618L306.6089493688196,862.4132598168217Z" fill="#6b67a1" stroke="#6b67a1"></path><path d="M306.6089493688196,862.4132598168217L669.9157225294039,866.4149021054618L493.0773023259826,848.4711880073883Z" fill="#635e9e" stroke="#635e9e"></path><path d="M306.6089493688196,862.4132598168217L493.0773023259826,848.4711880073883L418.3141592540778,843.9213405293413Z" fill="#6c65a3" stroke="#6c65a3"></path><path d="M306.6089493688196,862.4132598168217L418.3141592540778,843.9213405293413L346.4404785609804,809.1917049651965Z" fill="#736aa7" stroke="#736aa7"></path><path d="M493.0773023259826,848.4711880073883L669.9157225294039,866.4149021054618L607.3723629931919,813.0761585384607Z" fill="#5c5399" stroke="#5c5399"></path><path d="M669.9157225294039,866.4149021054618L857.7534568542615,869.8777109477669L788.9179454231635,828.9944606879726Z" fill="#49418f" stroke="#49418f"></path><path d="M857.7534568542615,869.8777109477669L1154.2088736197911,869.3126732623205L952.9646130651236,862.4106913758442Z" fill="#38257f" stroke="#38257f"></path><path d="M952.9646130651236,862.4106913758442L1154.2088736197911,869.3126732623205L1019.177969249431,856.2485164217651Z" fill="#351e7c" stroke="#351e7c"></path><path d="M1019.177969249431,856.2485164217651L1154.2088736197911,869.3126732623205L1057.8966384753585,855.6332893972285Z" fill="#33197a" stroke="#33197a"></path><path d="M1154.2088736197911,869.3126732623205L1479.7132905456237,841.6147091728635L1231.5530884382315,842.6827825210057Z" fill="#26006f" stroke="#26006f"></path><path d="M1231.5530884382315,842.6827825210057L1479.7132905456237,841.6147091728635L1336.2724623573013,822.6860876893625Z" fill="#25006e" stroke="#25006e"></path><path d="M1336.2724623573013,822.6860876893625L1479.7132905456237,841.6147091728635L1432.8704014746472,811.6972918855026Z" fill="#22006c" stroke="#22006c"></path></g><filter id="noise"><feTurbulence type="fractalNoise" in="fillPaint" fill="#F00" baseFrequency="0.7" numOctaves="10" stitchTiles="stitch"></feTurbulence><feComponentTransfer><feFuncR type="linear" slope="2" intercept="-.5"></feFuncR><feFuncG type="linear" slope="2" intercept="-.5"></feFuncG><feFuncB type="linear" slope="2" intercept="-.5"></feFuncB></feComponentTransfer><feColorMatrix type="matrix" values="0.3333 0.3333 0.3333 0 0 
 0.3333 0.3333 0.3333 0 0 
 0.3333 0.3333 0.3333 0 0 
 0 0 0 1 0"></feColorMatrix></filter><rect opacity="0.4" width="100%" height="100%" filter="url(#noise)"></rect></svg>