<svg width="1440" height="779" xmlns="http://www.w3.org/2000/svg"><g><path d="M-52.624087578151375,-11.662361358758062L-72.9660401144065,249.49028303846717L-54.23678614664823,21.874643759801984Z" fill="#ffeadd" stroke="#ffeadd"></path><path d="M-52.624087578151375,-11.662361358758062L-54.23678614664823,21.874643759801984L60.015104645863175,-50.24548622081056Z" fill="#fff4ee" stroke="#fff4ee"></path><path d="M60.015104645863175,-50.24548622081056L-54.23678614664823,21.874643759801984L70.93560202978551,65.45421922346577Z" fill="#ffeee6" stroke="#ffeee6"></path><path d="M60.015104645863175,-50.24548622081056L70.93560202978551,65.45421922346577L94.45236823521554,43.71533486060798Z" fill="#fee8de" stroke="#fee8de"></path><path d="M60.015104645863175,-50.24548622081056L94.45236823521554,43.71533486060798L152.3347183293663,-64.20166335767135Z" fill="#fee8df" stroke="#fee8df"></path><path d="M152.3347183293663,-64.20166335767135L94.45236823521554,43.71533486060798L185.0910913408734,43.64366983063519Z" fill="#fee4d8" stroke="#fee4d8"></path><path d="M152.3347183293663,-64.20166335767135L185.0910913408734,43.64366983063519L227.89704480674118,-14.493281175382435Z" fill="#fee0d5" stroke="#fee0d5"></path><path d="M152.3347183293663,-64.20166335767135L227.89704480674118,-14.493281175382435L249.48888053419068,-14.880422016140074Z" fill="#feded2" stroke="#feded2"></path><path d="M152.3347183293663,-64.20166335767135L249.48888053419068,-14.880422016140074L368.2888736645691,-46.120700559113175Z" fill="#fedacc" stroke="#fedacc"></path><path d="M152.3347183293663,-64.20166335767135L368.2888736645691,-46.120700559113175L528.9925138070248,-63.93131526885554Z" fill="#fecfc1" stroke="#fecfc1"></path><path d="M227.89704480674118,-14.493281175382435L185.0910913408734,43.64366983063519L290.3730551758781,26.864708324428648Z" fill="#fed9ca" stroke="#fed9ca"></path><path d="M227.89704480674118,-14.493281175382435L290.3730551758781,26.864708324428648L249.48888053419068,-14.880422016140074Z" fill="#fedacc" stroke="#fedacc"></path><path d="M249.48888053419068,-14.880422016140074L290.3730551758781,26.864708324428648L368.2888736645691,-46.120700559113175Z" fill="#fed5c6" stroke="#fed5c6"></path><path d="M368.2888736645691,-46.120700559113175L290.3730551758781,26.864708324428648L374.34976526303217,26.470550268422812Z" fill="#fed0c1" stroke="#fed0c1"></path><path d="M368.2888736645691,-46.120700559113175L374.34976526303217,26.470550268422812L456.3051773305051,-14.720577616244555Z" fill="#fecaba" stroke="#fecaba"></path><path d="M368.2888736645691,-46.120700559113175L456.3051773305051,-14.720577616244555L528.9925138070248,-63.93131526885554Z" fill="#fdc3b4" stroke="#fdc3b4"></path><path d="M456.3051773305051,-14.720577616244555L374.34976526303217,26.470550268422812L463.4378219093196,62.21215136582032Z" fill="#fec2b0" stroke="#fec2b0"></path><path d="M456.3051773305051,-14.720577616244555L463.4378219093196,62.21215136582032L546.2343572196551,69.43651533685625Z" fill="#fdb9a5" stroke="#fdb9a5"></path><path d="M456.3051773305051,-14.720577616244555L546.2343572196551,69.43651533685625L589.3601821968332,-11.939344292040914Z" fill="#fdb8a6" stroke="#fdb8a6"></path><path d="M456.3051773305051,-14.720577616244555L589.3601821968332,-11.939344292040914L528.9925138070248,-63.93131526885554Z" fill="#fdbbab" stroke="#fdbbab"></path><path d="M528.9925138070248,-63.93131526885554L589.3601821968332,-11.939344292040914L685.4912127717398,-62.07703544059768Z" fill="#fcb2a3" stroke="#fcb2a3"></path><path d="M589.3601821968332,-11.939344292040914L546.2343572196551,69.43651533685625L624.53210093081,40.28606572654098Z" fill="#fdaf9c" stroke="#fdaf9c"></path><path d="M589.3601821968332,-11.939344292040914L624.53210093081,40.28606572654098L685.4912127717398,-62.07703544059768Z" fill="#faafa1" stroke="#faafa1"></path><path d="M685.4912127717398,-62.07703544059768L624.53210093081,40.28606572654098L657.8167408611625,57.3575217789039Z" fill="#f9aa9d" stroke="#f9aa9d"></path><path d="M685.4912127717398,-62.07703544059768L657.8167408611625,57.3575217789039L755.7058253698051,44.04847719240934Z" fill="#f7a69a" stroke="#f7a69a"></path><path d="M685.4912127717398,-62.07703544059768L755.7058253698051,44.04847719240934L751.0584737174213,-58.327598080504686Z" fill="#f5a49b" stroke="#f5a49b"></path><path d="M685.4912127717398,-62.07703544059768L751.0584737174213,-58.327598080504686L1296.7808744241484,-52.37659706734121Z" fill="#ea9491" stroke="#ea9491"></path><path d="M751.0584737174213,-58.327598080504686L755.7058253698051,44.04847719240934L823.572386293672,-6.628247471526265Z" fill="#f39f98" stroke="#f39f98"></path><path d="M751.0584737174213,-58.327598080504686L823.572386293672,-6.628247471526265L945.7315090019256,-30.274444718379527Z" fill="#f09994" stroke="#f09994"></path><path d="M751.0584737174213,-58.327598080504686L945.7315090019256,-30.274444718379527L1125.556683044415,-47.00907949125394Z" fill="#e79290" stroke="#e79290"></path><path d="M751.0584737174213,-58.327598080504686L1125.556683044415,-47.00907949125394L1296.7808744241484,-52.37659706734121Z" fill="#dc8c8d" stroke="#dc8c8d"></path><path d="M823.572386293672,-6.628247471526265L755.7058253698051,44.04847719240934L830.5298291216604,27.71059051156044Z" fill="#f29991" stroke="#f29991"></path><path d="M823.572386293672,-6.628247471526265L830.5298291216604,27.71059051156044L916.8109452165663,6.571015818044543Z" fill="#ef9591" stroke="#ef9591"></path><path d="M823.572386293672,-6.628247471526265L916.8109452165663,6.571015818044543L945.7315090019256,-30.274444718379527Z" fill="#ec9592" stroke="#ec9592"></path><path d="M945.7315090019256,-30.274444718379527L916.8109452165663,6.571015818044543L995.3159116441384,-22.027950109913945Z" fill="#e69290" stroke="#e69290"></path><path d="M945.7315090019256,-30.274444718379527L995.3159116441384,-22.027950109913945L1103.2453850330785,-41.70285418629646Z" fill="#e08e8e" stroke="#e08e8e"></path><path d="M945.7315090019256,-30.274444718379527L1103.2453850330785,-41.70285418629646L1125.556683044415,-47.00907949125394Z" fill="#dc8c8d" stroke="#dc8c8d"></path><path d="M995.3159116441384,-22.027950109913945L916.8109452165663,6.571015818044543L1034.8446609126404,25.858036265708506Z" fill="#e3908e" stroke="#e3908e"></path><path d="M995.3159116441384,-22.027950109913945L1034.8446609126404,25.858036265708506L1103.2453850330785,-41.70285418629646Z" fill="#dd8d8d" stroke="#dd8d8d"></path><path d="M1103.2453850330785,-41.70285418629646L1034.8446609126404,25.858036265708506L1106.0097723011859,20.589510949794203Z" fill="#d98b8c" stroke="#d98b8c"></path><path d="M1103.2453850330785,-41.70285418629646L1106.0097723011859,20.589510949794203L1125.556683044415,-47.00907949125394Z" fill="#d6898b" stroke="#d6898b"></path><path d="M1125.556683044415,-47.00907949125394L1106.0097723011859,20.589510949794203L1172.400042193476,34.97438988182694Z" fill="#d4888a" stroke="#d4888a"></path><path d="M1125.556683044415,-47.00907949125394L1172.400042193476,34.97438988182694L1245.689305299893,-31.086871442385018Z" fill="#cf8689" stroke="#cf8689"></path><path d="M1125.556683044415,-47.00907949125394L1245.689305299893,-31.086871442385018L1296.7808744241484,-52.37659706734121Z" fill="#cb8488" stroke="#cb8488"></path><path d="M1245.689305299893,-31.086871442385018L1172.400042193476,34.97438988182694L1243.0633036256768,5.5168968928046525Z" fill="#cb8387" stroke="#cb8387"></path><path d="M1245.689305299893,-31.086871442385018L1243.0633036256768,5.5168968928046525L1296.7808744241484,-52.37659706734121Z" fill="#c78287" stroke="#c78287"></path><path d="M1296.7808744241484,-52.37659706734121L1243.0633036256768,5.5168968928046525L1342.6475216937251,33.29350391635671Z" fill="#c48086" stroke="#c48086"></path><path d="M1296.7808744241484,-52.37659706734121L1342.6475216937251,33.29350391635671L1402.5283199804835,-35.36794598214328Z" fill="#bf8084" stroke="#bf8084"></path><path d="M1296.7808744241484,-52.37659706734121L1402.5283199804835,-35.36794598214328L1489.0792319341563,-28.757284360472113Z" fill="#ba8083" stroke="#ba8083"></path><path d="M1402.5283199804835,-35.36794598214328L1342.6475216937251,33.29350391635671L1434.625295996666,22.186190951615572Z" fill="#ba7f81" stroke="#ba7f81"></path><path d="M1402.5283199804835,-35.36794598214328L1434.625295996666,22.186190951615572L1489.0792319341563,-28.757284360472113Z" fill="#b68082" stroke="#b68082"></path><path d="M1489.0792319341563,-28.757284360472113L1434.625295996666,22.186190951615572L1483.7190952990204,15.800577001646161Z" fill="#b37f80" stroke="#b37f80"></path><path d="M1489.0792319341563,-28.757284360472113L1483.7190952990204,15.800577001646161L1505.5065746838227,211.07298414921388Z" fill="#b1766f" stroke="#b1766f"></path><path d="M-54.23678614664823,21.874643759801984L-72.9660401144065,249.49028303846717L-51.04624226689339,151.27191086299717Z" fill="#ffe2cf" stroke="#ffe2cf"></path><path d="M-54.23678614664823,21.874643759801984L-51.04624226689339,151.27191086299717L55.49384887330234,92.27700492599979Z" fill="#ffe6d7" stroke="#ffe6d7"></path><path d="M-54.23678614664823,21.874643759801984L55.49384887330234,92.27700492599979L70.93560202978551,65.45421922346577Z" fill="#ffe7d9" stroke="#ffe7d9"></path><path d="M70.93560202978551,65.45421922346577L55.49384887330234,92.27700492599979L123.44528258312494,136.51355741079897Z" fill="#fedbc8" stroke="#fedbc8"></path><path d="M70.93560202978551,65.45421922346577L123.44528258312494,136.51355741079897L94.45236823521554,43.71533486060798Z" fill="#feddcb" stroke="#feddcb"></path><path d="M94.45236823521554,43.71533486060798L123.44528258312494,136.51355741079897L185.0910913408734,43.64366983063519Z" fill="#fedac8" stroke="#fedac8"></path><path d="M185.0910913408734,43.64366983063519L123.44528258312494,136.51355741079897L183.8924968894571,138.38709758827463Z" fill="#fed2bc" stroke="#fed2bc"></path><path d="M185.0910913408734,43.64366983063519L183.8924968894571,138.38709758827463L262.43278465699404,147.7730091754347Z" fill="#fecdb5" stroke="#fecdb5"></path><path d="M185.0910913408734,43.64366983063519L262.43278465699404,147.7730091754347L290.3730551758781,26.864708324428648Z" fill="#fed0bb" stroke="#fed0bb"></path><path d="M290.3730551758781,26.864708324428648L262.43278465699404,147.7730091754347L343.7899457500316,87.83025283133611Z" fill="#fec8b0" stroke="#fec8b0"></path><path d="M290.3730551758781,26.864708324428648L343.7899457500316,87.83025283133611L374.34976526303217,26.470550268422812Z" fill="#fecab6" stroke="#fecab6"></path><path d="M374.34976526303217,26.470550268422812L343.7899457500316,87.83025283133611L463.4378219093196,62.21215136582032Z" fill="#fec1ac" stroke="#fec1ac"></path><path d="M463.4378219093196,62.21215136582032L343.7899457500316,87.83025283133611L452.5467466702685,125.3367741080001Z" fill="#feb9a0" stroke="#feb9a0"></path><path d="M463.4378219093196,62.21215136582032L452.5467466702685,125.3367741080001L533.5345882107504,129.63930782862008Z" fill="#fdaf94" stroke="#fdaf94"></path><path d="M463.4378219093196,62.21215136582032L533.5345882107504,129.63930782862008L546.2343572196551,69.43651533685625Z" fill="#fdaf95" stroke="#fdaf95"></path><path d="M546.2343572196551,69.43651533685625L533.5345882107504,129.63930782862008L620.9836908243597,97.06711587728932Z" fill="#fda78c" stroke="#fda78c"></path><path d="M546.2343572196551,69.43651533685625L620.9836908243597,97.06711587728932L624.53210093081,40.28606572654098Z" fill="#fca891" stroke="#fca891"></path><path d="M624.53210093081,40.28606572654098L620.9836908243597,97.06711587728932L657.8167408611625,57.3575217789039Z" fill="#faa590" stroke="#faa590"></path><path d="M657.8167408611625,57.3575217789039L620.9836908243597,97.06711587728932L651.724582395982,102.0957042532973Z" fill="#faa18a" stroke="#faa18a"></path><path d="M657.8167408611625,57.3575217789039L651.724582395982,102.0957042532973L767.1786362165585,103.50648948689923Z" fill="#f79b86" stroke="#f79b86"></path><path d="M657.8167408611625,57.3575217789039L767.1786362165585,103.50648948689923L755.7058253698051,44.04847719240934Z" fill="#f69a89" stroke="#f69a89"></path><path d="M755.7058253698051,44.04847719240934L767.1786362165585,103.50648948689923L830.5298291216604,27.71059051156044Z" fill="#f39688" stroke="#f39688"></path><path d="M830.5298291216604,27.71059051156044L767.1786362165585,103.50648948689923L809.9058333062567,115.29938126681373Z" fill="#f29081" stroke="#f29081"></path><path d="M830.5298291216604,27.71059051156044L809.9058333062567,115.29938126681373L914.1031943936832,101.3941715261899Z" fill="#ef8b7e" stroke="#ef8b7e"></path><path d="M830.5298291216604,27.71059051156044L914.1031943936832,101.3941715261899L916.8109452165663,6.571015818044543Z" fill="#ec8e86" stroke="#ec8e86"></path><path d="M916.8109452165663,6.571015818044543L914.1031943936832,101.3941715261899L1000.3095790767111,95.17720413161442Z" fill="#e7887e" stroke="#e7887e"></path><path d="M916.8109452165663,6.571015818044543L1000.3095790767111,95.17720413161442L1034.8446609126404,25.858036265708506Z" fill="#e38a84" stroke="#e38a84"></path><path d="M1034.8446609126404,25.858036265708506L1000.3095790767111,95.17720413161442L1131.7307255743071,94.51416144613177Z" fill="#dc817a" stroke="#dc817a"></path><path d="M1034.8446609126404,25.858036265708506L1131.7307255743071,94.51416144613177L1106.0097723011859,20.589510949794203Z" fill="#d88380" stroke="#d88380"></path><path d="M1106.0097723011859,20.589510949794203L1131.7307255743071,94.51416144613177L1172.400042193476,34.97438988182694Z" fill="#d4817e" stroke="#d4817e"></path><path d="M1172.400042193476,34.97438988182694L1131.7307255743071,94.51416144613177L1240.7613338320516,89.23397242790088Z" fill="#cf7b76" stroke="#cf7b76"></path><path d="M1172.400042193476,34.97438988182694L1240.7613338320516,89.23397242790088L1243.0633036256768,5.5168968928046525Z" fill="#cc7d7d" stroke="#cc7d7d"></path><path d="M1243.0633036256768,5.5168968928046525L1240.7613338320516,89.23397242790088L1342.6475216937251,33.29350391635671Z" fill="#c67a7c" stroke="#c67a7c"></path><path d="M1342.6475216937251,33.29350391635671L1240.7613338320516,89.23397242790088L1293.4967813268304,139.7250297712162Z" fill="#c4726f" stroke="#c4726f"></path><path d="M1342.6475216937251,33.29350391635671L1293.4967813268304,139.7250297712162L1405.1747255795635,108.85019910754636Z" fill="#bf716c" stroke="#bf716c"></path><path d="M1342.6475216937251,33.29350391635671L1405.1747255795635,108.85019910754636L1434.625295996666,22.186190951615572Z" fill="#ba7775" stroke="#ba7775"></path><path d="M1434.625295996666,22.186190951615572L1405.1747255795635,108.85019910754636L1446.247633434832,138.2887938595377Z" fill="#b7726b" stroke="#b7726b"></path><path d="M1434.625295996666,22.186190951615572L1446.247633434832,138.2887938595377L1483.7190952990204,15.800577001646161Z" fill="#b47772" stroke="#b47772"></path><path d="M1483.7190952990204,15.800577001646161L1446.247633434832,138.2887938595377L1505.5065746838227,211.07298414921388Z" fill="#b26d61" stroke="#b26d61"></path><path d="M-51.04624226689339,151.27191086299717L-72.9660401144065,249.49028303846717L-38.111899548675865,192.5803817738779Z" fill="#ffd4bf" stroke="#ffd4bf"></path><path d="M-51.04624226689339,151.27191086299717L-38.111899548675865,192.5803817738779L55.49384887330234,92.27700492599979Z" fill="#ffddc7" stroke="#ffddc7"></path><path d="M55.49384887330234,92.27700492599979L-38.111899548675865,192.5803817738779L51.03408821858466,225.21720056422055Z" fill="#ffd5bc" stroke="#ffd5bc"></path><path d="M55.49384887330234,92.27700492599979L51.03408821858466,225.21720056422055L123.44528258312494,136.51355741079897Z" fill="#fed3bb" stroke="#fed3bb"></path><path d="M123.44528258312494,136.51355741079897L51.03408821858466,225.21720056422055L115.49861640902236,199.81277101673186Z" fill="#fec9af" stroke="#fec9af"></path><path d="M123.44528258312494,136.51355741079897L115.49861640902236,199.81277101673186L183.8924968894571,138.38709758827463Z" fill="#feccb1" stroke="#feccb1"></path><path d="M183.8924968894571,138.38709758827463L115.49861640902236,199.81277101673186L203.39422817109153,197.34351156977937Z" fill="#fec4a8" stroke="#fec4a8"></path><path d="M183.8924968894571,138.38709758827463L203.39422817109153,197.34351156977937L262.43278465699404,147.7730091754347Z" fill="#fec4a7" stroke="#fec4a7"></path><path d="M262.43278465699404,147.7730091754347L203.39422817109153,197.34351156977937L310.74282391928136,216.58604725729674Z" fill="#feba9a" stroke="#feba9a"></path><path d="M262.43278465699404,147.7730091754347L310.74282391928136,216.58604725729674L348.7047770177014,175.02722480334342Z" fill="#feb696" stroke="#feb696"></path><path d="M262.43278465699404,147.7730091754347L348.7047770177014,175.02722480334342L343.7899457500316,87.83025283133611Z" fill="#febea1" stroke="#febea1"></path><path d="M343.7899457500316,87.83025283133611L348.7047770177014,175.02722480334342L452.5467466702685,125.3367741080001Z" fill="#feb89b" stroke="#feb89b"></path><path d="M452.5467466702685,125.3367741080001L348.7047770177014,175.02722480334342L433.9748768485151,213.62145251594484Z" fill="#feac8c" stroke="#feac8c"></path><path d="M452.5467466702685,125.3367741080001L433.9748768485151,213.62145251594484L497.4025042075664,208.22018382837996Z" fill="#fda382" stroke="#fda382"></path><path d="M452.5467466702685,125.3367741080001L497.4025042075664,208.22018382837996L533.5345882107504,129.63930782862008Z" fill="#fda686" stroke="#fda686"></path><path d="M533.5345882107504,129.63930782862008L497.4025042075664,208.22018382837996L571.9265564577654,169.62133806897327Z" fill="#fd9e7d" stroke="#fd9e7d"></path><path d="M533.5345882107504,129.63930782862008L571.9265564577654,169.62133806897327L620.9836908243597,97.06711587728932Z" fill="#fda082" stroke="#fda082"></path><path d="M620.9836908243597,97.06711587728932L571.9265564577654,169.62133806897327L660.3705028328113,185.55542656918988Z" fill="#fb997b" stroke="#fb997b"></path><path d="M620.9836908243597,97.06711587728932L660.3705028328113,185.55542656918988L651.724582395982,102.0957042532973Z" fill="#fa9a7f" stroke="#fa9a7f"></path><path d="M651.724582395982,102.0957042532973L660.3705028328113,185.55542656918988L767.1786362165585,103.50648948689923Z" fill="#f7947b" stroke="#f7947b"></path><path d="M767.1786362165585,103.50648948689923L660.3705028328113,185.55542656918988L777.3209704179317,234.26273539895192Z" fill="#f5876d" stroke="#f5876d"></path><path d="M767.1786362165585,103.50648948689923L777.3209704179317,234.26273539895192L809.9058333062567,115.29938126681373Z" fill="#f38770" stroke="#f38770"></path><path d="M809.9058333062567,115.29938126681373L777.3209704179317,234.26273539895192L842.8776057064533,229.91424992214888Z" fill="#f17a63" stroke="#f17a63"></path><path d="M809.9058333062567,115.29938126681373L842.8776057064533,229.91424992214888L912.4180949665606,192.1624184353277Z" fill="#ef7964" stroke="#ef7964"></path><path d="M809.9058333062567,115.29938126681373L912.4180949665606,192.1624184353277L914.1031943936832,101.3941715261899Z" fill="#ed806e" stroke="#ed806e"></path><path d="M914.1031943936832,101.3941715261899L912.4180949665606,192.1624184353277L1000.3095790767111,95.17720413161442Z" fill="#e77e6e" stroke="#e77e6e"></path><path d="M1000.3095790767111,95.17720413161442L912.4180949665606,192.1624184353277L1006.985310765449,223.61502163344994Z" fill="#e47563" stroke="#e47563"></path><path d="M1000.3095790767111,95.17720413161442L1006.985310765449,223.61502163344994L1057.864916336257,192.1573165943846Z" fill="#df7261" stroke="#df7261"></path><path d="M1000.3095790767111,95.17720413161442L1057.864916336257,192.1573165943846L1099.2016779165715,151.9848203798756Z" fill="#dc7667" stroke="#dc7667"></path><path d="M1000.3095790767111,95.17720413161442L1099.2016779165715,151.9848203798756L1131.7307255743071,94.51416144613177Z" fill="#da7a6e" stroke="#da7a6e"></path><path d="M1099.2016779165715,151.9848203798756L1057.864916336257,192.1573165943846L1135.339097843971,224.09720735624433Z" fill="#d86a5a" stroke="#d86a5a"></path><path d="M1099.2016779165715,151.9848203798756L1135.339097843971,224.09720735624433L1131.7307255743071,94.51416144613177Z" fill="#d57062" stroke="#d57062"></path><path d="M1131.7307255743071,94.51416144613177L1135.339097843971,224.09720735624433L1240.7613338320516,89.23397242790088Z" fill="#d17166" stroke="#d17166"></path><path d="M1240.7613338320516,89.23397242790088L1135.339097843971,224.09720735624433L1261.5105590689927,213.30874507548288Z" fill="#cc675a" stroke="#cc675a"></path><path d="M1240.7613338320516,89.23397242790088L1261.5105590689927,213.30874507548288L1293.4967813268304,139.7250297712162Z" fill="#c76b60" stroke="#c76b60"></path><path d="M1293.4967813268304,139.7250297712162L1261.5105590689927,213.30874507548288L1345.9199680713937,228.75973087036982Z" fill="#c45e52" stroke="#c45e52"></path><path d="M1293.4967813268304,139.7250297712162L1345.9199680713937,228.75973087036982L1370.2418067562394,195.98310532048345Z" fill="#c05f53" stroke="#c05f53"></path><path d="M1293.4967813268304,139.7250297712162L1370.2418067562394,195.98310532048345L1405.1747255795635,108.85019910754636Z" fill="#be695d" stroke="#be695d"></path><path d="M1405.1747255795635,108.85019910754636L1370.2418067562394,195.98310532048345L1446.247633434832,138.2887938595377Z" fill="#b9695c" stroke="#b9695c"></path><path d="M1446.247633434832,138.2887938595377L1370.2418067562394,195.98310532048345L1466.640483578667,250.0143384351395Z" fill="#b75e4f" stroke="#b75e4f"></path><path d="M1446.247633434832,138.2887938595377L1466.640483578667,250.0143384351395L1505.5065746838227,211.07298414921388Z" fill="#b35c4c" stroke="#b35c4c"></path><path d="M-38.111899548675865,192.5803817738779L-72.9660401144065,249.49028303846717L51.03408821858466,225.21720056422055Z" fill="#ffcbb4" stroke="#ffcbb4"></path><path d="M51.03408821858466,225.21720056422055L-72.9660401144065,249.49028303846717L-13.024391212966293,340.14480964047834Z" fill="#ffbda5" stroke="#ffbda5"></path><path d="M51.03408821858466,225.21720056422055L-13.024391212966293,340.14480964047834L68.33327929489315,286.9571292027831Z" fill="#ffb59c" stroke="#ffb59c"></path><path d="M51.03408821858466,225.21720056422055L68.33327929489315,286.9571292027831L136.24162057880312,257.8664153092541Z" fill="#feb89d" stroke="#feb89d"></path><path d="M51.03408821858466,225.21720056422055L136.24162057880312,257.8664153092541L115.49861640902236,199.81277101673186Z" fill="#febea3" stroke="#febea3"></path><path d="M115.49861640902236,199.81277101673186L136.24162057880312,257.8664153092541L203.39422817109153,197.34351156977937Z" fill="#febb9f" stroke="#febb9f"></path><path d="M203.39422817109153,197.34351156977937L136.24162057880312,257.8664153092541L209.61893138242885,270.20298429531977Z" fill="#feb295" stroke="#feb295"></path><path d="M203.39422817109153,197.34351156977937L209.61893138242885,270.20298429531977L310.74282391928136,216.58604725729674Z" fill="#feb092" stroke="#feb092"></path><path d="M310.74282391928136,216.58604725729674L209.61893138242885,270.20298429531977L246.8566759652458,293.73720296891406Z" fill="#fea787" stroke="#fea787"></path><path d="M310.74282391928136,216.58604725729674L246.8566759652458,293.73720296891406L357.2675926913507,257.8726158570498Z" fill="#fea382" stroke="#fea382"></path><path d="M310.74282391928136,216.58604725729674L357.2675926913507,257.8726158570498L348.7047770177014,175.02722480334342Z" fill="#fea988" stroke="#fea988"></path><path d="M348.7047770177014,175.02722480334342L357.2675926913507,257.8726158570498L433.9748768485151,213.62145251594484Z" fill="#fea483" stroke="#fea483"></path><path d="M433.9748768485151,213.62145251594484L357.2675926913507,257.8726158570498L421.4343994227238,247.45483780512586Z" fill="#fe9b7a" stroke="#fe9b7a"></path><path d="M433.9748768485151,213.62145251594484L421.4343994227238,247.45483780512586L497.4025042075664,208.22018382837996Z" fill="#fd9a79" stroke="#fd9a79"></path><path d="M497.4025042075664,208.22018382837996L421.4343994227238,247.45483780512586L541.1871476261877,263.17941308021545Z" fill="#fd9170" stroke="#fd9170"></path><path d="M497.4025042075664,208.22018382837996L541.1871476261877,263.17941308021545L571.9265564577654,169.62133806897327Z" fill="#fd9271" stroke="#fd9271"></path><path d="M571.9265564577654,169.62133806897327L541.1871476261877,263.17941308021545L660.3705028328113,185.55542656918988Z" fill="#fc8e6d" stroke="#fc8e6d"></path><path d="M660.3705028328113,185.55542656918988L541.1871476261877,263.17941308021545L621.4039940224029,309.65164192020893Z" fill="#fc805f" stroke="#fc805f"></path><path d="M660.3705028328113,185.55542656918988L621.4039940224029,309.65164192020893L706.2361408397555,280.5468665412627Z" fill="#f9795a" stroke="#f9795a"></path><path d="M660.3705028328113,185.55542656918988L706.2361408397555,280.5468665412627L740.6032888963819,259.0299833845347Z" fill="#f7795c" stroke="#f7795c"></path><path d="M660.3705028328113,185.55542656918988L740.6032888963819,259.0299833845347L777.3209704179317,234.26273539895192Z" fill="#f67a5f" stroke="#f67a5f"></path><path d="M777.3209704179317,234.26273539895192L740.6032888963819,259.0299833845347L833.9425847469829,249.6896309638396Z" fill="#f36f56" stroke="#f36f56"></path><path d="M777.3209704179317,234.26273539895192L833.9425847469829,249.6896309638396L842.8776057064533,229.91424992214888Z" fill="#f16e56" stroke="#f16e56"></path><path d="M842.8776057064533,229.91424992214888L833.9425847469829,249.6896309638396L895.6398704624735,271.8152551352978Z" fill="#ef6650" stroke="#ef6650"></path><path d="M842.8776057064533,229.91424992214888L895.6398704624735,271.8152551352978L912.4180949665606,192.1624184353277Z" fill="#ed6a55" stroke="#ed6a55"></path><path d="M912.4180949665606,192.1624184353277L895.6398704624735,271.8152551352978L1006.985310765449,223.61502163344994Z" fill="#e76754" stroke="#e76754"></path><path d="M1006.985310765449,223.61502163344994L895.6398704624735,271.8152551352978L1029.0634568268433,273.26825954020023Z" fill="#e45e4b" stroke="#e45e4b"></path><path d="M1006.985310765449,223.61502163344994L1029.0634568268433,273.26825954020023L1057.864916336257,192.1573165943846Z" fill="#de6351" stroke="#de6351"></path><path d="M1057.864916336257,192.1573165943846L1029.0634568268433,273.26825954020023L1067.9901204700582,281.2047557043843Z" fill="#dc5c4b" stroke="#dc5c4b"></path><path d="M1057.864916336257,192.1573165943846L1067.9901204700582,281.2047557043843L1135.339097843971,224.09720735624433Z" fill="#d95f4e" stroke="#d95f4e"></path><path d="M1135.339097843971,224.09720735624433L1067.9901204700582,281.2047557043843L1182.8241502330638,283.6596028646454Z" fill="#d55445" stroke="#d55445"></path><path d="M1135.339097843971,224.09720735624433L1182.8241502330638,283.6596028646454L1261.5105590689927,213.30874507548288Z" fill="#ce5749" stroke="#ce5749"></path><path d="M1261.5105590689927,213.30874507548288L1182.8241502330638,283.6596028646454L1273.6590621131472,311.5861768787727Z" fill="#ca4d40" stroke="#ca4d40"></path><path d="M1261.5105590689927,213.30874507548288L1273.6590621131472,311.5861768787727L1345.9199680713937,228.75973087036982Z" fill="#c44f43" stroke="#c44f43"></path><path d="M1345.9199680713937,228.75973087036982L1273.6590621131472,311.5861768787727L1346.1533159157261,298.70770710287616Z" fill="#c1483a" stroke="#c1483a"></path><path d="M1345.9199680713937,228.75973087036982L1346.1533159157261,298.70770710287616L1369.5170841156505,270.20045777317137Z" fill="#be4b3d" stroke="#be4b3d"></path><path d="M1345.9199680713937,228.75973087036982L1369.5170841156505,270.20045777317137L1370.2418067562394,195.98310532048345Z" fill="#bd5447" stroke="#bd5447"></path><path d="M1370.2418067562394,195.98310532048345L1369.5170841156505,270.20045777317137L1466.640483578667,250.0143384351395Z" fill="#b95243" stroke="#b95243"></path><path d="M1505.5065746838227,211.07298414921388L1466.640483578667,250.0143384351395L1453.5596154350787,341.50733327958733Z" fill="#b24b39" stroke="#b24b39"></path><path d="M1505.5065746838227,211.07298414921388L1453.5596154350787,341.50733327958733L1491.3478794367984,456.3313174038194Z" fill="#b13929" stroke="#b13929"></path><path d="M1505.5065746838227,211.07298414921388L1491.3478794367984,456.3313174038194L1492.481622574851,622.9453469393775Z" fill="#b0231c" stroke="#b0231c"></path><path d="M1505.5065746838227,211.07298414921388L1492.481622574851,622.9453469393775L1507.3483540629968,849.0605195611715Z" fill="#9e1514" stroke="#9e1514"></path><path d="M-72.9660401144065,249.49028303846717L-48.18082473706454,710.806718938984L-31.42569809453562,542.6466750376858Z" fill="#f89089" stroke="#f89089"></path><path d="M-72.9660401144065,249.49028303846717L-31.42569809453562,542.6466750376858L-6.545891216956079,428.01622149301693Z" fill="#ff9f90" stroke="#ff9f90"></path><path d="M-72.9660401144065,249.49028303846717L-6.545891216956079,428.01622149301693L-13.024391212966293,340.14480964047834Z" fill="#ffae99" stroke="#ffae99"></path><path d="M68.33327929489315,286.9571292027831L-13.024391212966293,340.14480964047834L53.31872273469344,340.04617527127266Z" fill="#ffac93" stroke="#ffac93"></path><path d="M68.33327929489315,286.9571292027831L53.31872273469344,340.04617527127266L134.36766862869263,326.3700379966758Z" fill="#fea88d" stroke="#fea88d"></path><path d="M68.33327929489315,286.9571292027831L134.36766862869263,326.3700379966758L136.24162057880312,257.8664153092541Z" fill="#feac91" stroke="#feac91"></path><path d="M136.24162057880312,257.8664153092541L134.36766862869263,326.3700379966758L209.61893138242885,270.20298429531977Z" fill="#fea98c" stroke="#fea98c"></path><path d="M209.61893138242885,270.20298429531977L134.36766862869263,326.3700379966758L210.41734465165064,386.21457955101505Z" fill="#fe9d80" stroke="#fe9d80"></path><path d="M209.61893138242885,270.20298429531977L210.41734465165064,386.21457955101505L246.8566759652458,293.73720296891406Z" fill="#fe9c7c" stroke="#fe9c7c"></path><path d="M246.8566759652458,293.73720296891406L210.41734465165064,386.21457955101505L285.31224391655996,348.4392402227968Z" fill="#fe9375" stroke="#fe9375"></path><path d="M246.8566759652458,293.73720296891406L285.31224391655996,348.4392402227968L357.2675926913507,257.8726158570498Z" fill="#fe9877" stroke="#fe9877"></path><path d="M357.2675926913507,257.8726158570498L285.31224391655996,348.4392402227968L371.98381345020607,375.27112044394016Z" fill="#fe8d6d" stroke="#fe8d6d"></path><path d="M357.2675926913507,257.8726158570498L371.98381345020607,375.27112044394016L407.2233418049291,355.2879178361036Z" fill="#fe8867" stroke="#fe8867"></path><path d="M357.2675926913507,257.8726158570498L407.2233418049291,355.2879178361036L421.4343994227238,247.45483780512586Z" fill="#fe906e" stroke="#fe906e"></path><path d="M421.4343994227238,247.45483780512586L407.2233418049291,355.2879178361036L508.661130242981,368.86360043426976Z" fill="#fd8160" stroke="#fd8160"></path><path d="M421.4343994227238,247.45483780512586L508.661130242981,368.86360043426976L541.1871476261877,263.17941308021545Z" fill="#fd8361" stroke="#fd8361"></path><path d="M541.1871476261877,263.17941308021545L508.661130242981,368.86360043426976L584.2197372717783,348.17850494291633Z" fill="#fd7453" stroke="#fd7453"></path><path d="M541.1871476261877,263.17941308021545L584.2197372717783,348.17850494291633L621.4039940224029,309.65164192020893Z" fill="#fd7552" stroke="#fd7552"></path><path d="M621.4039940224029,309.65164192020893L584.2197372717783,348.17850494291633L683.7911818805151,334.67271231114864Z" fill="#fb6a4b" stroke="#fb6a4b"></path><path d="M621.4039940224029,309.65164192020893L683.7911818805151,334.67271231114864L706.2361408397555,280.5468665412627Z" fill="#f86b4c" stroke="#f86b4c"></path><path d="M706.2361408397555,280.5468665412627L683.7911818805151,334.67271231114864L788.3152476791292,386.60178204765543Z" fill="#f65f45" stroke="#f65f45"></path><path d="M706.2361408397555,280.5468665412627L788.3152476791292,386.60178204765543L740.6032888963819,259.0299833845347Z" fill="#f56348" stroke="#f56348"></path><path d="M740.6032888963819,259.0299833845347L788.3152476791292,386.60178204765543L833.9425847469829,249.6896309638396Z" fill="#f36148" stroke="#f36148"></path><path d="M833.9425847469829,249.6896309638396L788.3152476791292,386.60178204765543L865.2165469434112,340.32198193483055Z" fill="#f1563f" stroke="#f1563f"></path><path d="M833.9425847469829,249.6896309638396L865.2165469434112,340.32198193483055L895.6398704624735,271.8152551352978Z" fill="#ef5c46" stroke="#ef5c46"></path><path d="M895.6398704624735,271.8152551352978L865.2165469434112,340.32198193483055L933.2442197413184,373.85848520789295Z" fill="#eb503c" stroke="#eb503c"></path><path d="M895.6398704624735,271.8152551352978L933.2442197413184,373.85848520789295L975.6974441814236,368.0848480248824Z" fill="#e84c3a" stroke="#e84c3a"></path><path d="M895.6398704624735,271.8152551352978L975.6974441814236,368.0848480248824L1029.0634568268433,273.26825954020023Z" fill="#e5523e" stroke="#e5523e"></path><path d="M1029.0634568268433,273.26825954020023L975.6974441814236,368.0848480248824L1067.9901204700582,281.2047557043843Z" fill="#df4e3c" stroke="#df4e3c"></path><path d="M1067.9901204700582,281.2047557043843L975.6974441814236,368.0848480248824L1112.224414863158,360.5887623084709Z" fill="#dc4636" stroke="#dc4636"></path><path d="M1067.9901204700582,281.2047557043843L1112.224414863158,360.5887623084709L1182.8241502330638,283.6596028646454Z" fill="#d54939" stroke="#d54939"></path><path d="M1182.8241502330638,283.6596028646454L1112.224414863158,360.5887623084709L1152.9793327231891,390.28067534789443Z" fill="#d33f32" stroke="#d33f32"></path><path d="M1182.8241502330638,283.6596028646454L1152.9793327231891,390.28067534789443L1274.2181802308187,336.2675174069591Z" fill="#cd3e32" stroke="#cd3e32"></path><path d="M1182.8241502330638,283.6596028646454L1274.2181802308187,336.2675174069591L1273.6590621131472,311.5861768787727Z" fill="#c94235" stroke="#c94235"></path><path d="M1273.6590621131472,311.5861768787727L1274.2181802308187,336.2675174069591L1306.680325421039,348.2829850492999Z" fill="#c53b30" stroke="#c53b30"></path><path d="M1273.6590621131472,311.5861768787727L1306.680325421039,348.2829850492999L1346.1533159157261,298.70770710287616Z" fill="#c33d31" stroke="#c33d31"></path><path d="M1346.1533159157261,298.70770710287616L1306.680325421039,348.2829850492999L1371.2714484916069,407.1822177548893Z" fill="#c0362c" stroke="#c0362c"></path><path d="M1346.1533159157261,298.70770710287616L1371.2714484916069,407.1822177548893L1427.2082112845965,330.09149180026725Z" fill="#bc372b" stroke="#bc372b"></path><path d="M1346.1533159157261,298.70770710287616L1427.2082112845965,330.09149180026725L1369.5170841156505,270.20045777317137Z" fill="#bc4233" stroke="#bc4233"></path><path d="M1369.5170841156505,270.20045777317137L1427.2082112845965,330.09149180026725L1466.640483578667,250.0143384351395Z" fill="#b84736" stroke="#b84736"></path><path d="M1466.640483578667,250.0143384351395L1427.2082112845965,330.09149180026725L1453.5596154350787,341.50733327958733Z" fill="#b5402f" stroke="#b5402f"></path><path d="M-13.024391212966293,340.14480964047834L-6.545891216956079,428.01622149301693L53.31872273469344,340.04617527127266Z" fill="#ffa38f" stroke="#ffa38f"></path><path d="M53.31872273469344,340.04617527127266L-6.545891216956079,428.01622149301693L30.833264987450093,436.2592942244373Z" fill="#ff9a89" stroke="#ff9a89"></path><path d="M53.31872273469344,340.04617527127266L30.833264987450093,436.2592942244373L174.7206442593597,445.076672565192Z" fill="#fe9381" stroke="#fe9381"></path><path d="M53.31872273469344,340.04617527127266L174.7206442593597,445.076672565192L134.36766862869263,326.3700379966758Z" fill="#fe9882" stroke="#fe9882"></path><path d="M134.36766862869263,326.3700379966758L174.7206442593597,445.076672565192L210.41734465165064,386.21457955101505Z" fill="#fe9079" stroke="#fe9079"></path><path d="M210.41734465165064,386.21457955101505L174.7206442593597,445.076672565192L280.67626651143655,415.8587670349516Z" fill="#fe846f" stroke="#fe846f"></path><path d="M210.41734465165064,386.21457955101505L280.67626651143655,415.8587670349516L285.31224391655996,348.4392402227968Z" fill="#fe886e" stroke="#fe886e"></path><path d="M285.31224391655996,348.4392402227968L280.67626651143655,415.8587670349516L371.98381345020607,375.27112044394016Z" fill="#fe8368" stroke="#fe8368"></path><path d="M371.98381345020607,375.27112044394016L280.67626651143655,415.8587670349516L371.57756922766566,455.0487052160315Z" fill="#fe7760" stroke="#fe7760"></path><path d="M371.98381345020607,375.27112044394016L371.57756922766566,455.0487052160315L407.4346316419542,449.7247027908452Z" fill="#fe7059" stroke="#fe7059"></path><path d="M371.98381345020607,375.27112044394016L407.4346316419542,449.7247027908452L407.2233418049291,355.2879178361036Z" fill="#fe775c" stroke="#fe775c"></path><path d="M407.2233418049291,355.2879178361036L407.4346316419542,449.7247027908452L508.661130242981,368.86360043426976Z" fill="#fd7257" stroke="#fd7257"></path><path d="M508.661130242981,368.86360043426976L407.4346316419542,449.7247027908452L549.5436191186309,451.6950511629693Z" fill="#fd654d" stroke="#fd654d"></path><path d="M508.661130242981,368.86360043426976L549.5436191186309,451.6950511629693L584.2197372717783,348.17850494291633Z" fill="#fd654a" stroke="#fd654a"></path><path d="M584.2197372717783,348.17850494291633L549.5436191186309,451.6950511629693L606.9613869790919,459.6730901254341Z" fill="#fd5a42" stroke="#fd5a42"></path><path d="M584.2197372717783,348.17850494291633L606.9613869790919,459.6730901254341L648.1400774070062,452.67574440222234Z" fill="#fb5740" stroke="#fb5740"></path><path d="M584.2197372717783,348.17850494291633L648.1400774070062,452.67574440222234L683.7911818805151,334.67271231114864Z" fill="#fa5e44" stroke="#fa5e44"></path><path d="M683.7911818805151,334.67271231114864L648.1400774070062,452.67574440222234L747.0618892158382,406.24327786965296Z" fill="#f7543e" stroke="#f7543e"></path><path d="M683.7911818805151,334.67271231114864L747.0618892158382,406.24327786965296L788.3152476791292,386.60178204765543Z" fill="#f5543e" stroke="#f5543e"></path><path d="M788.3152476791292,386.60178204765543L747.0618892158382,406.24327786965296L830.2016961062327,445.2449464960955Z" fill="#f34636" stroke="#f34636"></path><path d="M788.3152476791292,386.60178204765543L830.2016961062327,445.2449464960955L865.2165469434112,340.32198193483055Z" fill="#f14737" stroke="#f14737"></path><path d="M865.2165469434112,340.32198193483055L830.2016961062327,445.2449464960955L933.2442197413184,373.85848520789295Z" fill="#ee4434" stroke="#ee4434"></path><path d="M933.2442197413184,373.85848520789295L830.2016961062327,445.2449464960955L928.7842779001221,454.53656141646206Z" fill="#eb3a2f" stroke="#eb3a2f"></path><path d="M933.2442197413184,373.85848520789295L928.7842779001221,454.53656141646206L978.175132360775,419.7498233290389Z" fill="#e7392e" stroke="#e7392e"></path><path d="M933.2442197413184,373.85848520789295L978.175132360775,419.7498233290389L975.6974441814236,368.0848480248824Z" fill="#e53f32" stroke="#e53f32"></path><path d="M975.6974441814236,368.0848480248824L978.175132360775,419.7498233290389L1068.1738656922244,434.4739688327536Z" fill="#e1382e" stroke="#e1382e"></path><path d="M975.6974441814236,368.0848480248824L1068.1738656922244,434.4739688327536L1112.224414863158,360.5887623084709Z" fill="#dc3a2f" stroke="#dc3a2f"></path><path d="M1112.224414863158,360.5887623084709L1068.1738656922244,434.4739688327536L1152.9793327231891,390.28067534789443Z" fill="#d6352c" stroke="#d6352c"></path><path d="M1152.9793327231891,390.28067534789443L1068.1738656922244,434.4739688327536L1156.0723651433364,492.2935422952287Z" fill="#d52a26" stroke="#d52a26"></path><path d="M1152.9793327231891,390.28067534789443L1156.0723651433364,492.2935422952287L1192.0388395385817,470.7191721815616Z" fill="#d12523" stroke="#d12523"></path><path d="M1152.9793327231891,390.28067534789443L1192.0388395385817,470.7191721815616L1256.8715573311783,459.9161871126853Z" fill="#cd2623" stroke="#cd2623"></path><path d="M1152.9793327231891,390.28067534789443L1256.8715573311783,459.9161871126853L1274.2181802308187,336.2675174069591Z" fill="#cb2f29" stroke="#cb2f29"></path><path d="M1274.2181802308187,336.2675174069591L1256.8715573311783,459.9161871126853L1306.680325421039,348.2829850492999Z" fill="#c63029" stroke="#c63029"></path><path d="M1306.680325421039,348.2829850492999L1256.8715573311783,459.9161871126853L1330.9313883259892,419.14318761089817Z" fill="#c42825" stroke="#c42825"></path><path d="M1306.680325421039,348.2829850492999L1330.9313883259892,419.14318761089817L1371.2714484916069,407.1822177548893Z" fill="#c02d26" stroke="#c02d26"></path><path d="M1427.2082112845965,330.09149180026725L1371.2714484916069,407.1822177548893L1453.5596154350787,341.50733327958733Z" fill="#b83428" stroke="#b83428"></path><path d="M1453.5596154350787,341.50733327958733L1371.2714484916069,407.1822177548893L1491.3478794367984,456.3313174038194Z" fill="#b62a22" stroke="#b62a22"></path><path d="M-6.545891216956079,428.01622149301693L-31.42569809453562,542.6466750376858L25.782281884457916,486.85452866833657Z" fill="#fb8d83" stroke="#fb8d83"></path><path d="M-6.545891216956079,428.01622149301693L25.782281884457916,486.85452866833657L30.833264987450093,436.2592942244373Z" fill="#ff9084" stroke="#ff9084"></path><path d="M30.833264987450093,436.2592942244373L25.782281884457916,486.85452866833657L146.80562949972227,474.15326890768483Z" fill="#ff877b" stroke="#ff877b"></path><path d="M30.833264987450093,436.2592942244373L146.80562949972227,474.15326890768483L174.7206442593597,445.076672565192Z" fill="#fe8677" stroke="#fe8677"></path><path d="M146.80562949972227,474.15326890768483L25.782281884457916,486.85452866833657L93.46935932291672,541.1207606690004Z" fill="#f88377" stroke="#f88377"></path><path d="M146.80562949972227,474.15326890768483L93.46935932291672,541.1207606690004L215.2433676365763,542.3110548825935Z" fill="#f57c6f" stroke="#f57c6f"></path><path d="M146.80562949972227,474.15326890768483L215.2433676365763,542.3110548825935L174.7206442593597,445.076672565192Z" fill="#fb7b6c" stroke="#fb7b6c"></path><path d="M174.7206442593597,445.076672565192L215.2433676365763,542.3110548825935L280.67626651143655,415.8587670349516Z" fill="#fe7867" stroke="#fe7867"></path><path d="M280.67626651143655,415.8587670349516L215.2433676365763,542.3110548825935L299.09359593642876,534.3253551400267Z" fill="#f87261" stroke="#f87261"></path><path d="M280.67626651143655,415.8587670349516L299.09359593642876,534.3253551400267L371.57756922766566,455.0487052160315Z" fill="#fe6e5c" stroke="#fe6e5c"></path><path d="M371.57756922766566,455.0487052160315L299.09359593642876,534.3253551400267L326.5501784766093,538.8923683948815Z" fill="#f66a58" stroke="#f66a58"></path><path d="M371.57756922766566,455.0487052160315L326.5501784766093,538.8923683948815L409.45517698070034,498.2271169568412Z" fill="#f86754" stroke="#f86754"></path><path d="M371.57756922766566,455.0487052160315L409.45517698070034,498.2271169568412L407.4346316419542,449.7247027908452Z" fill="#fe6552" stroke="#fe6552"></path><path d="M407.4346316419542,449.7247027908452L409.45517698070034,498.2271169568412L549.5436191186309,451.6950511629693Z" fill="#fd5e4b" stroke="#fd5e4b"></path><path d="M549.5436191186309,451.6950511629693L409.45517698070034,498.2271169568412L533.5462154215202,526.7741224332713Z" fill="#f95844" stroke="#f95844"></path><path d="M549.5436191186309,451.6950511629693L533.5462154215202,526.7741224332713L606.9613869790919,459.6730901254341Z" fill="#fb513d" stroke="#fb513d"></path><path d="M606.9613869790919,459.6730901254341L533.5462154215202,526.7741224332713L634.5963526587002,538.9683763426729Z" fill="#f54c39" stroke="#f54c39"></path><path d="M606.9613869790919,459.6730901254341L634.5963526587002,538.9683763426729L654.1825956501998,503.4540783520788Z" fill="#f44837" stroke="#f44837"></path><path d="M606.9613869790919,459.6730901254341L654.1825956501998,503.4540783520788L648.1400774070062,452.67574440222234Z" fill="#f94938" stroke="#f94938"></path><path d="M648.1400774070062,452.67574440222234L654.1825956501998,503.4540783520788L744.3403337826021,517.0728221326135Z" fill="#f34334" stroke="#f34334"></path><path d="M648.1400774070062,452.67574440222234L744.3403337826021,517.0728221326135L747.0618892158382,406.24327786965296Z" fill="#f64334" stroke="#f64334"></path><path d="M747.0618892158382,406.24327786965296L744.3403337826021,517.0728221326135L830.2016961062327,445.2449464960955Z" fill="#f33d31" stroke="#f33d31"></path><path d="M830.2016961062327,445.2449464960955L744.3403337826021,517.0728221326135L827.4601331027225,551.9826570455916Z" fill="#eb362d" stroke="#eb362d"></path><path d="M830.2016961062327,445.2449464960955L827.4601331027225,551.9826570455916L913.8452715054154,548.3462975686416Z" fill="#e62f29" stroke="#e62f29"></path><path d="M830.2016961062327,445.2449464960955L913.8452715054154,548.3462975686416L928.7842779001221,454.53656141646206Z" fill="#e92f28" stroke="#e92f28"></path><path d="M928.7842779001221,454.53656141646206L913.8452715054154,548.3462975686416L967.9602749994956,546.1253319680691Z" fill="#df2a26" stroke="#df2a26"></path><path d="M928.7842779001221,454.53656141646206L967.9602749994956,546.1253319680691L978.175132360775,419.7498233290389Z" fill="#e42c27" stroke="#e42c27"></path><path d="M978.175132360775,419.7498233290389L967.9602749994956,546.1253319680691L1063.50820729509,514.7058538696729Z" fill="#dc2825" stroke="#dc2825"></path><path d="M978.175132360775,419.7498233290389L1063.50820729509,514.7058538696729L1068.1738656922244,434.4739688327536Z" fill="#de2b26" stroke="#de2b26"></path><path d="M1068.1738656922244,434.4739688327536L1063.50820729509,514.7058538696729L1156.0723651433364,492.2935422952287Z" fill="#d52422" stroke="#d52422"></path><path d="M1192.0388395385817,470.7191721815616L1156.0723651433364,492.2935422952287L1270.3127534873784,503.9811097411439Z" fill="#c91e1f" stroke="#c91e1f"></path><path d="M1192.0388395385817,470.7191721815616L1270.3127534873784,503.9811097411439L1256.8715573311783,459.9161871126853Z" fill="#c81d1e" stroke="#c81d1e"></path><path d="M1256.8715573311783,459.9161871126853L1270.3127534873784,503.9811097411439L1330.9313883259892,419.14318761089817Z" fill="#c51d1e" stroke="#c51d1e"></path><path d="M1330.9313883259892,419.14318761089817L1270.3127534873784,503.9811097411439L1352.2010175068863,504.47962688980624Z" fill="#c01a1c" stroke="#c01a1c"></path><path d="M1330.9313883259892,419.14318761089817L1352.2010175068863,504.47962688980624L1371.2714484916069,407.1822177548893Z" fill="#bf201f" stroke="#bf201f"></path><path d="M1371.2714484916069,407.1822177548893L1352.2010175068863,504.47962688980624L1377.4796911794692,525.3667747881263Z" fill="#bb1a1a" stroke="#bb1a1a"></path><path d="M1371.2714484916069,407.1822177548893L1377.4796911794692,525.3667747881263L1491.3478794367984,456.3313174038194Z" fill="#b81c1a" stroke="#b81c1a"></path><path d="M1491.3478794367984,456.3313174038194L1377.4796911794692,525.3667747881263L1470.2514773397706,543.483676284086Z" fill="#ae1817" stroke="#ae1817"></path><path d="M1491.3478794367984,456.3313174038194L1470.2514773397706,543.483676284086L1492.481622574851,622.9453469393775Z" fill="#a41715" stroke="#a41715"></path><path d="M-31.42569809453562,542.6466750376858L-48.18082473706454,710.806718938984L-17.47429018607363,624.4426049152389Z" fill="#e18782" stroke="#e18782"></path><path d="M-31.42569809453562,542.6466750376858L-17.47429018607363,624.4426049152389L8.874405147507787,602.1626787236892Z" fill="#e88881" stroke="#e88881"></path><path d="M-31.42569809453562,542.6466750376858L8.874405147507787,602.1626787236892L25.782281884457916,486.85452866833657Z" fill="#f18981" stroke="#f18981"></path><path d="M25.782281884457916,486.85452866833657L8.874405147507787,602.1626787236892L93.46935932291672,541.1207606690004Z" fill="#f1857b" stroke="#f1857b"></path><path d="M93.46935932291672,541.1207606690004L8.874405147507787,602.1626787236892L36.1062595481053,656.9246384385042Z" fill="#e68179" stroke="#e68179"></path><path d="M93.46935932291672,541.1207606690004L36.1062595481053,656.9246384385042L144.84352425672114,621.8408076651394Z" fill="#e47d73" stroke="#e47d73"></path><path d="M93.46935932291672,541.1207606690004L144.84352425672114,621.8408076651394L215.2433676365763,542.3110548825935Z" fill="#eb796d" stroke="#eb796d"></path><path d="M215.2433676365763,542.3110548825935L144.84352425672114,621.8408076651394L224.47733378503472,582.766764794942Z" fill="#e97467" stroke="#e97467"></path><path d="M215.2433676365763,542.3110548825935L224.47733378503472,582.766764794942L299.09359593642876,534.3253551400267Z" fill="#ee7161" stroke="#ee7161"></path><path d="M299.09359593642876,534.3253551400267L224.47733378503472,582.766764794942L308.98365170462057,596.9196991529316Z" fill="#ea6d5d" stroke="#ea6d5d"></path><path d="M299.09359593642876,534.3253551400267L308.98365170462057,596.9196991529316L326.5501784766093,538.8923683948815Z" fill="#ed6a59" stroke="#ed6a59"></path><path d="M326.5501784766093,538.8923683948815L308.98365170462057,596.9196991529316L368.8808843237348,618.8054673536681Z" fill="#e86555" stroke="#e86555"></path><path d="M326.5501784766093,538.8923683948815L368.8808843237348,618.8054673536681L409.45517698070034,498.2271169568412Z" fill="#ee6353" stroke="#ee6353"></path><path d="M409.45517698070034,498.2271169568412L368.8808843237348,618.8054673536681L450.3271026047878,591.833114773035Z" fill="#eb5d4d" stroke="#eb5d4d"></path><path d="M409.45517698070034,498.2271169568412L450.3271026047878,591.833114773035L533.5462154215202,526.7741224332713Z" fill="#f05947" stroke="#f05947"></path><path d="M533.5462154215202,526.7741224332713L450.3271026047878,591.833114773035L521.0187819553539,587.8213396505453Z" fill="#ea5341" stroke="#ea5341"></path><path d="M533.5462154215202,526.7741224332713L521.0187819553539,587.8213396505453L580.0560124078766,572.9170595179312Z" fill="#ec4e3d" stroke="#ec4e3d"></path><path d="M533.5462154215202,526.7741224332713L580.0560124078766,572.9170595179312L634.5963526587002,538.9683763426729Z" fill="#ee4b39" stroke="#ee4b39"></path><path d="M634.5963526587002,538.9683763426729L580.0560124078766,572.9170595179312L694.1663285647519,585.5420463951305Z" fill="#e84435" stroke="#e84435"></path><path d="M634.5963526587002,538.9683763426729L694.1663285647519,585.5420463951305L654.1825956501998,503.4540783520788Z" fill="#eb4234" stroke="#eb4234"></path><path d="M654.1825956501998,503.4540783520788L694.1663285647519,585.5420463951305L744.3403337826021,517.0728221326135Z" fill="#eb3f32" stroke="#eb3f32"></path><path d="M744.3403337826021,517.0728221326135L694.1663285647519,585.5420463951305L762.5322060775943,592.6051203371026Z" fill="#e33a2f" stroke="#e33a2f"></path><path d="M744.3403337826021,517.0728221326135L762.5322060775943,592.6051203371026L827.4601331027225,551.9826570455916Z" fill="#e3352c" stroke="#e3352c"></path><path d="M827.4601331027225,551.9826570455916L762.5322060775943,592.6051203371026L810.1201122067869,600.8880380401388Z" fill="#dc322a" stroke="#dc322a"></path><path d="M827.4601331027225,551.9826570455916L810.1201122067869,600.8880380401388L900.6109338835813,575.7494170265272Z" fill="#db2d27" stroke="#db2d27"></path><path d="M827.4601331027225,551.9826570455916L900.6109338835813,575.7494170265272L913.8452715054154,548.3462975686416Z" fill="#dc2b26" stroke="#dc2b26"></path><path d="M913.8452715054154,548.3462975686416L900.6109338835813,575.7494170265272L967.9602749994956,546.1253319680691Z" fill="#d82925" stroke="#d82925"></path><path d="M967.9602749994956,546.1253319680691L900.6109338835813,575.7494170265272L1025.6633839779533,604.5285417279229Z" fill="#d12623" stroke="#d12623"></path><path d="M967.9602749994956,546.1253319680691L1025.6633839779533,604.5285417279229L1063.50820729509,514.7058538696729Z" fill="#cf2422" stroke="#cf2422"></path><path d="M1063.50820729509,514.7058538696729L1025.6633839779533,604.5285417279229L1092.3162643006071,599.7522976296023Z" fill="#c82120" stroke="#c82120"></path><path d="M1063.50820729509,514.7058538696729L1092.3162643006071,599.7522976296023L1125.093154818751,592.728185299784Z" fill="#c51f1f" stroke="#c51f1f"></path><path d="M1063.50820729509,514.7058538696729L1125.093154818751,592.728185299784L1156.0723651433364,492.2935422952287Z" fill="#c92020" stroke="#c92020"></path><path d="M1156.0723651433364,492.2935422952287L1125.093154818751,592.728185299784L1274.2129577184096,608.2079199142754Z" fill="#bd1b1d" stroke="#bd1b1d"></path><path d="M1156.0723651433364,492.2935422952287L1274.2129577184096,608.2079199142754L1270.3127534873784,503.9811097411439Z" fill="#be1a1d" stroke="#be1a1d"></path><path d="M1270.3127534873784,503.9811097411439L1274.2129577184096,608.2079199142754L1303.0724489246495,606.5010646800511Z" fill="#b2151a" stroke="#b2151a"></path><path d="M1270.3127534873784,503.9811097411439L1303.0724489246495,606.5010646800511L1352.2010175068863,504.47962688980624Z" fill="#b6171a" stroke="#b6171a"></path><path d="M1352.2010175068863,504.47962688980624L1303.0724489246495,606.5010646800511L1377.4796911794692,525.3667747881263Z" fill="#b11619" stroke="#b11619"></path><path d="M1377.4796911794692,525.3667747881263L1303.0724489246495,606.5010646800511L1399.5759654883295,633.0568137904629Z" fill="#a71417" stroke="#a71417"></path><path d="M1377.4796911794692,525.3667747881263L1399.5759654883295,633.0568137904629L1470.2514773397706,543.483676284086Z" fill="#a61516" stroke="#a61516"></path><path d="M1470.2514773397706,543.483676284086L1399.5759654883295,633.0568137904629L1492.481622574851,622.9453469393775Z" fill="#9c1314" stroke="#9c1314"></path><path d="M-17.47429018607363,624.4426049152389L-48.18082473706454,710.806718938984L36.1062595481053,656.9246384385042Z" fill="#da837e" stroke="#da837e"></path><path d="M-17.47429018607363,624.4426049152389L36.1062595481053,656.9246384385042L8.874405147507787,602.1626787236892Z" fill="#e1837d" stroke="#e1837d"></path><path d="M144.84352425672114,621.8408076651394L36.1062595481053,656.9246384385042L148.93768821377307,676.0313994460739Z" fill="#dc7870" stroke="#dc7870"></path><path d="M144.84352425672114,621.8408076651394L148.93768821377307,676.0313994460739L210.16716729383916,677.8323786682449Z" fill="#db7268" stroke="#db7268"></path><path d="M144.84352425672114,621.8408076651394L210.16716729383916,677.8323786682449L224.47733378503472,582.766764794942Z" fill="#e07266" stroke="#e07266"></path><path d="M224.47733378503472,582.766764794942L210.16716729383916,677.8323786682449L291.7243400705047,645.0967268506065Z" fill="#df6d5f" stroke="#df6d5f"></path><path d="M224.47733378503472,582.766764794942L291.7243400705047,645.0967268506065L308.98365170462057,596.9196991529316Z" fill="#e46b5c" stroke="#e46b5c"></path><path d="M308.98365170462057,596.9196991529316L291.7243400705047,645.0967268506065L344.6184835652821,656.0662462515756Z" fill="#df6556" stroke="#df6556"></path><path d="M308.98365170462057,596.9196991529316L344.6184835652821,656.0662462515756L368.8808843237348,618.8054673536681Z" fill="#e16354" stroke="#e16354"></path><path d="M368.8808843237348,618.8054673536681L344.6184835652821,656.0662462515756L453.5283348406665,704.3717652722262Z" fill="#da5b4d" stroke="#da5b4d"></path><path d="M368.8808843237348,618.8054673536681L453.5283348406665,704.3717652722262L450.3271026047878,591.833114773035Z" fill="#de5849" stroke="#de5849"></path><path d="M450.3271026047878,591.833114773035L453.5283348406665,704.3717652722262L521.0187819553539,587.8213396505453Z" fill="#df5243" stroke="#df5243"></path><path d="M521.0187819553539,587.8213396505453L453.5283348406665,704.3717652722262L528.1998372892849,714.187082783319Z" fill="#d84d3f" stroke="#d84d3f"></path><path d="M521.0187819553539,587.8213396505453L528.1998372892849,714.187082783319L614.5807139552198,695.4813564103097Z" fill="#d84738" stroke="#d84738"></path><path d="M521.0187819553539,587.8213396505453L614.5807139552198,695.4813564103097L580.0560124078766,572.9170595179312Z" fill="#e14837" stroke="#e14837"></path><path d="M580.0560124078766,572.9170595179312L614.5807139552198,695.4813564103097L694.1663285647519,585.5420463951305Z" fill="#df4233" stroke="#df4233"></path><path d="M694.1663285647519,585.5420463951305L614.5807139552198,695.4813564103097L712.9278644965962,664.7961446573026Z" fill="#d73b30" stroke="#d73b30"></path><path d="M694.1663285647519,585.5420463951305L712.9278644965962,664.7961446573026L762.5322060775943,592.6051203371026Z" fill="#da382e" stroke="#da382e"></path><path d="M762.5322060775943,592.6051203371026L712.9278644965962,664.7961446573026L774.9123799032532,661.7053869203664Z" fill="#d4332b" stroke="#d4332b"></path><path d="M762.5322060775943,592.6051203371026L774.9123799032532,661.7053869203664L810.1201122067869,600.8880380401388Z" fill="#d7312a" stroke="#d7312a"></path><path d="M810.1201122067869,600.8880380401388L774.9123799032532,661.7053869203664L805.2702510822564,687.6290627708659Z" fill="#d02e28" stroke="#d02e28"></path><path d="M810.1201122067869,600.8880380401388L805.2702510822564,687.6290627708659L900.6109338835813,575.7494170265272Z" fill="#d42b26" stroke="#d42b26"></path><path d="M900.6109338835813,575.7494170265272L805.2702510822564,687.6290627708659L945.271628969349,689.9504520487972Z" fill="#cb2623" stroke="#cb2623"></path><path d="M900.6109338835813,575.7494170265272L945.271628969349,689.9504520487972L1025.6633839779533,604.5285417279229Z" fill="#c92322" stroke="#c92322"></path><path d="M1025.6633839779533,604.5285417279229L945.271628969349,689.9504520487972L1033.898706533946,675.2974393754266Z" fill="#be1f20" stroke="#be1f20"></path><path d="M1025.6633839779533,604.5285417279229L1033.898706533946,675.2974393754266L1052.9110721335746,651.310059253592Z" fill="#bd1e1f" stroke="#bd1e1f"></path><path d="M1025.6633839779533,604.5285417279229L1052.9110721335746,651.310059253592L1092.3162643006071,599.7522976296023Z" fill="#c01f1f" stroke="#c01f1f"></path><path d="M1092.3162643006071,599.7522976296023L1052.9110721335746,651.310059253592L1128.0805243272334,655.7195879495703Z" fill="#b91c1e" stroke="#b91c1e"></path><path d="M1092.3162643006071,599.7522976296023L1128.0805243272334,655.7195879495703L1125.093154818751,592.728185299784Z" fill="#ba1c1d" stroke="#ba1c1d"></path><path d="M1125.093154818751,592.728185299784L1128.0805243272334,655.7195879495703L1274.2129577184096,608.2079199142754Z" fill="#b4181c" stroke="#b4181c"></path><path d="M1274.2129577184096,608.2079199142754L1128.0805243272334,655.7195879495703L1205.6744918390177,713.6385414446704Z" fill="#aa151a" stroke="#aa151a"></path><path d="M1274.2129577184096,608.2079199142754L1205.6744918390177,713.6385414446704L1320.158359427005,647.7526079630479Z" fill="#a41118" stroke="#a41118"></path><path d="M1274.2129577184096,608.2079199142754L1320.158359427005,647.7526079630479L1303.0724489246495,606.5010646800511Z" fill="#a71218" stroke="#a71218"></path><path d="M1303.0724489246495,606.5010646800511L1320.158359427005,647.7526079630479L1399.5759654883295,633.0568137904629Z" fill="#a21117" stroke="#a21117"></path><path d="M1399.5759654883295,633.0568137904629L1320.158359427005,647.7526079630479L1411.8380762520246,695.1005859277211Z" fill="#981015" stroke="#981015"></path><path d="M1399.5759654883295,633.0568137904629L1411.8380762520246,695.1005859277211L1474.3551642051898,653.0850587273017Z" fill="#931013" stroke="#931013"></path><path d="M1399.5759654883295,633.0568137904629L1474.3551642051898,653.0850587273017L1492.481622574851,622.9453469393775Z" fill="#951113" stroke="#951113"></path><path d="M1492.481622574851,622.9453469393775L1474.3551642051898,653.0850587273017L1507.3483540629968,849.0605195611715Z" fill="#840d10" stroke="#840d10"></path><path d="M-48.18082473706454,710.806718938984L-9.007152349222451,873.8643864542246L-37.57316843839362,726.4001105516218Z" fill="#c67f7e" stroke="#c67f7e"></path><path d="M-48.18082473706454,710.806718938984L-37.57316843839362,726.4001105516218L36.1062595481053,656.9246384385042Z" fill="#d4817e" stroke="#d4817e"></path><path d="M36.1062595481053,656.9246384385042L-37.57316843839362,726.4001105516218L33.58283748617396,748.2307408074848Z" fill="#d17e7a" stroke="#d17e7a"></path><path d="M36.1062595481053,656.9246384385042L33.58283748617396,748.2307408074848L102.76766521856189,728.3947067335248Z" fill="#d17a74" stroke="#d17a74"></path><path d="M36.1062595481053,656.9246384385042L102.76766521856189,728.3947067335248L148.93768821377307,676.0313994460739Z" fill="#d57870" stroke="#d57870"></path><path d="M148.93768821377307,676.0313994460739L102.76766521856189,728.3947067335248L177.1087811072357,778.2508106413297Z" fill="#ce7169" stroke="#ce7169"></path><path d="M148.93768821377307,676.0313994460739L177.1087811072357,778.2508106413297L210.16716729383916,677.8323786682449Z" fill="#d16e65" stroke="#d16e65"></path><path d="M210.16716729383916,677.8323786682449L177.1087811072357,778.2508106413297L282.27971338899806,775.5540620768443Z" fill="#ca685e" stroke="#ca685e"></path><path d="M210.16716729383916,677.8323786682449L282.27971338899806,775.5540620768443L291.7243400705047,645.0967268506065Z" fill="#d3675b" stroke="#d3675b"></path><path d="M291.7243400705047,645.0967268506065L282.27971338899806,775.5540620768443L344.6184835652821,656.0662462515756Z" fill="#d46356" stroke="#d46356"></path><path d="M344.6184835652821,656.0662462515756L282.27971338899806,775.5540620768443L386.6997631872073,757.2848340915516Z" fill="#cd5d51" stroke="#cd5d51"></path><path d="M344.6184835652821,656.0662462515756L386.6997631872073,757.2848340915516L453.5283348406665,704.3717652722262Z" fill="#d1574b" stroke="#d1574b"></path><path d="M453.5283348406665,704.3717652722262L386.6997631872073,757.2848340915516L453.76934190047905,791.2816279148683Z" fill="#c95045" stroke="#c95045"></path><path d="M453.5283348406665,704.3717652722262L453.76934190047905,791.2816279148683L508.0722688417882,785.1466278196312Z" fill="#c74b3f" stroke="#c74b3f"></path><path d="M453.5283348406665,704.3717652722262L508.0722688417882,785.1466278196312L528.1998372892849,714.187082783319Z" fill="#cc4a3d" stroke="#cc4a3d"></path><path d="M528.1998372892849,714.187082783319L508.0722688417882,785.1466278196312L611.41180310864,773.5525954444893Z" fill="#c74236" stroke="#c74236"></path><path d="M528.1998372892849,714.187082783319L611.41180310864,773.5525954444893L614.5807139552198,695.4813564103097Z" fill="#cc4033" stroke="#cc4033"></path><path d="M614.5807139552198,695.4813564103097L611.41180310864,773.5525954444893L673.1336871581152,734.43897906458Z" fill="#c93a30" stroke="#c93a30"></path><path d="M614.5807139552198,695.4813564103097L673.1336871581152,734.43897906458L712.9278644965962,664.7961446573026Z" fill="#ce392f" stroke="#ce392f"></path><path d="M712.9278644965962,664.7961446573026L673.1336871581152,734.43897906458L730.4920107126236,757.9723377991468Z" fill="#c8342c" stroke="#c8342c"></path><path d="M712.9278644965962,664.7961446573026L730.4920107126236,757.9723377991468L774.9123799032532,661.7053869203664Z" fill="#cb312a" stroke="#cb312a"></path><path d="M774.9123799032532,661.7053869203664L730.4920107126236,757.9723377991468L805.2702510822564,687.6290627708659Z" fill="#c82e28" stroke="#c82e28"></path><path d="M805.2702510822564,687.6290627708659L730.4920107126236,757.9723377991468L807.4768347921781,756.1520546139218Z" fill="#c12b26" stroke="#c12b26"></path><path d="M805.2702510822564,687.6290627708659L807.4768347921781,756.1520546139218L948.5267011332326,737.0893457811326Z" fill="#bf2322" stroke="#bf2322"></path><path d="M805.2702510822564,687.6290627708659L948.5267011332326,737.0893457811326L945.271628969349,689.9504520487972Z" fill="#bf2221" stroke="#bf2221"></path><path d="M945.271628969349,689.9504520487972L948.5267011332326,737.0893457811326L1033.6985943559557,736.3311966881156Z" fill="#b51d1e" stroke="#b51d1e"></path><path d="M945.271628969349,689.9504520487972L1033.6985943559557,736.3311966881156L1033.898706533946,675.2974393754266Z" fill="#b51c1e" stroke="#b51c1e"></path><path d="M1033.898706533946,675.2974393754266L1033.6985943559557,736.3311966881156L1047.5947619439103,746.5793975116685Z" fill="#ae1a1d" stroke="#ae1a1d"></path><path d="M1033.898706533946,675.2974393754266L1047.5947619439103,746.5793975116685L1128.0805243272334,655.7195879495703Z" fill="#b01a1d" stroke="#b01a1d"></path><path d="M1033.898706533946,675.2974393754266L1128.0805243272334,655.7195879495703L1052.9110721335746,651.310059253592Z" fill="#b61b1e" stroke="#b61b1e"></path><path d="M1128.0805243272334,655.7195879495703L1047.5947619439103,746.5793975116685L1131.2037539831363,759.6422179695219Z" fill="#a8161b" stroke="#a8161b"></path><path d="M1128.0805243272334,655.7195879495703L1131.2037539831363,759.6422179695219L1205.6744918390177,713.6385414446704Z" fill="#a51419" stroke="#a51419"></path><path d="M1205.6744918390177,713.6385414446704L1131.2037539831363,759.6422179695219L1213.3109187474474,752.129273370374Z" fill="#9c1117" stroke="#9c1117"></path><path d="M1205.6744918390177,713.6385414446704L1213.3109187474474,752.129273370374L1320.158359427005,647.7526079630479Z" fill="#9d1017" stroke="#9d1017"></path><path d="M1320.158359427005,647.7526079630479L1213.3109187474474,752.129273370374L1346.6097365529276,771.7504349164665Z" fill="#950c15" stroke="#950c15"></path><path d="M1320.158359427005,647.7526079630479L1346.6097365529276,771.7504349164665L1371.0623046802357,760.8114756457508Z" fill="#8f0c13" stroke="#8f0c13"></path><path d="M1320.158359427005,647.7526079630479L1371.0623046802357,760.8114756457508L1411.8380762520246,695.1005859277211Z" fill="#910d13" stroke="#910d13"></path><path d="M1411.8380762520246,695.1005859277211L1371.0623046802357,760.8114756457508L1455.6012555607595,757.8564786538482Z" fill="#860b11" stroke="#860b11"></path><path d="M1411.8380762520246,695.1005859277211L1455.6012555607595,757.8564786538482L1474.3551642051898,653.0850587273017Z" fill="#8a0d11" stroke="#8a0d11"></path><path d="M1474.3551642051898,653.0850587273017L1455.6012555607595,757.8564786538482L1507.3483540629968,849.0605195611715Z" fill="#7d0a0f" stroke="#7d0a0f"></path><path d="M-37.57316843839362,726.4001105516218L-9.007152349222451,873.8643864542246L46.599740576930344,829.3639514036477Z" fill="#bf7978" stroke="#bf7978"></path><path d="M-37.57316843839362,726.4001105516218L46.599740576930344,829.3639514036477L33.58283748617396,748.2307408074848Z" fill="#c77a78" stroke="#c77a78"></path><path d="M33.58283748617396,748.2307408074848L46.599740576930344,829.3639514036477L102.76766521856189,728.3947067335248Z" fill="#c77672" stroke="#c77672"></path><path d="M102.76766521856189,728.3947067335248L46.599740576930344,829.3639514036477L94.6449386421591,846.8337228265591Z" fill="#c0726f" stroke="#c0726f"></path><path d="M102.76766521856189,728.3947067335248L94.6449386421591,846.8337228265591L177.1087811072357,778.2508106413297Z" fill="#c36f6a" stroke="#c36f6a"></path><path d="M177.1087811072357,778.2508106413297L94.6449386421591,846.8337228265591L177.2218715888448,837.8403509384952Z" fill="#bc6a65" stroke="#bc6a65"></path><path d="M177.1087811072357,778.2508106413297L177.2218715888448,837.8403509384952L282.27971338899806,775.5540620768443Z" fill="#c1665e" stroke="#c1665e"></path><path d="M282.27971338899806,775.5540620768443L177.2218715888448,837.8403509384952L298.6793954158202,854.1639601509087Z" fill="#bc6158" stroke="#bc6158"></path><path d="M282.27971338899806,775.5540620768443L298.6793954158202,854.1639601509087L389.2672704276629,837.8571865637787Z" fill="#bc594f" stroke="#bc594f"></path><path d="M282.27971338899806,775.5540620768443L389.2672704276629,837.8571865637787L386.6997631872073,757.2848340915516Z" fill="#c2584d" stroke="#c2584d"></path><path d="M386.6997631872073,757.2848340915516L389.2672704276629,837.8571865637787L415.9562322241254,806.8997627031058Z" fill="#c05147" stroke="#c05147"></path><path d="M386.6997631872073,757.2848340915516L415.9562322241254,806.8997627031058L453.76934190047905,791.2816279148683Z" fill="#c35045" stroke="#c35045"></path><path d="M453.76934190047905,791.2816279148683L415.9562322241254,806.8997627031058L540.472378898412,836.1863805609755Z" fill="#bd483e" stroke="#bd483e"></path><path d="M453.76934190047905,791.2816279148683L540.472378898412,836.1863805609755L508.0722688417882,785.1466278196312Z" fill="#bf453a" stroke="#bf453a"></path><path d="M508.0722688417882,785.1466278196312L540.472378898412,836.1863805609755L611.41180310864,773.5525954444893Z" fill="#c03f34" stroke="#c03f34"></path><path d="M611.41180310864,773.5525954444893L540.472378898412,836.1863805609755L567.8686724812724,858.6394061241299Z" fill="#bb3c31" stroke="#bb3c31"></path><path d="M611.41180310864,773.5525954444893L567.8686724812724,858.6394061241299L714.1351932217367,830.6429281434976Z" fill="#b8352d" stroke="#b8352d"></path><path d="M611.41180310864,773.5525954444893L714.1351932217367,830.6429281434976L673.1336871581152,734.43897906458Z" fill="#bf342c" stroke="#bf342c"></path><path d="M673.1336871581152,734.43897906458L714.1351932217367,830.6429281434976L730.4920107126236,757.9723377991468Z" fill="#be302a" stroke="#be302a"></path><path d="M730.4920107126236,757.9723377991468L714.1351932217367,830.6429281434976L807.4768347921781,756.1520546139218Z" fill="#ba2b27" stroke="#ba2b27"></path><path d="M807.4768347921781,756.1520546139218L714.1351932217367,830.6429281434976L794.9729385599494,864.689605764579Z" fill="#b22724" stroke="#b22724"></path><path d="M807.4768347921781,756.1520546139218L794.9729385599494,864.689605764579L860.4439310077578,834.8399441526271Z" fill="#af2121" stroke="#af2121"></path><path d="M807.4768347921781,756.1520546139218L860.4439310077578,834.8399441526271L935.5970629560761,805.333245547954Z" fill="#b11e1f" stroke="#b11e1f"></path><path d="M807.4768347921781,756.1520546139218L935.5970629560761,805.333245547954L948.5267011332326,737.0893457811326Z" fill="#b41e1f" stroke="#b41e1f"></path><path d="M948.5267011332326,737.0893457811326L935.5970629560761,805.333245547954L1033.6985943559557,736.3311966881156Z" fill="#ae1b1d" stroke="#ae1b1d"></path><path d="M1033.6985943559557,736.3311966881156L935.5970629560761,805.333245547954L1029.1035152226686,848.0381238018163Z" fill="#a4171b" stroke="#a4171b"></path><path d="M1033.6985943559557,736.3311966881156L1029.1035152226686,848.0381238018163L1047.5947619439103,746.5793975116685Z" fill="#a4161b" stroke="#a4161b"></path><path d="M1047.5947619439103,746.5793975116685L1029.1035152226686,848.0381238018163L1108.3373275911435,865.776366207283Z" fill="#9a1218" stroke="#9a1218"></path><path d="M1047.5947619439103,746.5793975116685L1108.3373275911435,865.776366207283L1131.2037539831363,759.6422179695219Z" fill="#9c1318" stroke="#9c1318"></path><path d="M1131.2037539831363,759.6422179695219L1108.3373275911435,865.776366207283L1148.064173096791,866.9875804916956Z" fill="#910e16" stroke="#910e16"></path><path d="M1131.2037539831363,759.6422179695219L1148.064173096791,866.9875804916956L1213.3109187474474,752.129273370374Z" fill="#950f16" stroke="#950f16"></path><path d="M1213.3109187474474,752.129273370374L1148.064173096791,866.9875804916956L1229.8729225248098,870.7393766660243Z" fill="#8a0b14" stroke="#8a0b14"></path><path d="M1213.3109187474474,752.129273370374L1229.8729225248098,870.7393766660243L1346.6097365529276,771.7504349164665Z" fill="#8a0913" stroke="#8a0913"></path><path d="M1346.6097365529276,771.7504349164665L1229.8729225248098,870.7393766660243L1345.9507692512125,860.1144439424388Z" fill="#7e0611" stroke="#7e0611"></path><path d="M1346.6097365529276,771.7504349164665L1345.9507692512125,860.1144439424388L1384.2320452071726,836.010457763914Z" fill="#7c0610" stroke="#7c0610"></path><path d="M1346.6097365529276,771.7504349164665L1384.2320452071726,836.010457763914L1371.0623046802357,760.8114756457508Z" fill="#810810" stroke="#810810"></path><path d="M1371.0623046802357,760.8114756457508L1384.2320452071726,836.010457763914L1455.6012555607595,757.8564786538482Z" fill="#7e0810" stroke="#7e0810"></path><path d="M1455.6012555607595,757.8564786538482L1384.2320452071726,836.010457763914L1507.3483540629968,849.0605195611715Z" fill="#74070d" stroke="#74070d"></path><path d="M-9.007152349222451,873.8643864542246L1229.8729225248098,870.7393766660243L794.9729385599494,864.689605764579Z" fill="#ad2f29" stroke="#ad2f29"></path><path d="M-9.007152349222451,873.8643864542246L794.9729385599494,864.689605764579L567.8686724812724,858.6394061241299Z" fill="#b3473e" stroke="#b3473e"></path><path d="M-9.007152349222451,873.8643864542246L567.8686724812724,858.6394061241299L298.6793954158202,854.1639601509087Z" fill="#b45b53" stroke="#b45b53"></path><path d="M-9.007152349222451,873.8643864542246L298.6793954158202,854.1639601509087L94.6449386421591,846.8337228265591Z" fill="#b56b67" stroke="#b56b67"></path><path d="M-9.007152349222451,873.8643864542246L94.6449386421591,846.8337228265591L46.599740576930344,829.3639514036477Z" fill="#b87371" stroke="#b87371"></path><path d="M94.6449386421591,846.8337228265591L298.6793954158202,854.1639601509087L177.2218715888448,837.8403509384952Z" fill="#b8655f" stroke="#b8655f"></path><path d="M298.6793954158202,854.1639601509087L567.8686724812724,858.6394061241299L389.2672704276629,837.8571865637787Z" fill="#b64c43" stroke="#b64c43"></path><path d="M389.2672704276629,837.8571865637787L567.8686724812724,858.6394061241299L540.472378898412,836.1863805609755Z" fill="#b74339" stroke="#b74339"></path><path d="M389.2672704276629,837.8571865637787L540.472378898412,836.1863805609755L415.9562322241254,806.8997627031058Z" fill="#ba4a40" stroke="#ba4a40"></path><path d="M567.8686724812724,858.6394061241299L794.9729385599494,864.689605764579L714.1351932217367,830.6429281434976Z" fill="#b02d28" stroke="#b02d28"></path><path d="M794.9729385599494,864.689605764579L1229.8729225248098,870.7393766660243L1108.3373275911435,865.776366207283Z" fill="#921117" stroke="#921117"></path><path d="M794.9729385599494,864.689605764579L1108.3373275911435,865.776366207283L1029.1035152226686,848.0381238018163Z" fill="#9b151a" stroke="#9b151a"></path><path d="M794.9729385599494,864.689605764579L1029.1035152226686,848.0381238018163L860.4439310077578,834.8399441526271Z" fill="#a51a1c" stroke="#a51a1c"></path><path d="M860.4439310077578,834.8399441526271L1029.1035152226686,848.0381238018163L935.5970629560761,805.333245547954Z" fill="#a4181c" stroke="#a4181c"></path><path d="M1108.3373275911435,865.776366207283L1229.8729225248098,870.7393766660243L1148.064173096791,866.9875804916956Z" fill="#870b14" stroke="#870b14"></path><path d="M1229.8729225248098,870.7393766660243L1507.3483540629968,849.0605195611715L1345.9507692512125,860.1144439424388Z" fill="#75040f" stroke="#75040f"></path><path d="M1345.9507692512125,860.1144439424388L1507.3483540629968,849.0605195611715L1384.2320452071726,836.010457763914Z" fill="#71050e" stroke="#71050e"></path></g><filter id="noise"><feTurbulence type="fractalNoise" in="fillPaint" fill="#F00" baseFrequency="0.7" numOctaves="10" stitchTiles="stitch"></feTurbulence><feComponentTransfer><feFuncR type="linear" slope="2" intercept="-.5"></feFuncR><feFuncG type="linear" slope="2" intercept="-.5"></feFuncG><feFuncB type="linear" slope="2" intercept="-.5"></feFuncB></feComponentTransfer><feColorMatrix type="matrix" values="0.3333 0.3333 0.3333 0 0 
 0.3333 0.3333 0.3333 0 0 
 0.3333 0.3333 0.3333 0 0 
 0 0 0 1 0"></feColorMatrix></filter><rect opacity="0.4" width="100%" height="100%" filter="url(#noise)"></rect></svg>