<svg width="720" height="779" xmlns="http://www.w3.org/2000/svg"><g><path d="M-109.6988311316818,-44.86839341931045L-126.53703038580716,96.92799190990627L67.23512657918036,38.8076086062938Z" fill="#fffff9" stroke="#fffff9"></path><path d="M-109.6988311316818,-44.86839341931045L67.23512657918036,38.8076086062938L87.63380700722337,-97.17883765697479Z" fill="#feffee" stroke="#feffee"></path><path d="M87.63380700722337,-97.17883765697479L67.23512657918036,38.8076086062938L211.69214970432222,22.626375211402774Z" fill="#f3fbd6" stroke="#f3fbd6"></path><path d="M87.63380700722337,-97.17883765697479L211.69214970432222,22.626375211402774L198.05264758877456,-118.53001090697944Z" fill="#ebf7d0" stroke="#ebf7d0"></path><path d="M198.05264758877456,-118.53001090697944L211.69214970432222,22.626375211402774L413.2243251800537,-16.65864245966077Z" fill="#cbe9c2" stroke="#cbe9c2"></path><path d="M198.05264758877456,-118.53001090697944L413.2243251800537,-16.65864245966077L538.6573936510831,-105.80821048468351Z" fill="#a6d8b1" stroke="#a6d8b1"></path><path d="M413.2243251800537,-16.65864245966077L211.69214970432222,22.626375211402774L364.18030011467636,128.70978198945522Z" fill="#b8e1b2" stroke="#b8e1b2"></path><path d="M413.2243251800537,-16.65864245966077L364.18030011467636,128.70978198945522L474.06049638055265,121.15596880204976Z" fill="#9dd19c" stroke="#9dd19c"></path><path d="M413.2243251800537,-16.65864245966077L474.06049638055265,121.15596880204976L538.6573936510831,-105.80821048468351Z" fill="#92c3a2" stroke="#92c3a2"></path><path d="M538.6573936510831,-105.80821048468351L474.06049638055265,121.15596880204976L636.7202554363757,-77.83610419370234Z" fill="#82b69c" stroke="#82b69c"></path><path d="M538.6573936510831,-105.80821048468351L636.7202554363757,-77.83610419370234L843.2782129012048,-32.69892504438758Z" fill="#809b91" stroke="#809b91"></path><path d="M636.7202554363757,-77.83610419370234L474.06049638055265,121.15596880204976L715.068873334676,131.42216328531504Z" fill="#80a98b" stroke="#80a98b"></path><path d="M636.7202554363757,-77.83610419370234L715.068873334676,131.42216328531504L843.2782129012048,-32.69892504438758Z" fill="#808e8b" stroke="#808e8b"></path><path d="M843.2782129012048,-32.69892504438758L715.068873334676,131.42216328531504L814.2843307647854,112.74145105853677Z" fill="#808179" stroke="#808179"></path><path d="M843.2782129012048,-32.69892504438758L814.2843307647854,112.74145105853677L833.7323173508048,217.5780058465898Z" fill="#808071" stroke="#808071"></path><path d="M843.2782129012048,-32.69892504438758L833.7323173508048,217.5780058465898L854.7479579318315,367.6243881415576Z" fill="#7d8062" stroke="#7d8062"></path><path d="M-126.53703038580716,96.92799190990627L-83.93070939928293,982.7649515960366L-95.520248869434,718.6471050605178Z" fill="#81bfa1" stroke="#81bfa1"></path><path d="M-126.53703038580716,96.92799190990627L-95.520248869434,718.6471050605178L-95.73271304368973,524.9758836440742Z" fill="#a3e2b5" stroke="#a3e2b5"></path><path d="M-126.53703038580716,96.92799190990627L-95.73271304368973,524.9758836440742L-98.06341979652643,381.8313803896308Z" fill="#cbf7c9" stroke="#cbf7c9"></path><path d="M-126.53703038580716,96.92799190990627L-98.06341979652643,381.8313803896308L-80.64861198887229,231.6620302107185Z" fill="#edffd8" stroke="#edffd8"></path><path d="M-126.53703038580716,96.92799190990627L-80.64861198887229,231.6620302107185L67.23512657918036,38.8076086062938Z" fill="#ffffe9" stroke="#ffffe9"></path><path d="M67.23512657918036,38.8076086062938L-80.64861198887229,231.6620302107185L133.495480902493,280.4018703382462Z" fill="#fafec7" stroke="#fafec7"></path><path d="M67.23512657918036,38.8076086062938L133.495480902493,280.4018703382462L269.37671343795955,172.7046638354659Z" fill="#edf8b5" stroke="#edf8b5"></path><path d="M67.23512657918036,38.8076086062938L269.37671343795955,172.7046638354659L211.69214970432222,22.626375211402774Z" fill="#e6f5bf" stroke="#e6f5bf"></path><path d="M211.69214970432222,22.626375211402774L269.37671343795955,172.7046638354659L364.18030011467636,128.70978198945522Z" fill="#c8e8ad" stroke="#c8e8ad"></path><path d="M364.18030011467636,128.70978198945522L269.37671343795955,172.7046638354659L345.5380239430815,280.5955242086202Z" fill="#b4e29a" stroke="#b4e29a"></path><path d="M364.18030011467636,128.70978198945522L345.5380239430815,280.5955242086202L491.49013825692236,166.59209593199193Z" fill="#9bd58d" stroke="#9bd58d"></path><path d="M364.18030011467636,128.70978198945522L491.49013825692236,166.59209593199193L474.06049638055265,121.15596880204976Z" fill="#98cb8e" stroke="#98cb8e"></path><path d="M474.06049638055265,121.15596880204976L491.49013825692236,166.59209593199193L715.068873334676,131.42216328531504Z" fill="#80b482" stroke="#80b482"></path><path d="M715.068873334676,131.42216328531504L491.49013825692236,166.59209593199193L658.1378994695842,262.78127261437476Z" fill="#7ca675" stroke="#7ca675"></path><path d="M715.068873334676,131.42216328531504L658.1378994695842,262.78127261437476L833.7323173508048,217.5780058465898Z" fill="#778d69" stroke="#778d69"></path><path d="M715.068873334676,131.42216328531504L833.7323173508048,217.5780058465898L814.2843307647854,112.74145105853677Z" fill="#80826c" stroke="#80826c"></path><path d="M-80.64861198887229,231.6620302107185L-98.06341979652643,381.8313803896308L86.85442194342613,406.3081939704716Z" fill="#caf6c4" stroke="#caf6c4"></path><path d="M-80.64861198887229,231.6620302107185L86.85442194342613,406.3081939704716L133.495480902493,280.4018703382462Z" fill="#d3f9b4" stroke="#d3f9b4"></path><path d="M133.495480902493,280.4018703382462L86.85442194342613,406.3081939704716L284.66217703185976,390.5684419814497Z" fill="#adeb96" stroke="#adeb96"></path><path d="M133.495480902493,280.4018703382462L284.66217703185976,390.5684419814497L345.5380239430815,280.5955242086202Z" fill="#a4e691" stroke="#a4e691"></path><path d="M133.495480902493,280.4018703382462L345.5380239430815,280.5955242086202L269.37671343795955,172.7046638354659Z" fill="#bfed9d" stroke="#bfed9d"></path><path d="M345.5380239430815,280.5955242086202L284.66217703185976,390.5684419814497L355.6122593488544,340.1778509840369Z" fill="#84d985" stroke="#84d985"></path><path d="M345.5380239430815,280.5955242086202L355.6122593488544,340.1778509840369L491.49013825692236,166.59209593199193Z" fill="#88d583" stroke="#88d583"></path><path d="M491.49013825692236,166.59209593199193L355.6122593488544,340.1778509840369L575.6805478502065,416.41028135083616Z" fill="#68be70" stroke="#68be70"></path><path d="M491.49013825692236,166.59209593199193L575.6805478502065,416.41028135083616L658.1378994695842,262.78127261437476Z" fill="#5fae6c" stroke="#5fae6c"></path><path d="M658.1378994695842,262.78127261437476L575.6805478502065,416.41028135083616L658.0301076360047,386.5396162122488Z" fill="#44995c" stroke="#44995c"></path><path d="M658.1378994695842,262.78127261437476L658.0301076360047,386.5396162122488L854.7479579318315,367.6243881415576Z" fill="#4a8756" stroke="#4a8756"></path><path d="M658.1378994695842,262.78127261437476L854.7479579318315,367.6243881415576L833.7323173508048,217.5780058465898Z" fill="#5f8159" stroke="#5f8159"></path><path d="M-98.06341979652643,381.8313803896308L-95.73271304368973,524.9758836440742L86.85442194342613,406.3081939704716Z" fill="#a5e4b3" stroke="#a5e4b3"></path><path d="M86.85442194342613,406.3081939704716L-95.73271304368973,524.9758836440742L97.52525942400098,519.186985809356Z" fill="#9ad799" stroke="#9ad799"></path><path d="M86.85442194342613,406.3081939704716L97.52525942400098,519.186985809356L216.12183420918882,538.0855470802635Z" fill="#8dd183" stroke="#8dd183"></path><path d="M86.85442194342613,406.3081939704716L216.12183420918882,538.0855470802635L284.66217703185976,390.5684419814497Z" fill="#87d683" stroke="#87d683"></path><path d="M284.66217703185976,390.5684419814497L216.12183420918882,538.0855470802635L326.28408467397094,498.88903624378145Z" fill="#68c473" stroke="#68c473"></path><path d="M284.66217703185976,390.5684419814497L326.28408467397094,498.88903624378145L355.6122593488544,340.1778509840369Z" fill="#6acd78" stroke="#6acd78"></path><path d="M355.6122593488544,340.1778509840369L326.28408467397094,498.88903624378145L491.3114385679364,524.8414474446326Z" fill="#46b764" stroke="#46b764"></path><path d="M355.6122593488544,340.1778509840369L491.3114385679364,524.8414474446326L575.6805478502065,416.41028135083616Z" fill="#3bab5b" stroke="#3bab5b"></path><path d="M575.6805478502065,416.41028135083616L491.3114385679364,524.8414474446326L651.4154884312302,478.079565865919Z" fill="#1e8c4b" stroke="#1e8c4b"></path><path d="M575.6805478502065,416.41028135083616L651.4154884312302,478.079565865919L658.0301076360047,386.5396162122488Z" fill="#298c4e" stroke="#298c4e"></path><path d="M658.0301076360047,386.5396162122488L651.4154884312302,478.079565865919L854.7479579318315,367.6243881415576Z" fill="#2f7b49" stroke="#2f7b49"></path><path d="M854.7479579318315,367.6243881415576L651.4154884312302,478.079565865919L851.8068039603531,526.3913209363818Z" fill="#22623b" stroke="#22623b"></path><path d="M854.7479579318315,367.6243881415576L851.8068039603531,526.3913209363818L858.1218597851694,620.7152328919619Z" fill="#18532c" stroke="#18532c"></path><path d="M-95.73271304368973,524.9758836440742L-95.520248869434,718.6471050605178L124.9089843314141,658.6494843475521Z" fill="#80b797" stroke="#80b797"></path><path d="M-95.73271304368973,524.9758836440742L124.9089843314141,658.6494843475521L97.52525942400098,519.186985809356Z" fill="#87c48b" stroke="#87c48b"></path><path d="M97.52525942400098,519.186985809356L124.9089843314141,658.6494843475521L216.12183420918882,538.0855470802635Z" fill="#77be77" stroke="#77be77"></path><path d="M216.12183420918882,538.0855470802635L124.9089843314141,658.6494843475521L268.0045110080391,622.0094861648977Z" fill="#61b16d" stroke="#61b16d"></path><path d="M216.12183420918882,538.0855470802635L268.0045110080391,622.0094861648977L326.28408467397094,498.88903624378145Z" fill="#59b268" stroke="#59b268"></path><path d="M326.28408467397094,498.88903624378145L268.0045110080391,622.0094861648977L384.24538099206984,650.7511220220476Z" fill="#3ea35e" stroke="#3ea35e"></path><path d="M326.28408467397094,498.88903624378145L384.24538099206984,650.7511220220476L491.3114385679364,524.8414474446326Z" fill="#2c9d53" stroke="#2c9d53"></path><path d="M491.3114385679364,524.8414474446326L384.24538099206984,650.7511220220476L575.1345476042479,708.6164363007993Z" fill="#117a40" stroke="#117a40"></path><path d="M491.3114385679364,524.8414474446326L575.1345476042479,708.6164363007993L651.4154884312302,478.079565865919Z" fill="#09763e" stroke="#09763e"></path><path d="M651.4154884312302,478.079565865919L575.1345476042479,708.6164363007993L696.9608807377517,693.2380404789001Z" fill="#005b33" stroke="#005b33"></path><path d="M651.4154884312302,478.079565865919L696.9608807377517,693.2380404789001L851.8068039603531,526.3913209363818Z" fill="#0a5431" stroke="#0a5431"></path><path d="M851.8068039603531,526.3913209363818L696.9608807377517,693.2380404789001L858.1218597851694,620.7152328919619Z" fill="#003c27" stroke="#003c27"></path><path d="M-95.520248869434,718.6471050605178L-83.93070939928293,982.7649515960366L-83.92471745610237,794.6395746152848Z" fill="#80878b" stroke="#80878b"></path><path d="M-95.520248869434,718.6471050605178L-83.92471745610237,794.6395746152848L124.9089843314141,658.6494843475521Z" fill="#80a18d" stroke="#80a18d"></path><path d="M124.9089843314141,658.6494843475521L-83.92471745610237,794.6395746152848L67.84578552469611,876.0313846450299Z" fill="#7e9479" stroke="#7e9479"></path><path d="M124.9089843314141,658.6494843475521L67.84578552469611,876.0313846450299L184.76762739010155,784.3776725884527Z" fill="#739067" stroke="#739067"></path><path d="M124.9089843314141,658.6494843475521L184.76762739010155,784.3776725884527L268.0045110080391,622.0094861648977Z" fill="#649e66" stroke="#649e66"></path><path d="M268.0045110080391,622.0094861648977L184.76762739010155,784.3776725884527L384.24538099206984,650.7511220220476Z" fill="#4a945b" stroke="#4a945b"></path><path d="M384.24538099206984,650.7511220220476L184.76762739010155,784.3776725884527L382.1942106820643,856.8129998166114Z" fill="#3d7b4f" stroke="#3d7b4f"></path><path d="M384.24538099206984,650.7511220220476L382.1942106820643,856.8129998166114L575.1345476042479,708.6164363007993Z" fill="#18683b" stroke="#18683b"></path><path d="M575.1345476042479,708.6164363007993L382.1942106820643,856.8129998166114L578.0084145069122,811.2041020207107Z" fill="#0b4e2f" stroke="#0b4e2f"></path><path d="M575.1345476042479,708.6164363007993L578.0084145069122,811.2041020207107L696.9608807377517,693.2380404789001Z" fill="#00462b" stroke="#00462b"></path><path d="M696.9608807377517,693.2380404789001L578.0084145069122,811.2041020207107L713.9813685882837,823.6026790179312Z" fill="#003224" stroke="#003224"></path><path d="M696.9608807377517,693.2380404789001L713.9813685882837,823.6026790179312L850.0285300891846,837.0686395000666Z" fill="#001c1b" stroke="#001c1b"></path><path d="M696.9608807377517,693.2380404789001L850.0285300891846,837.0686395000666L858.1218597851694,620.7152328919619Z" fill="#00231d" stroke="#00231d"></path><path d="M858.1218597851694,620.7152328919619L850.0285300891846,837.0686395000666L861.3682826142758,969.3892078846693Z" fill="#000d0f" stroke="#000d0f"></path><path d="M-83.92471745610237,794.6395746152848L-83.93070939928293,982.7649515960366L67.84578552469611,876.0313846450299Z" fill="#808083" stroke="#808083"></path><path d="M67.84578552469611,876.0313846450299L-83.93070939928293,982.7649515960366L114.81616317294538,963.3952656202018Z" fill="#7e7f6b" stroke="#7e7f6b"></path><path d="M67.84578552469611,876.0313846450299L114.81616317294538,963.3952656202018L184.76762739010155,784.3776725884527Z" fill="#747b5e" stroke="#747b5e"></path><path d="M184.76762739010155,784.3776725884527L114.81616317294538,963.3952656202018L230.56139566004276,963.0584541521966Z" fill="#687655" stroke="#687655"></path><path d="M184.76762739010155,784.3776725884527L230.56139566004276,963.0584541521966L382.1942106820643,856.8129998166114Z" fill="#4e6b4c" stroke="#4e6b4c"></path><path d="M382.1942106820643,856.8129998166114L230.56139566004276,963.0584541521966L334.5799595396966,984.0160125307739Z" fill="#3e643f" stroke="#3e643f"></path><path d="M382.1942106820643,856.8129998166114L334.5799595396966,984.0160125307739L488.4393293224275,927.6810767501593Z" fill="#205531" stroke="#205531"></path><path d="M382.1942106820643,856.8129998166114L488.4393293224275,927.6810767501593L578.0084145069122,811.2041020207107Z" fill="#11422a" stroke="#11422a"></path><path d="M578.0084145069122,811.2041020207107L488.4393293224275,927.6810767501593L724.1578284837306,1015.1526612695307Z" fill="#002c1c" stroke="#002c1c"></path><path d="M578.0084145069122,811.2041020207107L724.1578284837306,1015.1526612695307L713.9813685882837,823.6026790179312Z" fill="#001c19" stroke="#001c19"></path><path d="M713.9813685882837,823.6026790179312L724.1578284837306,1015.1526612695307L861.3682826142758,969.3892078846693Z" fill="#00070c" stroke="#00070c"></path><path d="M713.9813685882837,823.6026790179312L861.3682826142758,969.3892078846693L850.0285300891846,837.0686395000666Z" fill="#00000e" stroke="#00000e"></path><path d="M-83.93070939928293,982.7649515960366L724.1578284837306,1015.1526612695307L334.5799595396966,984.0160125307739Z" fill="#3b623c" stroke="#3b623c"></path><path d="M-83.93070939928293,982.7649515960366L334.5799595396966,984.0160125307739L114.81616317294538,963.3952656202018Z" fill="#747b57" stroke="#747b57"></path><path d="M114.81616317294538,963.3952656202018L334.5799595396966,984.0160125307739L230.56139566004276,963.0584541521966Z" fill="#5a7049" stroke="#5a7049"></path><path d="M334.5799595396966,984.0160125307739L724.1578284837306,1015.1526612695307L488.4393293224275,927.6810767501593Z" fill="#0a3c1f" stroke="#0a3c1f"></path></g></svg>